{
.appVersion = "3108";
copyright = "Copyright 2012 The Libre Bodoni Project Authors (https://github.com/googlefonts/Libre-Bodoni/)";
customParameters = (
{
name = panose;
value = (
2,
7,
5,
3,
7,
6,
0,
0,
0,
3
);
},
{
name = "Axis Mappings";
value = {
wght = {
400 = 400;
500 = 550;
700 = 700;
};
};
},
{
name = fsType;
value = (
);
},
{
name = "Use Line Breaks";
value = 1;
},
{
name = "Use Typo Metrics";
value = 1;
},
{
name = "Variable Font Origin";
value = UUID0;
},
{
name = licenseURL;
value = "https://scripts.sil.org/OFL";
},
{
name = description;
value = "Libre Bodoni is a webfont family optimized for body text. Based on 1923 ATF Specimens.";
},
{
name = trademark;
value = "Libre Bodoni is a trademark of Impallari Type.";
},
{
name = license;
value = "This Font Software is licensed under the SIL Open Font License, Version 1.1. This license is available with a FAQ at: https://scripts.sil.org/OFL";
},
{
name = Axes;
value = (
{
Name = Weight;
Tag = wght;
}
);
}
);
date = "2016-08-16 10:50:52 +0000";
designer = "Pablo Impallari, Rodrigo Fuenzalida";
designerURL = www.impallari.com;
familyName = "Libre Bodoni";
features = (
{
code = "sub f f i by f_f_i;
	sub f f l by f_f_l;
  sub f f by f_f;
  sub f i by f_i;
  sub f l by f_l;
";
name = liga;
},
{
code = "sub [zero one two three four five six seven eight nine] [A a]' by [ordfeminine ordfeminine];
	sub [zero one two three four five six seven eight nine] [O o]' by [ordmasculine ordmasculine];
	sub [zero one two three four five six seven eight nine] period [A a]' by [ordfeminine ordfeminine];
	sub [zero one two three four five six seven eight nine] period [O o]' by [ordmasculine ordmasculine];
";
name = ordn;
},
{
code = "sub one [slash fraction] two by onehalf;
	sub one [slash fraction] three by onethird;
	sub one [slash fraction] four by onequarter;
	sub one [slash fraction] eight by oneeighth;
	sub two [slash fraction] three by twothirds;
	sub three [slash fraction] four by threequarters;

glyphs = (
{
glyphname = A;
lastChange = "2016-08-22 11:54:24 +0000";
layers = (
{
anchors = (
{
name = bottom;
position = "{343, 0}";
},
{
name = ogonek;
position = "{590, 44}";
},
{
name = top;
position = "{343, 754}";
}
);
background = {
paths = (
{
closed = 1;
nodes = (
"508 15 LINE",
"642 15 LINE",
"391 763 LINE",
"361 763 LINE",
"313 594 LINE",
"320 565 LINE",
"324 565 LINE"
);
},
{
closed = 1;
nodes = (
"388 0 LINE",
"735 0 LINE",
"735 25 LINE",
"388 25 LINE"
);
},
{
closed = 1;
nodes = (
"209 236 LINE",
"533 236 LINE",
"533 261 LINE",
"209 261 LINE"
);
},
{
closed = 1;
nodes = (
"10 0 LINE",
"254 0 LINE",
"254 25 LINE",
"10 25 LINE"
);
},
{
closed = 1;
nodes = (
"330 594 LINE",
"391 763 LINE",
"361 763 LINE",
"100 15 LINE",
"133 15 LINE"
);
}
);
};
layerId = UUID0;
paths = (
{
closed = 1;
nodes = (
"612 15 LINE",
"361 766 LINE",
"331 766 LINE",
"283 594 LINE",
"290 565 LINE",
"294 565 LINE",
"478 15 LINE"
);
},
{
closed = 1;
nodes = (
"224 0 LINE",
"224 25 LINE",
"-16 25 LINE",
"-16 0 LINE"
);
},
{
closed = 1;
nodes = (
"503 236 LINE",
"503 261 LINE",
"179 261 LINE",
"179 236 LINE"
);
},
{
closed = 1;
nodes = (
"701 0 LINE",
"701 25 LINE",
"358 25 LINE",
"358 0 LINE"
);
},
{
closed = 1;
nodes = (
"103 15 LINE",
"300 594 LINE",
"361 766 LINE",
"331 766 LINE",
"70 15 LINE"
);
}
);
width = 686;
},
{
anchors = (
{
name = bottom;
position = "{358, 0}";
},
{
name = ogonek;
position = "{643, 10}";
},
{
name = top;
position = "{383, 754}";
}
);
background = {
paths = (
{
closed = 1;
nodes = (
"349 752 OFFCURVE",
"346 744 OFFCURVE",
"332 696 CURVE",
"329 689 OFFCURVE",
"326 682 OFFCURVE",
"324 680 CURVE",
"324 679 OFFCURVE",
"323 675 OFFCURVE",
"321 671 CURVE SMOOTH",
"320 667 OFFCURVE",
"316 655 OFFCURVE",
"313 646 CURVE",
"308 638 OFFCURVE",
"301 616 OFFCURVE",
"296 600 CURVE SMOOTH",
"278 547 OFFCURVE",
"271 529 OFFCURVE",
"266 520 CURVE SMOOTH",
"260 508 OFFCURVE",
"254 490 OFFCURVE",
"246 466 CURVE",
"245 457 OFFCURVE",
"241 446 OFFCURVE",
"240 446 CURVE",
"240 445 OFFCURVE",
"238 441 OFFCURVE",
"237 437 CURVE SMOOTH",
"235 433 OFFCURVE",
"231 426 OFFCURVE",
"229 421 CURVE SMOOTH",
"228 418 OFFCURVE",
"224 412 OFFCURVE",
"223 404 CURVE SMOOTH",
"220 391 OFFCURVE",
"212 368 OFFCURVE",
"203 353 CURVE SMOOTH",
"199 346 OFFCURVE",
"195 331 OFFCURVE",
"190 318 CURVE SMOOTH",
"184 306 OFFCURVE",
"178 291 OFFCURVE",
"176 286 CURVE SMOOTH",
"173 281 OFFCURVE",
"171 276 OFFCURVE",
"171 274 CURVE SMOOTH",
"171 273 OFFCURVE",
"162 248 OFFCURVE",
"148 203 CURVE",
"145 190 OFFCURVE",
"137 178 OFFCURVE",
"136 170 CURVE",
"132 164 OFFCURVE",
"128 153 OFFCURVE",
"126 145 CURVE SMOOTH",
"121 132 OFFCURVE",
"109 98 OFFCURVE",
"99 77 CURVE",
"96 65 OFFCURVE",
"76 47 OFFCURVE",
"65 42 CURVE SMOOTH",
"62 40 OFFCURVE",
"49 39 OFFCURVE",
"32 39 CURVE",
"3 37 OFFCURVE",
"-3 36 OFFCURVE",
"-6 27 CURVE SMOOTH",
"-10 19 OFFCURVE",
"-8 11 OFFCURVE",
"-3 5 CURVE",
"0 0 LINE",
"62 0 LINE SMOOTH",
"94 0 OFFCURVE",
"128 0 OFFCURVE",
"132 2 CURVE",
"135 2 OFFCURVE",
"161 2 OFFCURVE",
"186 0 CURVE",
"231 -2 LINE",
"238 5 LINE",
"243 8 OFFCURVE",
"243 12 OFFCURVE",
"243 19 CURVE SMOOTH",
"243 36 OFFCURVE",
"232 42 OFFCURVE",
"207 44 CURVE",
"198 44 OFFCURVE",
"186 44 OFFCURVE",
"179 42 CURVE",
"157 39 OFFCURVE",
"145 45 OFFCURVE",
"140 64 CURVE",
"140 69 OFFCURVE",
"162 111 OFFCURVE",
"162 132 CURVE",
"165 139 OFFCURVE",
"170 148 OFFCURVE",
"171 156 CURVE",
"177 173 OFFCURVE",
"191 194 OFFCURVE",
"191 198 CURVE",
"207 206 OFFCURVE",
"223 207 OFFCURVE",
"316 207 CURVE SMOOTH",
"342 207 OFFCURVE",
"373 209 OFFCURVE",
"385 209 CURVE",
"398 211 OFFCURVE",
"410 211 OFFCURVE",
"410 209 CURVE",
"414 206 OFFCURVE",
"428 181 OFFCURVE",
"440 140 CURVE SMOOTH",
"444 132 OFFCURVE",
"450 114 OFFCURVE",
"454 100 CURVE SMOOTH",
"463 72 OFFCURVE",
"465 59 OFFCURVE",
"458 50 CURVE SMOOTH",
"455 45 OFFCURVE",
"454 45 OFFCURVE",
"432 45 CURVE SMOOTH",
"408 44 OFFCURVE",
"407 44 OFFCURVE",
"396 37 CURVE SMOOTH",
"391 34 OFFCURVE",
"385 28 OFFCURVE",
"385 25 CURVE",
"382 19 OFFCURVE",
"385 8 OFFCURVE",
"391 3 CURVE SMOOTH",
"396 0 OFFCURVE",
"400 0 OFFCURVE",
"429 0 CURVE",
"487 2 OFFCURVE",
"567 0 OFFCURVE",
"649 0 CURVE",
"695 -2 OFFCURVE",
"733 -2 OFFCURVE",
"736 -2 CURVE SMOOTH",
"746 -2 OFFCURVE",
"750 2 OFFCURVE",
"755 11 CURVE",
"758 19 OFFCURVE",
"756 27 OFFCURVE",
"748 36 CURVE SMOOTH",
"742 40 LINE",
"709 40 LINE SMOOTH",
"689 40 OFFCURVE",
"675 40 OFFCURVE",
"674 42 CURVE SMOOTH",
"674 44 OFFCURVE",
"671 50 OFFCURVE",
"667 59 CURVE",
"666 67 OFFCURVE",
"661 78 OFFCURVE",
"659 84 CURVE SMOOTH",
"658 89 OFFCURVE",
"653 100 OFFCURVE",
"649 109 CURVE SMOOTH",
"647 117 OFFCURVE",
"641 132 OFFCURVE",
"636 144 CURVE",
"633 156 OFFCURVE",
"624 174 OFFCURVE",
"619 187 CURVE",
"616 201 OFFCURVE",
"609 214 OFFCURVE",
"608 217 CURVE SMOOTH",
"605 223 OFFCURVE",
"602 231 OFFCURVE",
"600 237 CURVE SMOOTH",
"597 246 OFFCURVE",
"594 256 OFFCURVE",
"591 262 CURVE",
"589 270 OFFCURVE",
"582 282 OFFCURVE",
"579 295 CURVE",
"575 306 OFFCURVE",
"571 318 OFFCURVE",
"567 323 CURVE",
"558 345 OFFCURVE",
"550 365 OFFCURVE",
"546 379 CURVE",
"535 407 OFFCURVE",
"521 448 OFFCURVE",
"516 463 CURVE SMOOTH",
"512 470 OFFCURVE",
"505 488 OFFCURVE",
"500 502 CURVE",
"474 582 OFFCURVE",
"463 607 OFFCURVE",
"457 622 CURVE",
"450 635 OFFCURVE",
"447 646 OFFCURVE",
"432 683 CURVE SMOOTH",
"429 691 OFFCURVE",
"425 702 OFFCURVE",
"424 711 CURVE",
"416 731 OFFCURVE",
"405 755 OFFCURVE",
"399 759 CURVE",
"395 763 OFFCURVE",
"391 764 OFFCURVE",
"377 764 CURVE SMOOTH",
"362 764 OFFCURVE",
"360 763 OFFCURVE",
"357 759 CURVE"
);
},
{
closed = 1;
nodes = (
"312 487 OFFCURVE",
"333 435 OFFCURVE",
"345 398 CURVE SMOOTH",
"349 387 OFFCURVE",
"356 368 OFFCURVE",
"358 356 CURVE",
"363 343 OFFCURVE",
"368 329 OFFCURVE",
"370 324 CURVE",
"373 320 OFFCURVE",
"377 311 OFFCURVE",
"379 304 CURVE SMOOTH",
"380 299 OFFCURVE",
"382 291 OFFCURVE",
"383 290 CURVE SMOOTH",
"387 284 OFFCURVE",
"393 262 OFFCURVE",
"393 257 CURVE SMOOTH",
"393 254 OFFCURVE",
"393 253 OFFCURVE",
"391 251 CURVE SMOOTH",
"388 249 OFFCURVE",
"355 248 OFFCURVE",
"337 249 CURVE SMOOTH",
"313 251 OFFCURVE",
"265 251 OFFCURVE",
"254 249 CURVE SMOOTH",
"251 249 OFFCURVE",
"241 249 OFFCURVE",
"232 251 CURVE",
"209 253 OFFCURVE",
"206 259 OFFCURVE",
"216 281 CURVE",
"220 286 OFFCURVE",
"226 299 OFFCURVE",
"229 309 CURVE SMOOTH",
"232 320 OFFCURVE",
"238 332 OFFCURVE",
"240 340 CURVE SMOOTH",
"243 348 OFFCURVE",
"248 366 OFFCURVE",
"256 383 CURVE",
"279 448 OFFCURVE",
"297 495 OFFCURVE",
"299 499 CURVE SMOOTH",
"301 502 OFFCURVE",
"305 502 OFFCURVE",
"307 496 CURVE SMOOTH"
);
}
);
};
layerId = "3AE1663F-34E8-4710-91A2-69F84C961E5F";
paths = (
{
closed = 1;
nodes = (
"666 15 LINE",
"394 763 LINE",
"368 763 LINE",
"300 553 LINE",
"306 516 LINE",
"310 516 LINE",
"493 15 LINE"
);
},
{
closed = 1;
nodes = (
"229 0 LINE",
"229 30 LINE",
"-15 30 LINE",
"-15 0 LINE"
);
},
{
closed = 1;
nodes = (
"508 204 LINE",
"508 233 LINE",
"164 233 LINE",
"164 204 LINE"
);
},
{
closed = 1;
nodes = (
"730 0 LINE",
"730 30 LINE",
"383 30 LINE",
"383 0 LINE"
);
},
{
closed = 1;
nodes = (
"106 15 LINE",
"342 604 LINE",
"394 763 LINE",
"368 763 LINE",
"73 15 LINE"
);
}
);
width = 715;
}
);
leftKerningGroup = A;
rightKerningGroup = A;
unicode = 0041;
},
{
glyphname = AE;
lastChange = "2016-08-22 11:59:17 +0000";
layers = (
{
anchors = (
{
name = bottom;
position = "{524, 0}";
},
{
name = top;
position = "{524, 754}";
}
);
background = {
paths = (
{
closed = 1;
nodes = (
"379 0 LINE",
"1010 0 LINE",
"1010 235 LINE",
"975 235 LINE",
"973 123 OFFCURVE",
"916 25 OFFCURVE",
"817 25 CURVE SMOOTH",
"631 25 LINE",
"631 363 LINE",
"752 362 OFFCURVE",
"783 327 OFFCURVE",
"786 216 CURVE",
"821 216 LINE",
"821 526 LINE",
"786 526 LINE",
"786 419 OFFCURVE",
"752 388 OFFCURVE",
"631 388 CURVE",
"631 729 LINE",
"787 729 LINE SMOOTH",
"886 729 OFFCURVE",
"943 646 OFFCURVE",
"945 549 CURVE",
"980 549 LINE",
"980 754 LINE",
"339 754 LINE",
"339 729 LINE",
"442 729 LINE",
"108 25 LINE",
"10 25 LINE",
"10 0 LINE",
"254 0 LINE",
"254 25 LINE",
"138 25 LINE",
"238 236 LINE",
"497 236 LINE",
"497 25 LINE",
"379 25 LINE"
);
},
{
closed = 1;
nodes = (
"473 729 LINE",
"497 729 LINE",
"497 261 LINE",
"250 261 LINE"
);
}
);
};
layerId = UUID0;
paths = (
{
closed = 1;
nodes = (
"254 0 LINE",
"254 25 LINE",
"138 25 LINE",
"238 236 LINE",
"497 236 LINE",
"497 25 LINE",
"379 25 LINE",
"379 0 LINE",
"1010 0 LINE",
"1010 235 LINE",
"975 235 LINE",
"973 123 OFFCURVE",
"916 25 OFFCURVE",
"817 25 CURVE SMOOTH",
"631 25 LINE",
"631 363 LINE",
"752 362 OFFCURVE",
"783 327 OFFCURVE",
"786 216 CURVE",
"821 216 LINE",
"821 526 LINE",
"786 526 LINE",
"786 419 OFFCURVE",
"752 388 OFFCURVE",
"631 388 CURVE",
"631 729 LINE",
"787 729 LINE SMOOTH",
"886 729 OFFCURVE",
"943 646 OFFCURVE",
"945 549 CURVE",
"980 549 LINE",
"980 754 LINE",
"339 754 LINE",
"339 729 LINE",
"442 729 LINE",
"108 25 LINE",
"10 25 LINE",
"10 0 LINE"
);
},
{
closed = 1;
nodes = (
"473 729 LINE",
"497 729 LINE",
"497 261 LINE",
"250 261 LINE"
);
}
);
width = 1047;
},
{
anchors = (
{
name = bottom;
position = "{566, 0}";
},
{
name = top;
position = "{566, 754}";
}
);
background = {
paths = (
{
closed = 1;
nodes = (
"455 0 LINE",
"1096 0 LINE",
"1096 245 LINE",
"1056 245 LINE",
"1054 131 OFFCURVE",
"989 30 OFFCURVE",
"878 30 CURVE SMOOTH",
"708 30 LINE",
"708 356 LINE",
"837 355 OFFCURVE",
"885 311 OFFCURVE",
"887 216 CURVE",
"927 216 LINE",
"927 516 LINE",
"887 516 LINE",
"885 428 OFFCURVE",
"837 387 OFFCURVE",
"708 386 CURVE",
"708 724 LINE",
"878 724 LINE SMOOTH",
"980 724 OFFCURVE",
"1039 646 OFFCURVE",
"1041 554 CURVE",
"1081 554 LINE",
"1081 754 LINE",
"385 754 LINE",
"385 724 LINE",
"470 724 LINE",
"102 30 LINE",
"10 30 LINE",
"10 0 LINE",
"254 0 LINE",
"254 30 LINE",
"150 30 LINE",
"257 231 LINE",
"550 231 LINE",
"550 30 LINE",
"455 30 LINE"
);
},
{
closed = 1;
nodes = (
"520 724 LINE",
"550 724 LINE",
"550 263 LINE",
"274 263 LINE"
);
}
);
};
layerId = "3AE1663F-34E8-4710-91A2-69F84C961E5F";
paths = (
{
closed = 1;
nodes = (
"254 0 LINE",
"254 30 LINE",
"150 30 LINE",
"257 231 LINE",
"550 231 LINE",
"550 30 LINE",
"455 30 LINE",
"455 0 LINE",
"1096 0 LINE",
"1096 245 LINE",
"1056 245 LINE",
"1054 131 OFFCURVE",
"989 30 OFFCURVE",
"878 30 CURVE SMOOTH",
"708 30 LINE",
"708 356 LINE",
"837 355 OFFCURVE",
"885 311 OFFCURVE",
"887 216 CURVE",
"927 216 LINE",
"927 516 LINE",
"887 516 LINE",
"885 428 OFFCURVE",
"837 387 OFFCURVE",
"708 386 CURVE",
"708 724 LINE",
"878 724 LINE SMOOTH",
"980 724 OFFCURVE",
"1039 646 OFFCURVE",
"1041 554 CURVE",
"1081 554 LINE",
"1081 754 LINE",
"385 754 LINE",
"385 724 LINE",
"470 724 LINE",
"102 30 LINE",
"10 30 LINE",
"10 0 LINE"
);
},
{
closed = 1;
nodes = (
"520 724 LINE",
"550 724 LINE",
"550 263 LINE",
"274 263 LINE"
);
}
);
width = 1131;
}
);
leftKerningGroup = AE;
rightKerningGroup = E;
unicode = 00C6;
},
{
glyphname = B;
lastChange = "2016-08-22 11:52:33 +0000";
layers = (
{
anchors = (
{
name = bottom;
position = "{352, 0}";
},
{
name = top;
position = "{352, 754}";
}
);
background = {
paths = (
{
closed = 1;
nodes = (
"127 15 LINE",
"261 15 LINE",
"261 754 LINE",
"127 754 LINE"
);
},
{
closed = 1;
nodes = (
"363 382 LINE SMOOTH",
"516 382 OFFCURVE",
"638 459 OFFCURVE",
"638 572 CURVE SMOOTH",
"638 677 OFFCURVE",
"534 754 OFFCURVE",
"403 754 CURVE SMOOTH",
"17 754 LINE",
"17 729 LINE",
"363 729 LINE SMOOTH",
"451 729 OFFCURVE",
"493 703 OFFCURVE",
"493 568 CURVE SMOOTH",
"493 440 OFFCURVE",
"455 412 OFFCURVE",
"363 412 CURVE SMOOTH",
"230 412 LINE",
"230 382 LINE"
);
},
{
closed = 1;
nodes = (
"333 382 LINE",
"468 382 OFFCURVE",
"513 344 OFFCURVE",
"513 209 CURVE SMOOTH",
"513 59 OFFCURVE",
"457 25 OFFCURVE",
"363 25 CURVE SMOOTH",
"17 25 LINE",
"17 0 LINE",
"403 0 LINE SMOOTH",
"552 0 OFFCURVE",
"666 83 OFFCURVE",
"666 204 CURVE SMOOTH",
"666 345 OFFCURVE",
"510 412 OFFCURVE",
"303 412 CURVE"
);
}
);
};
layerId = UUID0;
paths = (
{
closed = 1;
nodes = (
"380 0 LINE SMOOTH",
"529 0 OFFCURVE",
"643 83 OFFCURVE",
"643 204 CURVE SMOOTH",
"643 345 OFFCURVE",
"487 412 OFFCURVE",
"280 412 CURVE",
"310 382 LINE",
"445 382 OFFCURVE",
"490 344 OFFCURVE",
"490 209 CURVE SMOOTH",
"490 59 OFFCURVE",
"434 25 OFFCURVE",
"340 25 CURVE SMOOTH",
"-6 25 LINE",
"-6 0 LINE"
);
},
{
closed = 1;
nodes = (
"238 15 LINE",
"238 754 LINE",
"104 754 LINE",
"104 15 LINE"
);
},
{
closed = 1;
nodes = (
"340 382 LINE SMOOTH",
"493 382 OFFCURVE",
"615 459 OFFCURVE",
"615 572 CURVE SMOOTH",
"615 677 OFFCURVE",
"511 754 OFFCURVE",
"380 754 CURVE SMOOTH",
"-6 754 LINE",
"-6 729 LINE",
"340 729 LINE SMOOTH",
"428 729 OFFCURVE",
"470 703 OFFCURVE",
"470 568 CURVE SMOOTH",
"470 440 OFFCURVE",
"432 412 OFFCURVE",
"340 412 CURVE SMOOTH",
"207 412 LINE",
"207 382 LINE"
);
}
);
width = 703;
},
{
anchors = (
{
name = bottom;
position = "{376, 0}";
},
{
name = top;
position = "{376, 754}";
}
);
background = {
paths = (
{
closed = 1;
nodes = (
"30 751 OFFCURVE",
"25 747 OFFCURVE",
"24 735 CURVE",
"22 731 OFFCURVE",
"24 727 OFFCURVE",
"29 723 CURVE",
"33 715 LINE",
"75 715 LINE SMOOTH",
"95 715 OFFCURVE",
"116 715 OFFCURVE",
"116 715 CURVE",
"123 714 OFFCURVE",
"124 702 OFFCURVE",
"124 658 CURVE SMOOTH",
"124 635 OFFCURVE",
"126 609 OFFCURVE",
"126 604 CURVE SMOOTH",
"124 499 OFFCURVE",
"123 394 OFFCURVE",
"123 362 CURVE SMOOTH",
"123 341 OFFCURVE",
"123 307 OFFCURVE",
"123 285 CURVE SMOOTH",
"123 264 OFFCURVE",
"123 225 OFFCURVE",
"123 197 CURVE SMOOTH",
"123 170 OFFCURVE",
"123 127 OFFCURVE",
"123 105 CURVE SMOOTH",
"123 62 OFFCURVE",
"121 41 OFFCURVE",
"118 37 CURVE SMOOTH",
"116 34 OFFCURVE",
"95 34 OFFCURVE",
"63 36 CURVE SMOOTH",
"38 37 OFFCURVE",
"38 37 OFFCURVE",
"30 33 CURVE",
"14 21 OFFCURVE",
"21 -2 OFFCURVE",
"44 -4 CURVE SMOOTH",
"47 -4 OFFCURVE",
"83 -2 OFFCURVE",
"123 -2 CURVE",
"162 0 OFFCURVE",
"252 0 OFFCURVE",
"321 0 CURVE SMOOTH",
"418 0 OFFCURVE",
"456 0 OFFCURVE",
"481 3 CURVE",
"515 4 OFFCURVE",
"539 9 OFFCURVE",
"558 17 CURVE SMOOTH",
"561 18 OFFCURVE",
"572 21 OFFCURVE",
"575 23 CURVE",
"594 29 OFFCURVE",
"627 47 OFFCURVE",
"641 59 CURVE SMOOTH",
"685 91 OFFCURVE",
"717 156 OFFCURVE",
"714 206 CURVE SMOOTH",
"712 233 OFFCURVE",
"707 249 OFFCURVE",
"699 271 CURVE",
"687 292 OFFCURVE",
"674 312 OFFCURVE",
"660 321 CURVE SMOOTH",
"653 326 OFFCURVE",
"643 333 OFFCURVE",
"640 337 CURVE",
"629 346 OFFCURVE",
"600 361 OFFCURVE",
"577 370 CURVE SMOOTH",
"559 376 OFFCURVE",
"523 386 OFFCURVE",
"504 389 CURVE SMOOTH",
"497 390 OFFCURVE",
"490 390 OFFCURVE",
"490 392 CURVE",
"485 394 OFFCURVE",
"494 398 OFFCURVE",
"509 400 CURVE",
"530 405 OFFCURVE",
"575 422 OFFCURVE",
"592 430 CURVE SMOOTH",
"615 443 OFFCURVE",
"653 479 OFFCURVE",
"663 499 CURVE",
"671 512 OFFCURVE",
"679 535 OFFCURVE",
"679 546 CURVE",
"682 561 OFFCURVE",
"681 594 OFFCURVE",
"678 608 CURVE SMOOTH",
"671 635 OFFCURVE",
"656 661 OFFCURVE",
"633 683 CURVE",
"621 696 OFFCURVE",
"592 715 OFFCURVE",
"588 715 CURVE SMOOTH",
"588 715 OFFCURVE",
"583 717 OFFCURVE",
"575 721 CURVE SMOOTH",
"542 735 OFFCURVE",
"504 745 OFFCURVE",
"471 748 CURVE",
"462 748 OFFCURVE",
"395 748 OFFCURVE",
"321 750 CURVE",
"249 750 OFFCURVE",
"177 750 OFFCURVE",
"161 751 CURVE SMOOTH",
"107 753 OFFCURVE",
"58 753 OFFCURVE",
"46 751 CURVE"
);
},
{
closed = 1;
nodes = (
"445 707 OFFCURVE",
"450 704 OFFCURVE",
"462 694 CURVE SMOOTH",
"488 674 OFFCURVE",
"496 632 OFFCURVE",
"492 540 CURVE SMOOTH",
"489 486 OFFCURVE",
"484 461 OFFCURVE",
"469 441 CURVE",
"465 433 OFFCURVE",
"448 420 OFFCURVE",
"440 415 CURVE",
"428 411 OFFCURVE",
"411 409 OFFCURVE",
"356 409 CURVE SMOOTH",
"304 409 OFFCURVE",
"298 409 OFFCURVE",
"295 412 CURVE SMOOTH",
"293 415 OFFCURVE",
"292 425 OFFCURVE",
"292 527 CURVE SMOOTH",
"292 587 OFFCURVE",
"292 653 OFFCURVE",
"293 673 CURVE",
"293 707 OFFCURVE",
"293 709 OFFCURVE",
"298 712 CURVE SMOOTH",
"301 715 OFFCURVE",
"306 715 OFFCURVE",
"362 715 CURVE SMOOTH",
"414 715 OFFCURVE",
"423 714 OFFCURVE",
"433 710 CURVE"
);
},
{
closed = 1;
nodes = (
"427 370 OFFCURVE",
"433 370 OFFCURVE",
"440 365 CURVE SMOOTH",
"443 364 OFFCURVE",
"450 362 OFFCURVE",
"454 359 CURVE SMOOTH",
"457 357 OFFCURVE",
"462 354 OFFCURVE",
"466 353 CURVE SMOOTH",
"472 349 OFFCURVE",
"485 337 OFFCURVE",
"492 329 CURVE",
"514 308 OFFCURVE",
"514 280 OFFCURVE",
"514 217 CURVE",
"515 198 OFFCURVE",
"512 148 OFFCURVE",
"507 116 CURVE",
"504 90 OFFCURVE",
"497 75 OFFCURVE",
"481 59 CURVE SMOOTH",
"469 45 OFFCURVE",
"462 42 OFFCURVE",
"440 37 CURVE",
"430 36 OFFCURVE",
"411 36 OFFCURVE",
"362 36 CURVE SMOOTH",
"300 36 OFFCURVE",
"300 36 OFFCURVE",
"295 39 CURVE SMOOTH",
"292 42 OFFCURVE",
"292 47 OFFCURVE",
"292 116 CURVE SMOOTH",
"292 157 OFFCURVE",
"292 228 OFFCURVE",
"292 275 CURVE",
"290 333 OFFCURVE",
"292 361 OFFCURVE",
"293 364 CURVE SMOOTH",
"296 376 OFFCURVE",
"301 376 OFFCURVE",
"354 376 CURVE",
"380 374 OFFCURVE",
"407 373 OFFCURVE",
"413 373 CURVE"
);
}
);
};
layerId = "3AE1663F-34E8-4710-91A2-69F84C961E5F";
paths = (
{
closed = 1;
nodes = (
"428 0 LINE SMOOTH",
"586 0 OFFCURVE",
"706 60 OFFCURVE",
"706 194 CURVE SMOOTH",
"706 345 OFFCURVE",
"558 402 OFFCURVE",
"341 402 CURVE",
"371 367 LINE",
"489 367 OFFCURVE",
"528 332 OFFCURVE",
"528 206 CURVE SMOOTH",
"528 63 OFFCURVE",
"475 30 OFFCURVE",
"388 30 CURVE SMOOTH",
"25 30 LINE",
"25 0 LINE"
);
},
{
closed = 1;
nodes = (
"283 15 LINE",
"283 754 LINE",
"125 754 LINE",
"125 15 LINE"
);
},
{
closed = 1;
nodes = (
"388 367 LINE SMOOTH",
"559 367 OFFCURVE",
"678 434 OFFCURVE",
"678 565 CURVE SMOOTH",
"678 691 OFFCURVE",
"568 754 OFFCURVE",
"428 754 CURVE SMOOTH",
"25 754 LINE",
"25 724 LINE",
"388 724 LINE SMOOTH",
"471 724 OFFCURVE",
"508 698 OFFCURVE",
"508 564 CURVE SMOOTH",
"508 432 OFFCURVE",
"472 402 OFFCURVE",
"388 402 CURVE SMOOTH",
"228 402 LINE",
"228 367 LINE"
);
}
);
width = 751;
}
);
unicode = 0042;
},
{
glyphname = C;
lastChange = "2016-08-22 12:01:59 +0000";
layers = (
{
anchors = (
{
name = bottom;
position = "{393, 0}";
},
{
name = top;
position = "{397, 754}";
}
);
background = {
paths = (
{
closed = 1;
nodes = (
"458 -12 OFFCURVE",
"525 6 OFFCURVE",
"578 46 CURVE",
"612 0 LINE",
"637 0 LINE",
"637 212 LINE",
"612 212 LINE",
"588 103 OFFCURVE",
"531 18 OFFCURVE",
"393 18 CURVE SMOOTH",
"279 18 OFFCURVE",
"206 87 OFFCURVE",
"206 377 CURVE SMOOTH",
"206 667 OFFCURVE",
"281 736 OFFCURVE",
"395 736 CURVE SMOOTH",
"526 736 OFFCURVE",
"581 640 OFFCURVE",
"603 528 CURVE",
"628 528 LINE",
"628 754 LINE",
"603 754 LINE",
"564 704 LINE",
"513 747 OFFCURVE",
"459 766 OFFCURVE",
"396 766 CURVE SMOOTH",
"200 766 OFFCURVE",
"46 583 OFFCURVE",
"46 377 CURVE SMOOTH",
"46 171 OFFCURVE",
"197 -12 OFFCURVE",
"393 -12 CURVE SMOOTH"
);
}
);
};
layerId = UUID0;
paths = (
{
closed = 1;
nodes = (
"458 -12 OFFCURVE",
"525 6 OFFCURVE",
"578 46 CURVE",
"612 0 LINE",
"637 0 LINE",
"637 212 LINE",
"612 212 LINE",
"588 103 OFFCURVE",
"531 18 OFFCURVE",
"393 18 CURVE SMOOTH",
"279 18 OFFCURVE",
"206 87 OFFCURVE",
"206 377 CURVE SMOOTH",
"206 667 OFFCURVE",
"281 736 OFFCURVE",
"395 736 CURVE SMOOTH",
"526 736 OFFCURVE",
"581 640 OFFCURVE",
"603 528 CURVE",
"628 528 LINE",
"628 754 LINE",
"603 754 LINE",
"564 704 LINE",
"513 747 OFFCURVE",
"459 766 OFFCURVE",
"396 766 CURVE SMOOTH",
"200 766 OFFCURVE",
"46 583 OFFCURVE",
"46 377 CURVE SMOOTH",
"46 171 OFFCURVE",
"197 -12 OFFCURVE",
"393 -12 CURVE SMOOTH"
);
}
);
width = 687;
},
{
anchors = (
{
name = bottom;
position = "{412, -3}";
},
{
name = top;
position = "{410, 754}";
}
);
background = {
paths = (
{
closed = 1;
nodes = (
"476 -13 OFFCURVE",
"534 4 OFFCURVE",
"592 46 CURVE",
"636 0 LINE",
"666 0 LINE",
"666 217 LINE",
"636 217 LINE",
"613 112 OFFCURVE",
"549 22 OFFCURVE",
"413 22 CURVE SMOOTH",
"297 22 OFFCURVE",
"240 86 OFFCURVE",
"240 361 CURVE SMOOTH",
"240 672 OFFCURVE",
"313 728 OFFCURVE",
"412 728 CURVE SMOOTH",
"537 728 OFFCURVE",
"600 639 OFFCURVE",
"622 523 CURVE",
"652 523 LINE",
"652 754 LINE",
"627 754 LINE",
"583 704 LINE",
"530 744 OFFCURVE",
"485 763 OFFCURVE",
"416 763 CURVE SMOOTH",
"201 763 OFFCURVE",
"50 577 OFFCURVE",
"50 372 CURVE SMOOTH",
"50 167 OFFCURVE",
"202 -13 OFFCURVE",
"412 -13 CURVE SMOOTH"
);
}
);
};
layerId = "3AE1663F-34E8-4710-91A2-69F84C961E5F";
paths = (
{
closed = 1;
nodes = (
"476 -13 OFFCURVE",
"534 4 OFFCURVE",
"592 46 CURVE",
"636 0 LINE",
"666 0 LINE",
"666 217 LINE",
"636 217 LINE",
"613 112 OFFCURVE",
"549 22 OFFCURVE",
"413 22 CURVE SMOOTH",
"297 22 OFFCURVE",
"240 86 OFFCURVE",
"240 361 CURVE SMOOTH",
"240 672 OFFCURVE",
"313 728 OFFCURVE",
"412 728 CURVE SMOOTH",
"537 728 OFFCURVE",
"600 639 OFFCURVE",
"622 523 CURVE",
"652 523 LINE",
"652 754 LINE",
"627 754 LINE",
"583 704 LINE",
"530 744 OFFCURVE",
"485 763 OFFCURVE",
"416 763 CURVE SMOOTH",
"201 763 OFFCURVE",
"50 577 OFFCURVE",
"50 372 CURVE SMOOTH",
"50 167 OFFCURVE",
"202 -13 OFFCURVE",
"412 -13 CURVE SMOOTH"
);
}
);
width = 711;
}
);
leftKerningGroup = C;
rightKerningGroup = C;
unicode = 0043;
},
{
glyphname = D;
lastChange = "2016-08-22 11:52:33 +0000";
layers = (
{
anchors = (
{
name = bottom;
position = "{389, 0}";
},
{
name = center;
position = "{389, 377}";
},
{
name = top;
position = "{389, 754}";
}
);
background = {
paths = (
{
closed = 1;
nodes = (
"127 15 LINE",
"261 15 LINE",
"261 754 LINE",
"127 754 LINE"
);
},
{
closed = 1;
nodes = (
"361 729 LINE SMOOTH",
"519 729 OFFCURVE",
"579 662 OFFCURVE",
"579 379 CURVE SMOOTH",
"579 91 OFFCURVE",
"517 25 OFFCURVE",
"352 25 CURVE SMOOTH",
"17 25 LINE",
"17 0 LINE",
"382 0 LINE SMOOTH",
"582 0 OFFCURVE",
"739 180 OFFCURVE",
"739 380 CURVE SMOOTH",
"739 578 OFFCURVE",
"586 754 OFFCURVE",
"392 754 CURVE SMOOTH",
"17 754 LINE",
"17 729 LINE"
);
}
);
};
layerId = UUID0;
paths = (
{
closed = 1;
nodes = (
"376 0 LINE SMOOTH",
"576 0 OFFCURVE",
"733 179 OFFCURVE",
"733 377 CURVE SMOOTH",
"733 575 OFFCURVE",
"577 754 OFFCURVE",
"377 754 CURVE SMOOTH",
"11 754 LINE",
"11 729 LINE",
"345 729 LINE SMOOTH",
"509 729 OFFCURVE",
"573 663 OFFCURVE",
"573 377 CURVE SMOOTH",
"573 91 OFFCURVE",
"510 25 OFFCURVE",
"346 25 CURVE SMOOTH",
"11 25 LINE",
"11 0 LINE"
);
},
{
closed = 1;
nodes = (
"255 15 LINE",
"255 754 LINE",
"121 754 LINE",
"121 15 LINE"
);
}
);
width = 777;
},
{
anchors = (
{
name = bottom;
position = "{399, 0}";
},
{
name = center;
position = "{399, 377}";
},
{
name = top;
position = "{399, 754}";
}
);
background = {
paths = (
{
closed = 1;
nodes = (
"9 752 OFFCURVE",
"4 740 OFFCURVE",
"7 731 CURVE SMOOTH",
"12 719 OFFCURVE",
"16 719 OFFCURVE",
"60 721 CURVE",
"90 721 OFFCURVE",
"101 721 OFFCURVE",
"103 719 CURVE SMOOTH",
"104 717 OFFCURVE",
"106 710 OFFCURVE",
"108 693 CURVE",
"108 677 OFFCURVE",
"108 666 OFFCURVE",
"108 663 CURVE SMOOTH",
"108 661 OFFCURVE",
"106 651 OFFCURVE",
"106 641 CURVE SMOOTH",
"106 619 OFFCURVE",
"106 603 OFFCURVE",
"106 590 CURVE SMOOTH",
"106 572 OFFCURVE",
"106 241 OFFCURVE",
"108 205 CURVE SMOOTH",
"108 202 OFFCURVE",
"108 188 OFFCURVE",
"106 175 CURVE",
"106 163 OFFCURVE",
"106 127 OFFCURVE",
"106 95 CURVE SMOOTH",
"106 65 OFFCURVE",
"104 37 OFFCURVE",
"103 36 CURVE",
"103 34 OFFCURVE",
"100 32 OFFCURVE",
"88 32 CURVE SMOOTH",
"82 32 OFFCURVE",
"70 34 OFFCURVE",
"65 34 CURVE",
"59 36 OFFCURVE",
"45 37 OFFCURVE",
"35 37 CURVE",
"15 39 LINE",
"9 32 LINE",
"2 26 OFFCURVE",
"2 24 OFFCURVE",
"2 16 CURVE SMOOTH",
"2 3 OFFCURVE",
"14 -4 OFFCURVE",
"32 -5 CURVE SMOOTH",
"39 -5 OFFCURVE",
"92 -2 OFFCURVE",
"100 -1 CURVE",
"106 1 OFFCURVE",
"132 1 OFFCURVE",
"225 -1 CURVE",
"373 -2 OFFCURVE",
"432 -2 OFFCURVE",
"454 1 CURVE SMOOTH",
"485 4 OFFCURVE",
"542 20 OFFCURVE",
"556 26 CURVE",
"556 29 OFFCURVE",
"568 34 OFFCURVE",
"581 39 CURVE",
"609 54 OFFCURVE",
"635 73 OFFCURVE",
"658 97 CURVE",
"673 109 OFFCURVE",
"682 122 OFFCURVE",
"687 125 CURVE",
"699 139 OFFCURVE",
"720 177 OFFCURVE",
"730 194 CURVE",
"741 219 OFFCURVE",
"758 258 OFFCURVE",
"758 276 CURVE",
"760 282 OFFCURVE",
"762 291 OFFCURVE",
"763 294 CURVE SMOOTH",
"768 312 OFFCURVE",
"771 401 OFFCURVE",
"766 428 CURVE SMOOTH",
"765 434 OFFCURVE",
"763 448 OFFCURVE",
"763 456 CURVE",
"758 479 OFFCURVE",
"748 519 OFFCURVE",
"743 524 CURVE SMOOTH",
"741 525 OFFCURVE",
"741 527 OFFCURVE",
"741 528 CURVE SMOOTH",
"741 534 OFFCURVE",
"710 594 OFFCURVE",
"700 608 CURVE SMOOTH",
"690 623 OFFCURVE",
"662 654 OFFCURVE",
"654 661 CURVE",
"650 663 OFFCURVE",
"642 671 OFFCURVE",
"636 677 CURVE SMOOTH",
"627 684 OFFCURVE",
"617 693 OFFCURVE",
"613 694 CURVE",
"609 698 OFFCURVE",
"600 701 OFFCURVE",
"596 704 CURVE SMOOTH",
"566 723 OFFCURVE",
"523 739 OFFCURVE",
"493 742 CURVE",
"443 751 OFFCURVE",
"424 752 OFFCURVE",
"245 752 CURVE SMOOTH",
"150 752 OFFCURVE",
"60 754 OFFCURVE",
"46 754 CURVE SMOOTH",
"34 754 OFFCURVE",
"21 754 OFFCURVE",
"19 754 CURVE SMOOTH"
);
},
{
closed = 1;
nodes = (
"440 717 LINE",
"464 710 LINE SMOOTH",
"481 706 OFFCURVE",
"492 701 OFFCURVE",
"492 698 CURVE",
"495 696 OFFCURVE",
"498 693 OFFCURVE",
"501 693 CURVE",
"501 691 OFFCURVE",
"511 684 OFFCURVE",
"520 676 CURVE",
"542 663 OFFCURVE",
"542 661 OFFCURVE",
"542 643 CURVE",
"545 633 OFFCURVE",
"548 621 OFFCURVE",
"550 618 CURVE",
"550 615 OFFCURVE",
"551 611 OFFCURVE",
"553 610 CURVE",
"553 607 OFFCURVE",
"556 597 OFFCURVE",
"556 585 CURVE",
"558 575 OFFCURVE",
"559 558 OFFCURVE",
"561 550 CURVE",
"564 520 OFFCURVE",
"566 499 OFFCURVE",
"566 429 CURVE SMOOTH",
"567 312 OFFCURVE",
"566 251 OFFCURVE",
"561 208 CURVE",
"559 200 OFFCURVE",
"558 186 OFFCURVE",
"556 180 CURVE",
"553 147 OFFCURVE",
"545 120 OFFCURVE",
"536 106 CURVE SMOOTH",
"518 76 OFFCURVE",
"500 57 OFFCURVE",
"482 49 CURVE",
"460 37 OFFCURVE",
"432 34 OFFCURVE",
"357 34 CURVE SMOOTH",
"336 34 OFFCURVE",
"319 34 OFFCURVE",
"318 34 CURVE SMOOTH",
"288 34 OFFCURVE",
"286 36 OFFCURVE",
"286 56 CURVE SMOOTH",
"286 67 OFFCURVE",
"286 266 OFFCURVE",
"286 284 CURVE SMOOTH",
"286 337 OFFCURVE",
"286 643 OFFCURVE",
"286 685 CURVE SMOOTH",
"286 710 LINE",
"293 715 LINE",
"297 721 OFFCURVE",
"300 721 OFFCURVE",
"303 721 CURVE SMOOTH",
"307 721 OFFCURVE",
"338 719 OFFCURVE",
"374 719 CURVE"
);
}
);
};
layerId = "3AE1663F-34E8-4710-91A2-69F84C961E5F";
paths = (
{
closed = 1;
nodes = (
"411 0 LINE SMOOTH",
"611 0 OFFCURVE",
"768 180 OFFCURVE",
"768 380 CURVE SMOOTH",
"768 578 OFFCURVE",
"615 754 OFFCURVE",
"421 754 CURVE SMOOTH",
"20 754 LINE",
"20 724 LINE",
"390 724 LINE SMOOTH",
"527 724 OFFCURVE",
"578 657 OFFCURVE",
"578 379 CURVE SMOOTH",
"578 95 OFFCURVE",
"525 30 OFFCURVE",
"381 30 CURVE SMOOTH",
"20 30 LINE",
"20 0 LINE"
);
},
{
closed = 1;
nodes = (
"273 15 LINE",
"273 754 LINE",
"115 754 LINE",
"115 15 LINE"
);
}
);
width = 798;
}
);
leftKerningGroup = D;
rightKerningGroup = D;
unicode = 0044;
},
{
glyphname = Eth;
lastChange = "2016-08-22 12:09:32 +0000";
layers = (
{
background = {
paths = (
{
closed = 1;
nodes = (
"127 15 LINE",
"261 15 LINE",
"261 754 LINE",
"127 754 LINE"
);
},
{
closed = 1;
nodes = (
"361 729 LINE SMOOTH",
"519 729 OFFCURVE",
"579 662 OFFCURVE",
"579 379 CURVE SMOOTH",
"579 91 OFFCURVE",
"517 25 OFFCURVE",
"352 25 CURVE SMOOTH",
"17 25 LINE",
"17 0 LINE",
"382 0 LINE SMOOTH",
"582 0 OFFCURVE",
"739 180 OFFCURVE",
"739 380 CURVE SMOOTH",
"739 578 OFFCURVE",
"586 754 OFFCURVE",
"392 754 CURVE SMOOTH",
"17 754 LINE",
"17 729 LINE"
);
},
{
closed = 1;
nodes = (
"16 367 LINE",
"381 367 LINE",
"381 402 LINE",
"16 402 LINE"
);
}
);
};
components = (
{
name = D;
},
{
name = strokeshortcomb;
transform = "{1, 0, 0, 1, 389, 377}";
}
);
layerId = UUID0;
width = 777;
},
{
components = (
{
name = D;
},
{
alignment = 1;
name = strokeshortcomb;
transform = "{1, 0, 0, 1, -65, 377}";
}
);
layerId = "3AE1663F-34E8-4710-91A2-69F84C961E5F";
width = 798;
}
);
rightKerningGroup = D;
unicode = 00D0;
},
{
glyphname = Dcroat;
lastChange = "2016-08-19 17:05:53 +0000";
layers = (
{
components = (
{
name = D;
}
);
layerId = UUID0;
paths = (
{
closed = 1;
nodes = (
"381 367 LINE",
"381 402 LINE",
"16 402 LINE",
"16 367 LINE"
);
}
);
width = 777;
},
{
components = (
{
name = D;
}
);
layerId = "3AE1663F-34E8-4710-91A2-69F84C961E5F";
paths = (
{
closed = 1;
nodes = (
"411 361 LINE",
"411 408 LINE",
"16 408 LINE",
"16 361 LINE"
);
}
);
width = 798;
}
);
rightKerningGroup = D;
unicode = 0110;
},
{
glyphname = E;
lastChange = "2016-08-22 09:54:01 +0000";
layers = (
{
anchors = (
{
name = bottom;
position = "{346, 0}";
},
{
name = ogonek;
position = "{622, 10}";
},
{
name = top;
position = "{346, 754}";
},
{
name = topleft;
position = "{20, 754}";
}
);
background = {
paths = (
{
closed = 1;
nodes = (
"126 15 LINE",
"260 15 LINE",
"260 744 LINE",
"126 744 LINE"
);
},
{
closed = 1;
nodes = (
"450 526 LINE",
"415 526 LINE",
"415 418 OFFCURVE",
"381 388 OFFCURVE",
"257 388 CURVE",
"257 363 LINE",
"381 363 OFFCURVE",
"412 328 OFFCURVE",
"415 216 CURVE",
"450 216 LINE"
);
},
{
closed = 1;
nodes = (
"8 729 LINE",
"416 729 LINE SMOOTH",
"515 729 OFFCURVE",
"572 646 OFFCURVE",
"574 549 CURVE",
"609 549 LINE",
"609 754 LINE",
"8 754 LINE"
);
},
{
closed = 1;
nodes = (
"8 0 LINE",
"639 0 LINE",
"639 235 LINE",
"604 235 LINE",
"602 123 OFFCURVE",
"545 25 OFFCURVE",
"446 25 CURVE SMOOTH",
"8 25 LINE"
);
}
);
};
layerId = UUID0;
paths = (
{
closed = 1;
nodes = (
"639 0 LINE",
"639 235 LINE",
"604 235 LINE",
"602 123 OFFCURVE",
"545 25 OFFCURVE",
"446 25 CURVE SMOOTH",
"8 25 LINE",
"8 0 LINE"
);
},
{
closed = 1;
nodes = (
"260 15 LINE",
"260 744 LINE",
"126 744 LINE",
"126 15 LINE"
);
},
{
closed = 1;
nodes = (
"450 216 LINE",
"450 526 LINE",
"415 526 LINE",
"415 418 OFFCURVE",
"381 388 OFFCURVE",
"257 388 CURVE",
"257 363 LINE",
"381 363 OFFCURVE",
"412 328 OFFCURVE",
"415 216 CURVE"
);
},
{
closed = 1;
nodes = (
"609 549 LINE",
"609 754 LINE",
"8 754 LINE",
"8 729 LINE",
"416 729 LINE SMOOTH",
"515 729 OFFCURVE",
"572 646 OFFCURVE",
"574 549 CURVE"
);
}
);
width = 691;
},
{
anchors = (
{
name = bottom;
position = "{348, 0}";
},
{
name = ogonek;
position = "{626, 10}";
},
{
name = top;
position = "{348, 754}";
},
{
name = topleft;
position = "{20, 754}";
}
);
background = {
paths = (
{
closed = 1;
nodes = (
"115 15 LINE",
"273 15 LINE",
"273 754 LINE",
"115 754 LINE"
);
},
{
closed = 1;
nodes = (
"20 0 LINE",
"661 0 LINE",
"661 245 LINE",
"621 245 LINE",
"619 131 OFFCURVE",
"554 30 OFFCURVE",
"443 30 CURVE SMOOTH",
"20 30 LINE"
);
},
{
closed = 1;
nodes = (
"20 724 LINE",
"443 724 LINE SMOOTH",
"545 724 OFFCURVE",
"604 646 OFFCURVE",
"606 554 CURVE",
"646 554 LINE",
"646 754 LINE",
"20 754 LINE"
);
},
{
closed = 1;
nodes = (
"269 356 LINE",
"401 356 OFFCURVE",
"450 312 OFFCURVE",
"452 216 CURVE",
"492 216 LINE",
"492 516 LINE",
"452 516 LINE",
"450 427 OFFCURVE",
"401 386 OFFCURVE",
"269 386 CURVE"
);
}
);
};
layerId = "3AE1663F-34E8-4710-91A2-69F84C961E5F";
paths = (
{
closed = 1;
nodes = (
"661 0 LINE",
"661 245 LINE",
"621 245 LINE",
"619 131 OFFCURVE",
"554 30 OFFCURVE",
"443 30 CURVE SMOOTH",
"20 30 LINE",
"20 0 LINE"
);
},
{
closed = 1;
nodes = (
"273 15 LINE",
"273 754 LINE",
"115 754 LINE",
"115 15 LINE"
);
},
{
closed = 1;
nodes = (
"492 216 LINE",
"492 516 LINE",
"452 516 LINE",
"450 427 OFFCURVE",
"401 386 OFFCURVE",
"269 386 CURVE",
"269 356 LINE",
"401 356 OFFCURVE",
"450 312 OFFCURVE",
"452 216 CURVE"
);
},
{
closed = 1;
nodes = (
"646 554 LINE",
"646 754 LINE",
"20 754 LINE",
"20 724 LINE",
"443 724 LINE SMOOTH",
"545 724 OFFCURVE",
"604 646 OFFCURVE",
"606 554 CURVE"
);
}
);
width = 696;
}
);
leftKerningGroup = E;
rightKerningGroup = E;
unicode = 0045;
},
{
glyphname = Schwa;
lastChange = "2016-08-19 17:05:53 +0000";
layers = (
{
layerId = UUID0;
paths = (
{
closed = 1;
nodes = (
"587 -13 OFFCURVE",
"723 187 OFFCURVE",
"723 378 CURVE SMOOTH",
"723 581 OFFCURVE",
"570 764 OFFCURVE",
"377 764 CURVE SMOOTH",
"235 764 OFFCURVE",
"101 664 OFFCURVE",
"57 513 CURVE",
"91 513 LINE",
"136 645 OFFCURVE",
"251 733 OFFCURVE",
"382 733 CURVE SMOOTH",
"516 733 OFFCURVE",
"563 642 OFFCURVE",
"563 374 CURVE SMOOTH",
"563 85 OFFCURVE",
"508 17 OFFCURVE",
"380 17 CURVE SMOOTH",
"269 17 OFFCURVE",
"215 69 OFFCURVE",
"215 183 CURVE SMOOTH",
"215 309 LINE",
"596 309 LINE",
"596 343 LINE",
"52 343 LINE",
"52 333 LINE SMOOTH",
"52 120 OFFCURVE",
"206 -13 OFFCURVE",
"377 -13 CURVE SMOOTH"
);
}
);
width = 753;
},
{
layerId = "3AE1663F-34E8-4710-91A2-69F84C961E5F";
paths = (
{
closed = 1;
nodes = (
"611 -13 OFFCURVE",
"755 187 OFFCURVE",
"755 378 CURVE SMOOTH",
"755 581 OFFCURVE",
"594 764 OFFCURVE",
"385 764 CURVE SMOOTH",
"243 764 OFFCURVE",
"109 664 OFFCURVE",
"65 513 CURVE",
"104 513 LINE",
"147 642 OFFCURVE",
"258 728 OFFCURVE",
"385 728 CURVE SMOOTH",
"518 728 OFFCURVE",
"566 638 OFFCURVE",
"566 374 CURVE SMOOTH",
"566 89 OFFCURVE",
"511 21 OFFCURVE",
"388 21 CURVE SMOOTH",
"277 21 OFFCURVE",
"223 73 OFFCURVE",
"223 183 CURVE SMOOTH",
"223 309 LINE",
"604 309 LINE",
"604 348 LINE",
"40 348 LINE",
"40 333 LINE SMOOTH",
"40 120 OFFCURVE",
"204 -13 OFFCURVE",
"385 -13 CURVE SMOOTH"
);
}
);
width = 795;
}
);
unicode = 018F;
},
{
glyphname = F;
lastChange = "2016-08-22 11:52:33 +0000";
layers = (
{
anchors = (
{
name = bottom;
position = "{329, 0}";
},
{
name = top;
position = "{329, 754}";
}
);
background = {
paths = (
{
closed = 1;
nodes = (
"129 15 LINE",
"263 15 LINE",
"263 754 LINE",
"129 754 LINE"
);
},
{
closed = 1;
nodes = (
"11 0 LINE",
"373 0 LINE",
"373 25 LINE",
"11 25 LINE"
);
},
{
closed = 1;
nodes = (
"453 526 LINE",
"418 526 LINE",
"418 418 OFFCURVE",
"384 388 OFFCURVE",
"260 388 CURVE",
"260 363 LINE",
"384 363 OFFCURVE",
"415 328 OFFCURVE",
"418 216 CURVE",
"453 216 LINE"
);
},
{
closed = 1;
nodes = (
"11 729 LINE",
"429 729 LINE SMOOTH",
"528 729 OFFCURVE",
"585 626 OFFCURVE",
"587 509 CURVE",
"622 509 LINE",
"622 754 LINE",
"11 754 LINE"
);
}
);
};
layerId = UUID0;
paths = (
{
closed = 1;
nodes = (
"622 509 LINE",
"622 754 LINE",
"11 754 LINE",
"11 729 LINE",
"429 729 LINE SMOOTH",
"528 729 OFFCURVE",
"585 626 OFFCURVE",
"587 509 CURVE"
);
},
{
closed = 1;
nodes = (
"373 0 LINE",
"373 25 LINE",
"11 25 LINE",
"11 0 LINE"
);
},
{
closed = 1;
nodes = (
"263 15 LINE",
"263 754 LINE",
"129 754 LINE",
"129 15 LINE"
);
},
{
closed = 1;
nodes = (
"453 216 LINE",
"453 526 LINE",
"418 526 LINE",
"418 418 OFFCURVE",
"384 388 OFFCURVE",
"260 388 CURVE",
"260 363 LINE",
"384 363 OFFCURVE",
"415 328 OFFCURVE",
"418 216 CURVE"
);
}
);
width = 658;
},
{
anchors = (
{
name = bottom;
position = "{351, 0}";
},
{
name = top;
position = "{351, 754}";
}
);
background = {
paths = (
{
closed = 1;
nodes = (
"115 14 LINE",
"273 14 LINE",
"273 754 LINE",
"115 754 LINE"
);
},
{
closed = 1;
nodes = (
"20 724 LINE",
"443 724 LINE SMOOTH",
"545 724 OFFCURVE",
"604 639 OFFCURVE",
"606 539 CURVE",
"646 539 LINE",
"646 754 LINE",
"20 754 LINE"
);
},
{
closed = 1;
nodes = (
"156 355 LINE",
"269 355 LINE SMOOTH",
"401 355 OFFCURVE",
"450 311 OFFCURVE",
"452 215 CURVE",
"492 215 LINE",
"492 515 LINE",
"452 515 LINE",
"450 426 OFFCURVE",
"401 385 OFFCURVE",
"269 385 CURVE SMOOTH",
"156 385 LINE"
);
},
{
closed = 1;
nodes = (
"20 0 LINE",
"401 0 LINE",
"401 30 LINE",
"20 30 LINE"
);
}
);
};
layerId = "3AE1663F-34E8-4710-91A2-69F84C961E5F";
paths = (
{
closed = 1;
nodes = (
"646 539 LINE",
"646 754 LINE",
"20 754 LINE",
"20 724 LINE",
"443 724 LINE SMOOTH",
"545 724 OFFCURVE",
"604 639 OFFCURVE",
"606 539 CURVE"
);
},
{
closed = 1;
nodes = (
"401 0 LINE",
"401 30 LINE",
"20 30 LINE",
"20 0 LINE"
);
},
{
closed = 1;
nodes = (
"273 14 LINE",
"273 754 LINE",
"115 754 LINE",
"115 14 LINE"
);
},
{
closed = 1;
nodes = (
"492 215 LINE",
"492 515 LINE",
"452 515 LINE",
"450 426 OFFCURVE",
"401 385 OFFCURVE",
"269 385 CURVE SMOOTH",
"269 355 LINE",
"401 355 OFFCURVE",
"450 311 OFFCURVE",
"452 215 CURVE"
);
}
);
width = 702;
}
);
unicode = 0046;
},
{
glyphname = G;
lastChange = "2016-08-22 11:52:33 +0000";
layers = (
{
anchors = (
{
name = bottom;
position = "{369, 0}";
},
{
name = top;
position = "{369, 754}";
}
);
background = {
paths = (
{
closed = 1;
nodes = (
"532 -12 OFFCURVE",
"665 89 OFFCURVE",
"665 259 CURVE SMOOTH",
"665 283 LINE",
"516 283 LINE",
"516 140 LINE SMOOTH",
"516 64 OFFCURVE",
"465 20 OFFCURVE",
"378 20 CURVE SMOOTH",
"270 20 OFFCURVE",
"205 87 OFFCURVE",
"205 365 CURVE SMOOTH",
"205 667 OFFCURVE",
"282 736 OFFCURVE",
"394 736 CURVE SMOOTH",
"525 736 OFFCURVE",
"580 640 OFFCURVE",
"602 528 CURVE",
"627 528 LINE",
"627 754 LINE",
"602 754 LINE",
"558 704 LINE",
"508 747 OFFCURVE",
"457 766 OFFCURVE",
"394 766 CURVE SMOOTH",
"195 766 OFFCURVE",
"45 579 OFFCURVE",
"45 370 CURVE SMOOTH",
"45 177 OFFCURVE",
"174 -12 OFFCURVE",
"381 -12 CURVE SMOOTH"
);
},
{
closed = 1;
nodes = (
"393 268 LINE",
"723 268 LINE",
"723 293 LINE",
"393 293 LINE"
);
}
);
};
layerId = UUID0;
paths = (
{
closed = 1;
nodes = (
"532 -12 OFFCURVE",
"665 89 OFFCURVE",
"665 259 CURVE SMOOTH",
"665 283 LINE",
"516 283 LINE",
"516 140 LINE SMOOTH",
"516 64 OFFCURVE",
"465 20 OFFCURVE",
"378 20 CURVE SMOOTH",
"270 20 OFFCURVE",
"205 87 OFFCURVE",
"205 365 CURVE SMOOTH",
"205 667 OFFCURVE",
"282 736 OFFCURVE",
"394 736 CURVE SMOOTH",
"525 736 OFFCURVE",
"580 640 OFFCURVE",
"602 528 CURVE",
"627 528 LINE",
"627 754 LINE",
"602 754 LINE",
"558 704 LINE",
"508 747 OFFCURVE",
"457 766 OFFCURVE",
"394 766 CURVE SMOOTH",
"195 766 OFFCURVE",
"45 579 OFFCURVE",
"45 370 CURVE SMOOTH",
"45 177 OFFCURVE",
"174 -12 OFFCURVE",
"381 -12 CURVE SMOOTH"
);
},
{
closed = 1;
nodes = (
"723 268 LINE",
"723 293 LINE",
"393 293 LINE",
"393 268 LINE"
);
}
);
width = 737;
},
{
anchors = (
{
name = bottom;
position = "{395, 0}";
},
{
name = top;
position = "{395, 754}";
}
);
background = {
paths = (
{
closed = 1;
nodes = (
"551 -13 OFFCURVE",
"657 42 OFFCURVE",
"701 130 CURVE",
"701 262 LINE",
"519 262 LINE",
"519 145 LINE SMOOTH",
"519 69 OFFCURVE",
"477 24 OFFCURVE",
"395 24 CURVE SMOOTH",
"296 24 OFFCURVE",
"240 91 OFFCURVE",
"240 358 CURVE SMOOTH",
"240 672 OFFCURVE",
"317 728 OFFCURVE",
"420 728 CURVE SMOOTH",
"557 728 OFFCURVE",
"612 628 OFFCURVE",
"632 523 CURVE",
"662 523 LINE",
"662 754 LINE",
"632 754 LINE",
"593 704 LINE",
"536 747 OFFCURVE",
"492 763 OFFCURVE",
"427 763 CURVE SMOOTH",
"206 763 OFFCURVE",
"50 578 OFFCURVE",
"50 369 CURVE SMOOTH",
"50 192 OFFCURVE",
"163 -13 OFFCURVE",
"419 -13 CURVE SMOOTH"
);
},
{
closed = 1;
nodes = (
"423 250 LINE",
"778 250 LINE",
"778 280 LINE",
"423 280 LINE"
);
}
);
};
layerId = "3AE1663F-34E8-4710-91A2-69F84C961E5F";
paths = (
{
closed = 1;
nodes = (
"532 -13 OFFCURVE",
"669 68 OFFCURVE",
"701 170 CURVE",
"701 282 LINE",
"519 282 LINE",
"519 145 LINE SMOOTH",
"519 69 OFFCURVE",
"477 24 OFFCURVE",
"395 24 CURVE SMOOTH",
"296 24 OFFCURVE",
"240 91 OFFCURVE",
"240 358 CURVE SMOOTH",
"240 672 OFFCURVE",
"317 728 OFFCURVE",
"420 728 CURVE SMOOTH",
"557 728 OFFCURVE",
"616 622 OFFCURVE",
"632 518 CURVE",
"662 518 LINE",
"662 754 LINE",
"632 754 LINE",
"593 704 LINE",
"536 747 OFFCURVE",
"492 763 OFFCURVE",
"427 763 CURVE SMOOTH",
"215 763 OFFCURVE",
"50 589 OFFCURVE",
"50 367 CURVE SMOOTH",
"50 155 OFFCURVE",
"202 -13 OFFCURVE",
"397 -13 CURVE SMOOTH"
);
},
{
closed = 1;
nodes = (
"778 270 LINE",
"778 300 LINE",
"423 300 LINE",
"423 270 LINE"
);
}
);
width = 790;
}
);
leftKerningGroup = G;
rightKerningGroup = G;
unicode = 0047;
},
{
glyphname = H;
lastChange = "2016-08-22 11:52:33 +0000";
layers = (
{
anchors = (
{
name = bottom;
position = "{401, 0}";
},
{
name = center;
position = "{401, 377}";
},
{
name = top;
position = "{401, 754}";
},
{
name = topleft;
position = "{20, 754}";
}
);
background = {
paths = (
{
closed = 1;
nodes = (
"123 15 LINE",
"257 15 LINE",
"257 754 LINE",
"123 754 LINE"
);
},
{
closed = 1;
nodes = (
"13 0 LINE",
"367 0 LINE",
"367 25 LINE",
"13 25 LINE"
);
},
{
closed = 1;
nodes = (
"13 729 LINE",
"367 729 LINE",
"367 754 LINE",
"13 754 LINE"
);
},
{
closed = 1;
nodes = (
"545 15 LINE",
"679 15 LINE",
"679 754 LINE",
"545 754 LINE"
);
},
{
closed = 1;
nodes = (
"435 0 LINE",
"789 0 LINE",
"789 25 LINE",
"435 25 LINE"
);
},
{
closed = 1;
nodes = (
"435 729 LINE",
"789 729 LINE",
"789 754 LINE",
"435 754 LINE"
);
},
{
closed = 1;
nodes = (
"225 375 LINE",
"580 375 LINE",
"580 400 LINE",
"225 400 LINE"
);
}
);
};
layerId = UUID0;
paths = (
{
closed = 1;
nodes = (
"367 0 LINE",
"367 25 LINE",
"257 25 LINE",
"257 375 LINE",
"545 375 LINE",
"545 25 LINE",
"435 25 LINE",
"435 0 LINE",
"789 0 LINE",
"789 25 LINE",
"679 25 LINE",
"679 729 LINE",
"789 729 LINE",
"789 754 LINE",
"435 754 LINE",
"435 729 LINE",
"545 729 LINE",
"545 400 LINE",
"257 400 LINE",
"257 729 LINE",
"367 729 LINE",
"367 754 LINE",
"13 754 LINE",
"13 729 LINE",
"123 729 LINE",
"123 25 LINE",
"13 25 LINE",
"13 0 LINE"
);
}
);
width = 801;
},
{
anchors = (
{
name = bottom;
position = "{413, 0}";
},
{
name = center;
position = "{413, 377}";
},
{
name = top;
position = "{413, 754}";
},
{
name = topleft;
position = "{20, 754}";
}
);
background = {
paths = (
{
closed = 1;
nodes = (
"115 15 LINE",
"273 15 LINE",
"273 754 LINE",
"115 754 LINE"
);
},
{
closed = 1;
nodes = (
"20 0 LINE",
"371 0 LINE",
"371 30 LINE",
"20 30 LINE"
);
},
{
closed = 1;
nodes = (
"20 724 LINE",
"371 724 LINE",
"371 754 LINE",
"20 754 LINE"
);
},
{
closed = 1;
nodes = (
"556 15 LINE",
"714 15 LINE",
"714 754 LINE",
"556 754 LINE"
);
},
{
closed = 1;
nodes = (
"458 0 LINE",
"811 0 LINE",
"811 30 LINE",
"458 30 LINE"
);
},
{
closed = 1;
nodes = (
"458 724 LINE",
"811 724 LINE",
"811 754 LINE",
"458 754 LINE"
);
},
{
closed = 1;
nodes = (
"219 374 LINE",
"613 374 LINE",
"613 404 LINE",
"219 404 LINE"
);
}
);
};
layerId = "3AE1663F-34E8-4710-91A2-69F84C961E5F";
paths = (
{
closed = 1;
nodes = (
"371 0 LINE",
"371 30 LINE",
"273 30 LINE",
"273 374 LINE",
"556 374 LINE",
"556 30 LINE",
"458 30 LINE",
"458 0 LINE",
"811 0 LINE",
"811 30 LINE",
"714 30 LINE",
"714 724 LINE",
"811 724 LINE",
"811 754 LINE",
"458 754 LINE",
"458 724 LINE",
"556 724 LINE",
"556 404 LINE",
"273 404 LINE",
"273 724 LINE",
"371 724 LINE",
"371 754 LINE",
"20 754 LINE",
"20 724 LINE",
"115 724 LINE",
"115 30 LINE",
"20 30 LINE",
"20 0 LINE"
);
}
);
width = 826;
}
);
leftKerningGroup = H;
rightKerningGroup = H;
unicode = 0048;
},
{
glyphname = Hbar;
lastChange = "2016-08-19 17:05:53 +0000";
layers = (
{
components = (
{
name = H;
}
);
layerId = UUID0;
paths = (
{
closed = 1;
nodes = (
"789 548 LINE",
"789 578 LINE",
"20 578 LINE",
"20 548 LINE"
);
}
);
width = 801;
},
{
components = (
{
name = H;
}
);
layerId = "3AE1663F-34E8-4710-91A2-69F84C961E5F";
paths = (
{
closed = 1;
nodes = (
"789 541 LINE",
"789 578 LINE",
"20 578 LINE",
"20 541 LINE"
);
}
);
width = 826;
}
);
unicode = 0126;
},
{
glyphname = I;
lastChange = "2016-08-22 09:51:40 +0000";
layers = (
{
anchors = (
{
name = bottom;
position = "{190, 0}";
},
{
name = ogonek;
position = "{341, 10}";
},
{
name = top;
position = "{190, 754}";
},
{
name = topleft;
position = "{20, 754}";
}
);
background = {
paths = (
{
closed = 1;
nodes = (
"127 15 LINE",
"261 15 LINE",
"261 754 LINE",
"127 754 LINE"
);
},
{
closed = 1;
nodes = (
"17 0 LINE",
"371 0 LINE",
"371 25 LINE",
"17 25 LINE"
);
},
{
closed = 1;
nodes = (
"17 729 LINE",
"371 729 LINE",
"371 754 LINE",
"17 754 LINE"
);
}
);
};
layerId = UUID0;
paths = (
{
closed = 1;
nodes = (
"257 15 LINE",
"257 754 LINE",
"123 754 LINE",
"123 15 LINE"
);
},
{
closed = 1;
nodes = (
"367 0 LINE",
"367 25 LINE",
"13 25 LINE",
"13 0 LINE"
);
},
{
closed = 1;
nodes = (
"367 729 LINE",
"367 754 LINE",
"13 754 LINE",
"13 729 LINE"
);
}
);
width = 379;
},
{
anchors = (
{
name = bottom;
position = "{193, 0}";
},
{
name = ogonek;
position = "{347, 10}";
},
{
name = top;
position = "{193, 754}";
},
{
name = topleft;
position = "{20, 754}";
}
);
background = {
paths = (
{
closed = 1;
nodes = (
"13 729 OFFCURVE",
"9 713 OFFCURVE",
"18 702 CURVE",
"25 697 LINE",
"58 697 LINE",
"95 699 OFFCURVE",
"102 699 OFFCURVE",
"106 692 CURVE",
"109 689 OFFCURVE",
"109 611 OFFCURVE",
"108 537 CURVE",
"105 456 OFFCURVE",
"105 436 OFFCURVE",
"106 419 CURVE",
"108 412 OFFCURVE",
"108 404 OFFCURVE",
"108 404 CURVE",
"108 403 OFFCURVE",
"108 392 OFFCURVE",
"106 379 CURVE",
"106 366 OFFCURVE",
"106 355 OFFCURVE",
"106 352 CURVE SMOOTH",
"106 345 OFFCURVE",
"106 289 OFFCURVE",
"106 244 CURVE SMOOTH",
"106 224 OFFCURVE",
"106 171 OFFCURVE",
"106 126 CURVE",
"108 49 OFFCURVE",
"106 46 OFFCURVE",
"103 40 CURVE SMOOTH",
"100 35 LINE",
"66 35 LINE",
"23 38 OFFCURVE",
"18 38 OFFCURVE",
"13 33 CURVE SMOOTH",
"2 24 OFFCURVE",
"5 8 OFFCURVE",
"18 3 CURVE",
"23 0 OFFCURVE",
"29 0 OFFCURVE",
"45 1 CURVE SMOOTH",
"77 3 OFFCURVE",
"265 3 OFFCURVE",
"290 1 CURVE SMOOTH",
"338 -2 OFFCURVE",
"364 -2 OFFCURVE",
"367 0 CURVE SMOOTH",
"377 4 OFFCURVE",
"380 19 OFFCURVE",
"377 28 CURVE",
"372 35 OFFCURVE",
"367 36 OFFCURVE",
"324 36 CURVE SMOOTH",
"295 36 OFFCURVE",
"284 38 OFFCURVE",
"282 40 CURVE SMOOTH",
"279 43 OFFCURVE",
"277 78 OFFCURVE",
"279 121 CURVE",
"281 142 OFFCURVE",
"282 262 OFFCURVE",
"282 387 CURVE SMOOTH",
"282 513 OFFCURVE",
"282 632 OFFCURVE",
"282 651 CURVE",
"284 683 OFFCURVE",
"284 688 OFFCURVE",
"287 691 CURVE SMOOTH",
"291 696 OFFCURVE",
"291 696 OFFCURVE",
"330 694 CURVE SMOOTH",
"367 692 OFFCURVE",
"369 692 OFFCURVE",
"373 697 CURVE",
"385 705 OFFCURVE",
"383 723 OFFCURVE",
"370 729 CURVE SMOOTH",
"365 731 OFFCURVE",
"362 732 OFFCURVE",
"343 731 CURVE SMOOTH",
"314 729 OFFCURVE",
"140 728 OFFCURVE",
"117 729 CURVE",
"92 732 OFFCURVE",
"36 732 OFFCURVE",
"28 731 CURVE SMOOTH"
);
}
);
};
layerId = "3AE1663F-34E8-4710-91A2-69F84C961E5F";
paths = (
{
closed = 1;
nodes = (
"273 15 LINE",
"273 754 LINE",
"115 754 LINE",
"115 15 LINE"
);
},
{
closed = 1;
nodes = (
"371 0 LINE",
"371 30 LINE",
"20 30 LINE",
"20 0 LINE"
);
},
{
closed = 1;
nodes = (
"371 724 LINE",
"371 754 LINE",
"20 754 LINE",
"20 724 LINE"
);
}
);
width = 386;
}
);
leftKerningGroup = I;
rightKerningGroup = I;
unicode = 0049;
},
{
glyphname = J;
lastChange = "2016-08-22 11:52:33 +0000";
layers = (
{
anchors = (
{
name = bottom;
position = "{230, 0}";
},
{
name = top;
position = "{230, 754}";
}
);
background = {
paths = (
{
closed = 1;
nodes = (
"46 729 LINE",
"400 729 LINE",
"400 754 LINE",
"46 754 LINE"
);
},
{
closed = 1;
nodes = (
"176 125 LINE SMOOTH",
"176 -33 OFFCURVE",
"144 -75 OFFCURVE",
"108 -75 CURVE SMOOTH",
"95 -75 OFFCURVE",
"84 -69 OFFCURVE",
"84 -55 CURVE SMOOTH",
"84 -37 OFFCURVE",
"102 -21 OFFCURVE",
"102 7 CURVE SMOOTH",
"102 42 OFFCURVE",
"75 70 OFFCURVE",
"39 70 CURVE SMOOTH",
"4 70 OFFCURVE",
"-29 44 OFFCURVE",
"-29 -5 CURVE SMOOTH",
"-29 -63 OFFCURVE",
"17 -108 OFFCURVE",
"91 -108 CURVE SMOOTH",
"204 -108 OFFCURVE",
"310 -1 OFFCURVE",
"310 125 CURVE SMOOTH",
"310 754 LINE",
"176 754 LINE"
);
}
);
};
layerId = UUID0;
paths = (
{
closed = 1;
nodes = (
"204 -108 OFFCURVE",
"310 -1 OFFCURVE",
"310 125 CURVE SMOOTH",
"310 754 LINE",
"176 754 LINE",
"176 125 LINE SMOOTH",
"176 -33 OFFCURVE",
"144 -75 OFFCURVE",
"108 -75 CURVE SMOOTH",
"95 -75 OFFCURVE",
"84 -69 OFFCURVE",
"84 -55 CURVE SMOOTH",
"84 -37 OFFCURVE",
"102 -21 OFFCURVE",
"102 7 CURVE SMOOTH",
"102 42 OFFCURVE",
"75 70 OFFCURVE",
"39 70 CURVE SMOOTH",
"4 70 OFFCURVE",
"-29 44 OFFCURVE",
"-29 -5 CURVE SMOOTH",
"-29 -63 OFFCURVE",
"17 -108 OFFCURVE",
"91 -108 CURVE SMOOTH"
);
},
{
closed = 1;
nodes = (
"400 729 LINE",
"400 754 LINE",
"46 754 LINE",
"46 729 LINE"
);
}
);
width = 460;
},
{
anchors = (
{
name = bottom;
position = "{193, 0}";
},
{
name = top;
position = "{193, 754}";
}
);
background = {
paths = (
{
closed = 1;
nodes = (
"273 754 LINE",
"115 754 LINE",
"115 27 LINE SMOOTH",
"115 -45 OFFCURVE",
"75 -64 OFFCURVE",
"51 -64 CURVE SMOOTH",
"38 -64 OFFCURVE",
"23 -59 OFFCURVE",
"23 -45 CURVE SMOOTH",
"23 -31 OFFCURVE",
"41 -11 OFFCURVE",
"41 20 CURVE SMOOTH",
"41 65 OFFCURVE",
"2 91 OFFCURVE",
"-35 91 CURVE SMOOTH",
"-81 91 OFFCURVE",
"-115 51 OFFCURVE",
"-115 1 CURVE SMOOTH",
"-115 -60 OFFCURVE",
"-63 -102 OFFCURVE",
"35 -102 CURVE SMOOTH",
"168 -102 OFFCURVE",
"273 -24 OFFCURVE",
"273 137 CURVE SMOOTH"
);
},
{
closed = 1;
nodes = (
"20 724 LINE",
"371 724 LINE",
"371 754 LINE",
"20 754 LINE"
);
}
);
};
layerId = "3AE1663F-34E8-4710-91A2-69F84C961E5F";
paths = (
{
closed = 1;
nodes = (
"168 -102 OFFCURVE",
"273 -24 OFFCURVE",
"273 137 CURVE SMOOTH",
"273 754 LINE",
"115 754 LINE",
"115 27 LINE SMOOTH",
"115 -45 OFFCURVE",
"75 -64 OFFCURVE",
"51 -64 CURVE SMOOTH",
"38 -64 OFFCURVE",
"23 -59 OFFCURVE",
"23 -45 CURVE SMOOTH",
"23 -31 OFFCURVE",
"41 -11 OFFCURVE",
"41 20 CURVE SMOOTH",
"41 65 OFFCURVE",
"2 91 OFFCURVE",
"-35 91 CURVE SMOOTH",
"-81 91 OFFCURVE",
"-115 51 OFFCURVE",
"-115 1 CURVE SMOOTH",
"-115 -60 OFFCURVE",
"-63 -102 OFFCURVE",
"35 -102 CURVE SMOOTH"
);
},
{
closed = 1;
nodes = (
"371 724 LINE",
"371 754 LINE",
"20 754 LINE",
"20 724 LINE"
);
}
);
width = 386;
}
);
leftKerningGroup = J;
rightKerningGroup = J;
unicode = 004A;
},
{
glyphname = K;
lastChange = "2016-08-22 11:52:33 +0000";
layers = (
{
anchors = (
{
name = bottom;
position = "{365, 0}";
},
{
name = top;
position = "{365, 754}";
}
);
background = {
paths = (
{
closed = 1;
nodes = (
"13 729 LINE",
"123 729 LINE",
"123 25 LINE",
"13 25 LINE",
"13 0 LINE",
"357 0 LINE",
"357 25 LINE",
"257 25 LINE",
"257 729 LINE",
"357 729 LINE",
"357 754 LINE",
"13 754 LINE"
);
},
{
closed = 1;
nodes = (
"436 0 LINE",
"784 0 LINE",
"784 25 LINE",
"436 25 LINE"
);
},
{
closed = 1;
nodes = (
"555 15 LINE",
"723 15 LINE",
"362 469 LINE",
"267 384 LINE"
);
},
{
closed = 1;
nodes = (
"438 729 LINE",
"721 729 LINE",
"721 754 LINE",
"438 754 LINE"
);
},
{
closed = 1;
nodes = (
"235 361 LINE",
"235 310 LINE",
"612 736 LINE",
"569 736 LINE"
);
}
);
};
layerId = UUID0;
paths = (
{
closed = 1;
nodes = (
"357 0 LINE",
"357 25 LINE",
"257 25 LINE",
"257 729 LINE",
"357 729 LINE",
"357 754 LINE",
"13 754 LINE",
"13 729 LINE",
"123 729 LINE",
"123 25 LINE",
"13 25 LINE",
"13 0 LINE"
);
},
{
closed = 1;
nodes = (
"784 0 LINE",
"784 25 LINE",
"436 25 LINE",
"436 0 LINE"
);
},
{
closed = 1;
nodes = (
"723 15 LINE",
"362 469 LINE",
"267 384 LINE",
"555 15 LINE"
);
},
{
closed = 1;
nodes = (
"612 736 LINE",
"569 736 LINE",
"235 361 LINE",
"235 310 LINE"
);
},
{
closed = 1;
nodes = (
"721 729 LINE",
"721 754 LINE",
"438 754 LINE",
"438 729 LINE"
);
}
);
width = 729;
},
{
anchors = (
{
name = bottom;
position = "{406, 0}";
},
{
name = top;
position = "{406, 754}";
}
);
background = {
paths = (
{
closed = 1;
nodes = (
"20 724 LINE",
"115 724 LINE",
"115 30 LINE",
"20 30 LINE",
"20 0 LINE",
"371 0 LINE",
"371 30 LINE",
"273 30 LINE",
"273 724 LINE",
"371 724 LINE",
"371 754 LINE",
"20 754 LINE"
);
},
{
closed = 1;
nodes = (
"440 0 LINE",
"826 0 LINE",
"826 31 LINE",
"440 31 LINE"
);
},
{
closed = 1;
nodes = (
"559 15 LINE",
"757 15 LINE",
"423 500 LINE",
"298 385 LINE"
);
},
{
closed = 1;
nodes = (
"482 724 LINE",
"765 724 LINE",
"765 754 LINE",
"482 754 LINE"
);
},
{
closed = 1;
nodes = (
"249 364 LINE",
"249 314 LINE",
"659 736 LINE",
"613 736 LINE"
);
}
);
};
layerId = "3AE1663F-34E8-4710-91A2-69F84C961E5F";
paths = (
{
closed = 1;
nodes = (
"371 0 LINE",
"371 30 LINE",
"273 30 LINE",
"273 724 LINE",
"371 724 LINE",
"371 754 LINE",
"20 754 LINE",
"20 724 LINE",
"115 724 LINE",
"115 30 LINE",
"20 30 LINE",
"20 0 LINE"
);
},
{
closed = 1;
nodes = (
"826 0 LINE",
"826 31 LINE",
"440 31 LINE",
"440 0 LINE"
);
},
{
closed = 1;
nodes = (
"757 15 LINE",
"423 500 LINE",
"298 385 LINE",
"559 15 LINE"
);
},
{
closed = 1;
nodes = (
"659 736 LINE",
"613 736 LINE",
"249 364 LINE",
"249 314 LINE"
);
},
{
closed = 1;
nodes = (
"765 724 LINE",
"765 754 LINE",
"482 754 LINE",
"482 724 LINE"
);
}
);
width = 811;
}
);
leftKerningGroup = K;
rightKerningGroup = K;
unicode = 004B;
},
{
glyphname = L;
lastChange = "2016-08-22 12:04:07 +0000";
layers = (
{
anchors = (
{
name = bottom;
position = "{331, 0}";
},
{
name = center;
position = "{331, 377}";
},
{
name = top;
position = "{192, 754}";
},
{
name = topright;
position = "{642, 754}";
}
);
background = {
paths = (
{
closed = 1;
nodes = (
"128 15 LINE",
"262 15 LINE",
"262 754 LINE",
"128 754 LINE"
);
},
{
closed = 1;
nodes = (
"10 729 LINE",
"383 729 LINE",
"383 754 LINE",
"10 754 LINE"
);
},
{
closed = 1;
nodes = (
"10 0 LINE",
"626 0 LINE",
"626 235 LINE",
"591 235 LINE",
"589 123 OFFCURVE",
"532 25 OFFCURVE",
"433 25 CURVE SMOOTH",
"10 25 LINE"
);
}
);
};
layerId = UUID0;
paths = (
{
closed = 1;
nodes = (
"629 0 LINE",
"629 235 LINE",
"594 235 LINE",
"592 123 OFFCURVE",
"535 25 OFFCURVE",
"436 25 CURVE SMOOTH",
"13 25 LINE",
"13 0 LINE"
);
},
{
closed = 1;
nodes = (
"265 15 LINE",
"265 754 LINE",
"131 754 LINE",
"131 15 LINE"
);
},
{
closed = 1;
nodes = (
"386 729 LINE",
"386 754 LINE",
"13 754 LINE",
"13 729 LINE"
);
}
);
width = 662;
},
{
anchors = (
{
name = bottom;
position = "{341, 0}";
},
{
name = center;
position = "{341, 377}";
},
{
name = top;
position = "{186, 754}";
},
{
name = topright;
position = "{661, 754}";
}
);
background = {
paths = (
{
closed = 1;
nodes = (
"22 749 OFFCURVE",
"19 744 OFFCURVE",
"21 732 CURVE",
"21 724 OFFCURVE",
"21 723 OFFCURVE",
"26 719 CURVE SMOOTH",
"30 716 OFFCURVE",
"35 716 OFFCURVE",
"72 714 CURVE SMOOTH",
"96 714 OFFCURVE",
"113 714 OFFCURVE",
"116 714 CURVE SMOOTH",
"121 714 OFFCURVE",
"122 704 OFFCURVE",
"121 644 CURVE",
"119 613 OFFCURVE",
"119 586 OFFCURVE",
"119 585 CURVE SMOOTH",
"121 583 OFFCURVE",
"119 422 OFFCURVE",
"118 397 CURVE SMOOTH",
"118 395 OFFCURVE",
"119 374 OFFCURVE",
"119 350 CURVE SMOOTH",
"119 327 OFFCURVE",
"121 292 OFFCURVE",
"121 274 CURVE",
"119 256 OFFCURVE",
"119 196 OFFCURVE",
"119 139 CURVE SMOOTH",
"119 50 OFFCURVE",
"119 38 OFFCURVE",
"116 34 CURVE SMOOTH",
"112 29 LINE",
"71 29 LINE",
"27 29 LINE",
"22 25 LINE",
"22 17 OFFCURVE",
"22 3 OFFCURVE",
"22 -2 CURVE",
"28 -8 OFFCURVE",
"34 -10 OFFCURVE",
"57 -8 CURVE",
"99 -7 OFFCURVE",
"260 -5 OFFCURVE",
"411 -7 CURVE",
"628 -8 OFFCURVE",
"649 -8 OFFCURVE",
"655 -5 CURVE SMOOTH",
"658 -4 OFFCURVE",
"661 0 OFFCURVE",
"664 3 CURVE SMOOTH",
"666 7 OFFCURVE",
"666 23 OFFCURVE",
"666 43 CURVE SMOOTH",
"666 84 OFFCURVE",
"669 154 OFFCURVE",
"672 189 CURVE",
"677 228 OFFCURVE",
"677 234 OFFCURVE",
"670 239 CURVE",
"666 244 OFFCURVE",
"664 244 OFFCURVE",
"653 244 CURVE SMOOTH",
"639 244 OFFCURVE",
"632 241 OFFCURVE",
"628 229 CURVE",
"622 200 OFFCURVE",
"616 183 OFFCURVE",
"605 159 CURVE",
"597 145 OFFCURVE",
"592 133 OFFCURVE",
"592 131 CURVE SMOOTH",
"592 126 OFFCURVE",
"562 88 OFFCURVE",
"544 70 CURVE SMOOTH",
"534 60 OFFCURVE",
"512 46 OFFCURVE",
"503 43 CURVE",
"495 42 OFFCURVE",
"489 38 OFFCURVE",
"484 37 CURVE",
"473 32 OFFCURVE",
"464 29 OFFCURVE",
"392 29 CURVE SMOOTH",
"358 29 OFFCURVE",
"325 28 OFFCURVE",
"320 28 CURVE",
"310 26 OFFCURVE",
"310 26 OFFCURVE",
"304 32 CURVE SMOOTH",
"301 35 OFFCURVE",
"300 37 OFFCURVE",
"300 63 CURVE SMOOTH",
"300 79 OFFCURVE",
"300 109 OFFCURVE",
"300 131 CURVE SMOOTH",
"300 153 OFFCURVE",
"301 286 OFFCURVE",
"301 428 CURVE SMOOTH",
"301 571 OFFCURVE",
"301 694 OFFCURVE",
"301 701 CURVE",
"303 712 OFFCURVE",
"303 712 OFFCURVE",
"309 716 CURVE",
"309 718 OFFCURVE",
"317 718 OFFCURVE",
"335 716 CURVE",
"344 716 OFFCURVE",
"365 714 OFFCURVE",
"376 714 CURVE SMOOTH",
"399 714 OFFCURVE",
"399 714 OFFCURVE",
"404 718 CURVE",
"404 724 OFFCURVE",
"404 742 OFFCURVE",
"404 749 CURVE",
"401 751 OFFCURVE",
"386 752 OFFCURVE",
"317 751 CURVE SMOOTH",
"196 749 OFFCURVE",
"122 749 OFFCURVE",
"55 752 CURVE",
"47 754 OFFCURVE",
"38 752 OFFCURVE",
"32 752 CURVE"
);
}
);
};
layerId = "3AE1663F-34E8-4710-91A2-69F84C961E5F";
paths = (
{
closed = 1;
nodes = (
"661 0 LINE",
"661 245 LINE",
"621 245 LINE",
"619 131 OFFCURVE",
"554 30 OFFCURVE",
"443 30 CURVE SMOOTH",
"20 30 LINE",
"20 0 LINE"
);
},
{
closed = 1;
nodes = (
"273 15 LINE",
"273 754 LINE",
"115 754 LINE",
"115 15 LINE"
);
},
{
closed = 1;
nodes = (
"391 724 LINE",
"391 754 LINE",
"20 754 LINE",
"20 724 LINE"
);
}
);
width = 681;
}
);
leftKerningGroup = L;
rightKerningGroup = L;
unicode = 004C;
},
{
glyphname = Lslash;
lastChange = "2016-08-19 17:05:53 +0000";
layers = (
{
components = (
{
name = L;
}
);
layerId = UUID0;
paths = (
{
closed = 1;
nodes = (
"415 463 LINE",
"415 503 LINE",
"28 277 LINE",
"28 237 LINE"
);
}
);
width = 662;
},
{
components = (
{
name = L;
}
);
layerId = "3AE1663F-34E8-4710-91A2-69F84C961E5F";
paths = (
{
closed = 1;
nodes = (
"415 463 LINE",
"415 503 LINE",
"28 277 LINE",
"28 237 LINE"
);
}
);
width = 681;
}
);
unicode = 0141;
},
{
glyphname = M;
lastChange = "2016-08-22 11:52:33 +0000";
layers = (
{
anchors = (
{
name = bottom;
position = "{442, 0}";
},
{
name = top;
position = "{442, 754}";
}
);
background = {
paths = (
{
closed = 1;
nodes = (
"635 15 LINE",
"769 15 LINE",
"769 754 LINE",
"635 754 LINE"
);
},
{
closed = 1;
nodes = (
"525 0 LINE",
"879 0 LINE",
"879 25 LINE",
"525 25 LINE"
);
},
{
closed = 1;
nodes = (
"649 729 LINE",
"879 729 LINE",
"879 754 LINE",
"649 754 LINE"
);
},
{
closed = 1;
nodes = (
"129 15 LINE",
"168 15 LINE",
"168 754 LINE",
"129 754 LINE"
);
},
{
closed = 1;
nodes = (
"19 0 LINE",
"278 0 LINE",
"278 25 LINE",
"19 25 LINE"
);
},
{
closed = 1;
nodes = (
"19 729 LINE",
"278 729 LINE",
"278 754 LINE",
"19 754 LINE"
);
},
{
closed = 1;
nodes = (
"290 754 LINE",
"156 754 LINE",
"168 665 LINE",
"172 665 LINE",
"386 -9 LINE",
"416 -9 LINE",
"464 160 LINE",
"453 226 LINE",
"449 226 LINE"
);
},
{
closed = 1;
nodes = (
"432 160 LINE",
"386 -9 LINE",
"422 -9 LINE",
"631 665 LINE",
"635 665 LINE",
"655 744 LINE",
"640 754 LINE",
"616 754 LINE"
);
}
);
};
layerId = UUID0;
paths = (
{
closed = 1;
nodes = (
"415 -9 LINE",
"624 665 LINE",
"628 665 LINE",
"628 25 LINE",
"518 25 LINE",
"518 0 LINE",
"872 0 LINE",
"872 25 LINE",
"762 25 LINE",
"762 729 LINE",
"872 729 LINE",
"872 754 LINE",
"609 754 LINE",
"446 226 LINE",
"442 226 LINE",
"283 754 LINE",
"12 754 LINE",
"12 729 LINE",
"122 729 LINE",
"122 25 LINE",
"12 25 LINE",
"12 0 LINE",
"271 0 LINE",
"271 25 LINE",
"161 25 LINE",
"161 665 LINE",
"165 665 LINE",
"379 -9 LINE"
);
}
);
width = 884;
},
{
anchors = (
{
name = bottom;
position = "{464, 0}";
},
{
name = top;
position = "{464, 754}";
}
);
background = {
paths = (
{
closed = 1;
nodes = (
"35 749 LINE SMOOTH",
"28 743 OFFCURVE",
"27 731 OFFCURVE",
"31 724 CURVE SMOOTH",
"34 719 OFFCURVE",
"53 716 OFFCURVE",
"64 718 CURVE",
"69 718 OFFCURVE",
"86 718 OFFCURVE",
"102 718 CURVE SMOOTH",
"126 719 OFFCURVE",
"126 718 OFFCURVE",
"131 716 CURVE",
"135 713 OFFCURVE",
"135 704 OFFCURVE",
"135 633 CURVE",
"133 590 OFFCURVE",
"133 525 OFFCURVE",
"133 490 CURVE",
"131 432 OFFCURVE",
"131 161 OFFCURVE",
"131 98 CURVE",
"133 38 OFFCURVE",
"123 29 OFFCURVE",
"65 29 CURVE SMOOTH",
"35 29 OFFCURVE",
"27 28 OFFCURVE",
"23 18 CURVE",
"22 12 OFFCURVE",
"23 3 OFFCURVE",
"28 -2 CURVE SMOOTH",
"30 -5 OFFCURVE",
"40 -5 OFFCURVE",
"150 -5 CURVE SMOOTH",
"213 -5 OFFCURVE",
"266 -4 OFFCURVE",
"268 -4 CURVE",
"276 0 OFFCURVE",
"277 17 OFFCURVE",
"271 25 CURVE",
"266 28 OFFCURVE",
"239 34 OFFCURVE",
"230 29 CURVE",
"214 26 OFFCURVE",
"181 37 OFFCURVE",
"175 48 CURVE",
"168 56 OFFCURVE",
"166 78 OFFCURVE",
"166 106 CURVE",
"168 133 OFFCURVE",
"168 289 OFFCURVE",
"168 557 CURVE SMOOTH",
"168 623 OFFCURVE",
"168 679 OFFCURVE",
"168 681 CURVE",
"169 682 OFFCURVE",
"171 684 OFFCURVE",
"175 682 CURVE",
"177 682 OFFCURVE",
"180 677 OFFCURVE",
"185 661 CURVE SMOOTH",
"189 649 OFFCURVE",
"193 636 OFFCURVE",
"194 633 CURVE",
"194 624 OFFCURVE",
"208 591 OFFCURVE",
"214 568 CURVE",
"218 557 OFFCURVE",
"222 536 OFFCURVE",
"227 525 CURVE",
"230 513 OFFCURVE",
"233 500 OFFCURVE",
"235 497 CURVE",
"236 493 OFFCURVE",
"239 482 OFFCURVE",
"243 470 CURVE SMOOTH",
"246 460 OFFCURVE",
"251 442 OFFCURVE",
"255 428 CURVE",
"260 417 OFFCURVE",
"263 402 OFFCURVE",
"264 399 CURVE SMOOTH",
"268 382 OFFCURVE",
"290 319 OFFCURVE",
"294 302 CURVE",
"296 297 OFFCURVE",
"299 286 OFFCURVE",
"302 278 CURVE SMOOTH",
"320 220 OFFCURVE",
"331 179 OFFCURVE",
"334 171 CURVE SMOOTH",
"339 161 OFFCURVE",
"346 136 OFFCURVE",
"347 129 CURVE SMOOTH",
"347 125 OFFCURVE",
"351 117 OFFCURVE",
"352 108 CURVE",
"355 100 OFFCURVE",
"359 84 OFFCURVE",
"363 73 CURVE SMOOTH",
"366 62 OFFCURVE",
"369 48 OFFCURVE",
"371 43 CURVE SMOOTH",
"372 38 OFFCURVE",
"376 26 OFFCURVE",
"377 20 CURVE",
"380 12 OFFCURVE",
"384 3 OFFCURVE",
"385 1 CURVE",
"385 -4 OFFCURVE",
"409 -5 OFFCURVE",
"409 -4 CURVE",
"417 -2 OFFCURVE",
"421 1 OFFCURVE",
"440 76 CURVE",
"446 104 OFFCURVE",
"446 109 OFFCURVE",
"468 171 CURVE SMOOTH",
"475 189 OFFCURVE",
"482 219 OFFCURVE",
"488 234 CURVE",
"493 251 OFFCURVE",
"499 267 OFFCURVE",
"501 272 CURVE SMOOTH",
"502 275 OFFCURVE",
"505 287 OFFCURVE",
"507 295 CURVE SMOOTH",
"510 303 OFFCURVE",
"515 320 OFFCURVE",
"518 333 CURVE",
"528 355 OFFCURVE",
"528 362 OFFCURVE",
"537 389 CURVE",
"538 399 OFFCURVE",
"545 417 OFFCURVE",
"548 428 CURVE",
"554 440 OFFCURVE",
"557 455 OFFCURVE",
"559 458 CURVE",
"559 463 OFFCURVE",
"562 472 OFFCURVE",
"563 477 CURVE SMOOTH",
"567 488 OFFCURVE",
"576 519 OFFCURVE",
"582 535 CURVE",
"586 558 OFFCURVE",
"595 583 OFFCURVE",
"600 590 CURVE",
"601 594 OFFCURVE",
"603 599 OFFCURVE",
"603 602 CURVE SMOOTH",
"603 607 OFFCURVE",
"604 615 OFFCURVE",
"609 621 CURVE",
"610 627 OFFCURVE",
"613 635 OFFCURVE",
"613 636 CURVE SMOOTH",
"613 638 OFFCURVE",
"615 644 OFFCURVE",
"618 651 CURVE SMOOTH",
"620 657 OFFCURVE",
"623 668 OFFCURVE",
"625 673 CURVE",
"626 681 OFFCURVE",
"631 682 OFFCURVE",
"635 676 CURVE SMOOTH",
"638 673 OFFCURVE",
"638 636 OFFCURVE",
"638 585 CURVE SMOOTH",
"638 543 OFFCURVE",
"638 447 OFFCURVE",
"638 395 CURVE SMOOTH",
"638 374 OFFCURVE",
"638 347 OFFCURVE",
"638 336 CURVE SMOOTH",
"638 325 OFFCURVE",
"637 283 OFFCURVE",
"637 241 CURVE SMOOTH",
"637 118 OFFCURVE",
"637 46 OFFCURVE",
"635 40 CURVE SMOOTH",
"631 31 OFFCURVE",
"629 31 OFFCURVE",
"604 29 CURVE",
"573 29 OFFCURVE",
"548 26 OFFCURVE",
"545 23 CURVE SMOOTH",
"540 20 OFFCURVE",
"538 12 OFFCURVE",
"540 4 CURVE",
"542 0 OFFCURVE",
"545 -2 OFFCURVE",
"550 -4 CURVE SMOOTH",
"554 -5 OFFCURVE",
"587 -5 OFFCURVE",
"623 -5 CURVE SMOOTH",
"776 -4 OFFCURVE",
"814 -4 OFFCURVE",
"874 -7 CURVE SMOOTH",
"906 -8 LINE",
"912 -2 LINE SMOOTH",
"919 4 OFFCURVE",
"919 12 OFFCURVE",
"916 21 CURVE",
"911 29 OFFCURVE",
"903 29 OFFCURVE",
"861 29 CURVE",
"826 28 OFFCURVE",
"820 28 OFFCURVE",
"819 31 CURVE SMOOTH",
"816 35 OFFCURVE",
"814 43 OFFCURVE",
"816 56 CURVE",
"816 90 OFFCURVE",
"817 287 OFFCURVE",
"817 380 CURVE SMOOTH",
"817 447 OFFCURVE",
"817 503 OFFCURVE",
"817 507 CURVE SMOOTH",
"817 508 OFFCURVE",
"817 525 OFFCURVE",
"817 541 CURVE SMOOTH",
"816 610 OFFCURVE",
"817 699 OFFCURVE",
"819 706 CURVE SMOOTH",
"820 710 OFFCURVE",
"822 715 OFFCURVE",
"825 716 CURVE",
"828 719 OFFCURVE",
"846 719 OFFCURVE",
"879 716 CURVE",
"902 715 OFFCURVE",
"911 716 OFFCURVE",
"916 724 CURVE SMOOTH",
"919 731 OFFCURVE",
"919 741 OFFCURVE",
"912 746 CURVE",
"908 751 LINE",
"858 751 LINE",
"794 749 OFFCURVE",
"736 749 OFFCURVE",
"671 751 CURVE",
"620 751 LINE",
"615 746 LINE SMOOTH",
"613 743 OFFCURVE",
"609 729 OFFCURVE",
"603 713 CURVE SMOOTH",
"598 698 OFFCURVE",
"590 674 OFFCURVE",
"587 661 CURVE",
"582 648 OFFCURVE",
"576 632 OFFCURVE",
"575 623 CURVE",
"567 593 OFFCURVE",
"559 569 OFFCURVE",
"554 557 CURVE SMOOTH",
"551 548 OFFCURVE",
"548 538 OFFCURVE",
"546 535 CURVE",
"546 528 OFFCURVE",
"538 505 OFFCURVE",
"529 475 CURVE",
"526 461 OFFCURVE",
"521 449 OFFCURVE",
"520 444 CURVE",
"520 438 OFFCURVE",
"518 432 OFFCURVE",
"517 428 CURVE SMOOTH",
"513 420 OFFCURVE",
"510 411 OFFCURVE",
"509 402 CURVE",
"507 399 OFFCURVE",
"502 382 OFFCURVE",
"496 367 CURVE",
"492 350 OFFCURVE",
"487 336 OFFCURVE",
"487 333 CURVE SMOOTH",
"485 324 OFFCURVE",
"480 316 OFFCURVE",
"477 316 CURVE SMOOTH",
"476 316 OFFCURVE",
"474 320 OFFCURVE",
"472 325 CURVE SMOOTH",
"470 330 OFFCURVE",
"467 337 OFFCURVE",
"465 342 CURVE SMOOTH",
"463 349 OFFCURVE",
"455 374 OFFCURVE",
"446 410 CURVE",
"442 420 OFFCURVE",
"437 435 OFFCURVE",
"434 447 CURVE SMOOTH",
"432 457 OFFCURVE",
"426 475 OFFCURVE",
"422 486 CURVE",
"419 499 OFFCURVE",
"413 513 OFFCURVE",
"412 521 CURVE",
"410 528 OFFCURVE",
"405 540 OFFCURVE",
"404 546 CURVE SMOOTH",
"402 553 OFFCURVE",
"401 561 OFFCURVE",
"399 566 CURVE SMOOTH",
"397 571 OFFCURVE",
"394 582 OFFCURVE",
"391 590 CURVE SMOOTH",
"388 598 OFFCURVE",
"385 607 OFFCURVE",
"385 608 CURVE SMOOTH",
"382 621 OFFCURVE",
"374 649 OFFCURVE",
"371 656 CURVE SMOOTH",
"369 660 OFFCURVE",
"366 669 OFFCURVE",
"364 677 CURVE SMOOTH",
"357 709 OFFCURVE",
"355 718 OFFCURVE",
"352 731 CURVE SMOOTH",
"346 752 OFFCURVE",
"352 751 OFFCURVE",
"255 751 CURVE SMOOTH",
"208 751 OFFCURVE",
"139 752 OFFCURVE",
"105 752 CURVE",
"40 754 LINE"
);
},
{
closed = 1;
nodes = (
"388 291 OFFCURVE",
"387 291 OFFCURVE",
"385 291 CURVE SMOOTH",
"385 291 OFFCURVE",
"385 291 OFFCURVE",
"385 292 CURVE SMOOTH",
"387 295 OFFCURVE",
"393 294 OFFCURVE",
"391 292 CURVE"
);
},
{
closed = 1;
nodes = (
"415 237 OFFCURVE",
"415 237 OFFCURVE",
"415 236 CURVE SMOOTH",
"412 233 OFFCURVE",
"407 236 OFFCURVE",
"409 239 CURVE SMOOTH",
"410 242 OFFCURVE",
"412 244 OFFCURVE",
"415 241 CURVE"
);
}
);
};
layerId = "3AE1663F-34E8-4710-91A2-69F84C961E5F";
paths = (
{
closed = 1;
nodes = (
"433 -9 LINE",
"646 684 LINE",
"650 684 LINE",
"650 30 LINE",
"543 30 LINE",
"543 0 LINE",
"912 0 LINE",
"912 30 LINE",
"808 30 LINE",
"808 724 LINE",
"912 724 LINE",
"912 754 LINE",
"622 754 LINE",
"481 299 LINE",
"477 299 LINE",
"336 754 LINE",
"20 754 LINE",
"20 724 LINE",
"130 724 LINE",
"130 30 LINE",
"20 30 LINE",
"20 0 LINE",
"284 0 LINE",
"284 30 LINE",
"174 30 LINE",
"174 684 LINE",
"178 684 LINE",
"392 -9 LINE"
);
}
);
width = 927;
}
);
unicode = 004D;
},
{
glyphname = N;
lastChange = "2016-08-22 11:52:33 +0000";
layers = (
{
anchors = (
{
name = bottom;
position = "{372, 0}";
},
{
name = top;
position = "{372, 754}";
}
);
background = {
paths = (
{
closed = 1;
nodes = (
"125 15 LINE",
"164 15 LINE",
"164 754 LINE",
"125 754 LINE"
);
},
{
closed = 1;
nodes = (
"15 0 LINE",
"274 0 LINE",
"274 25 LINE",
"15 25 LINE"
);
},
{
closed = 1;
nodes = (
"15 729 LINE",
"274 729 LINE",
"274 754 LINE",
"15 754 LINE"
);
},
{
closed = 1;
nodes = (
"596 223 LINE",
"604 -13 LINE",
"635 -13 LINE",
"635 754 LINE",
"596 754 LINE"
);
},
{
closed = 1;
nodes = (
"496 729 LINE",
"735 729 LINE",
"735 754 LINE",
"496 754 LINE"
);
},
{
closed = 1;
nodes = (
"286 754 LINE",
"152 754 LINE",
"164 683 LINE",
"168 683 LINE",
"604 -13 LINE",
"626 -13 LINE",
"596 268 LINE",
"592 268 LINE"
);
}
);
};
layerId = UUID0;
paths = (
{
closed = 1;
nodes = (
"633 -12 LINE",
"633 729 LINE",
"733 729 LINE",
"733 754 LINE",
"494 754 LINE",
"494 729 LINE",
"594 729 LINE",
"594 268 LINE",
"590 268 LINE",
"284 754 LINE",
"13 754 LINE",
"13 729 LINE",
"123 729 LINE",
"123 25 LINE",
"13 25 LINE",
"13 0 LINE",
"272 0 LINE",
"272 25 LINE",
"162 25 LINE",
"162 683 LINE",
"166 683 LINE",
"602 -12 LINE"
);
}
);
width = 744;
},
{
anchors = (
{
name = bottom;
position = "{396, 0}";
},
{
name = top;
position = "{396, 754}";
}
);
background = {
paths = (
{
closed = 1;
nodes = (
"748 751 OFFCURVE",
"701 751 OFFCURVE",
"647 751 CURVE SMOOTH",
"543 751 LINE",
"538 746 LINE SMOOTH",
"534 743 OFFCURVE",
"533 742 OFFCURVE",
"534 734 CURVE SMOOTH",
"536 718 OFFCURVE",
"544 713 OFFCURVE",
"584 712 CURVE",
"616 709 OFFCURVE",
"625 706 OFFCURVE",
"631 690 CURVE",
"634 679 OFFCURVE",
"634 662 OFFCURVE",
"634 545 CURVE SMOOTH",
"634 538 OFFCURVE",
"634 505 OFFCURVE",
"634 473 CURVE",
"636 442 OFFCURVE",
"636 402 OFFCURVE",
"636 384 CURVE SMOOTH",
"636 320 OFFCURVE",
"636 318 OFFCURVE",
"630 320 CURVE SMOOTH",
"625 321 OFFCURVE",
"608 343 OFFCURVE",
"589 371 CURVE",
"570 402 OFFCURVE",
"555 423 OFFCURVE",
"545 435 CURVE",
"539 440 OFFCURVE",
"533 451 OFFCURVE",
"528 459 CURVE SMOOTH",
"523 467 OFFCURVE",
"513 480 OFFCURVE",
"506 488 CURVE SMOOTH",
"500 496 OFFCURVE",
"492 509 OFFCURVE",
"486 515 CURVE",
"483 520 OFFCURVE",
"478 529 OFFCURVE",
"476 530 CURVE",
"473 534 OFFCURVE",
"465 545 OFFCURVE",
"456 557 CURVE SMOOTH",
"448 568 OFFCURVE",
"440 582 OFFCURVE",
"438 584 CURVE SMOOTH",
"428 596 OFFCURVE",
"415 617 OFFCURVE",
"408 625 CURVE SMOOTH",
"405 629 OFFCURVE",
"397 642 OFFCURVE",
"389 651 CURVE SMOOTH",
"380 662 OFFCURVE",
"375 671 OFFCURVE",
"375 673 CURVE SMOOTH",
"375 673 OFFCURVE",
"370 682 OFFCURVE",
"364 690 CURVE SMOOTH",
"351 704 OFFCURVE",
"343 717 OFFCURVE",
"336 729 CURVE SMOOTH",
"325 750 OFFCURVE",
"320 753 OFFCURVE",
"280 750 CURVE",
"256 750 OFFCURVE",
"183 750 OFFCURVE",
"80 751 CURVE",
"26 753 LINE",
"23 748 LINE SMOOTH",
"18 742 OFFCURVE",
"18 728 OFFCURVE",
"22 721 CURVE",
"25 718 OFFCURVE",
"25 718 OFFCURVE",
"57 717 CURVE",
"104 717 OFFCURVE",
"111 715 OFFCURVE",
"125 695 CURVE SMOOTH",
"130 687 LINE",
"130 617 LINE",
"131 578 OFFCURVE",
"131 540 OFFCURVE",
"131 530 CURVE SMOOTH",
"131 521 OFFCURVE",
"130 413 OFFCURVE",
"130 290 CURVE SMOOTH",
"130 165 OFFCURVE",
"128 62 OFFCURVE",
"128 57 CURVE",
"126 47 OFFCURVE",
"120 38 OFFCURVE",
"112 34 CURVE SMOOTH",
"103 29 LINE",
"65 29 LINE",
"26 29 LINE",
"22 22 LINE",
"22 15 OFFCURVE",
"22 4 OFFCURVE",
"22 -3 CURVE",
"28 -8 LINE",
"148 -8 LINE SMOOTH",
"220 -8 OFFCURVE",
"270 -8 OFFCURVE",
"272 -6 CURVE SMOOTH",
"278 -1 OFFCURVE",
"281 10 OFFCURVE",
"276 21 CURVE SMOOTH",
"273 27 OFFCURVE",
"267 29 OFFCURVE",
"228 29 CURVE SMOOTH",
"193 29 OFFCURVE",
"187 30 OFFCURVE",
"176 40 CURVE",
"167 54 OFFCURVE",
"165 63 OFFCURVE",
"165 159 CURVE SMOOTH",
"165 205 OFFCURVE",
"165 326 OFFCURVE",
"165 427 CURVE SMOOTH",
"165 529 OFFCURVE",
"165 617 OFFCURVE",
"167 623 CURVE",
"169 642 OFFCURVE",
"172 645 OFFCURVE",
"181 635 CURVE",
"185 634 OFFCURVE",
"190 626 OFFCURVE",
"192 623 CURVE",
"192 618 OFFCURVE",
"214 604 OFFCURVE",
"214 592 CURVE",
"221 580 OFFCURVE",
"231 567 OFFCURVE",
"231 565 CURVE",
"233 562 OFFCURVE",
"237 557 OFFCURVE",
"240 553 CURVE SMOOTH",
"243 550 OFFCURVE",
"249 542 OFFCURVE",
"253 535 CURVE SMOOTH",
"267 515 OFFCURVE",
"300 467 OFFCURVE",
"317 445 CURVE",
"323 432 OFFCURVE",
"330 425 OFFCURVE",
"336 415 CURVE",
"343 409 OFFCURVE",
"350 396 OFFCURVE",
"370 370 CURVE",
"376 360 OFFCURVE",
"381 352 OFFCURVE",
"381 352 CURVE",
"381 351 OFFCURVE",
"384 345 OFFCURVE",
"390 340 CURVE",
"394 335 OFFCURVE",
"403 323 OFFCURVE",
"408 313 CURVE",
"416 305 OFFCURVE",
"423 293 OFFCURVE",
"426 288 CURVE",
"438 274 OFFCURVE",
"448 263 OFFCURVE",
"456 249 CURVE",
"462 242 OFFCURVE",
"470 229 OFFCURVE",
"476 220 CURVE",
"484 212 OFFCURVE",
"489 201 OFFCURVE",
"493 196 CURVE SMOOTH",
"497 192 OFFCURVE",
"500 185 OFFCURVE",
"503 184 CURVE",
"505 180 OFFCURVE",
"509 176 OFFCURVE",
"511 170 CURVE",
"514 167 OFFCURVE",
"520 159 OFFCURVE",
"523 155 CURVE SMOOTH",
"526 151 OFFCURVE",
"534 140 OFFCURVE",
"539 132 CURVE SMOOTH",
"544 124 OFFCURVE",
"553 113 OFFCURVE",
"558 109 CURVE",
"563 102 OFFCURVE",
"569 93 OFFCURVE",
"573 88 CURVE",
"577 79 OFFCURVE",
"585 67 OFFCURVE",
"603 37 CURVE SMOOTH",
"615 17 OFFCURVE",
"639 -13 OFFCURVE",
"641 -15 CURVE",
"641 -18 OFFCURVE",
"641 -20 OFFCURVE",
"664 -18 CURVE",
"675 -15 OFFCURVE",
"676 -10 OFFCURVE",
"676 22 CURVE SMOOTH",
"676 37 OFFCURVE",
"675 55 OFFCURVE",
"675 65 CURVE",
"673 80 OFFCURVE",
"672 402 OFFCURVE",
"673 588 CURVE SMOOTH",
"673 675 OFFCURVE",
"675 688 OFFCURVE",
"683 701 CURVE SMOOTH",
"692 715 OFFCURVE",
"696 715 OFFCURVE",
"736 715 CURVE SMOOTH",
"769 715 LINE",
"773 720 LINE SMOOTH",
"783 731 OFFCURVE",
"778 748 OFFCURVE",
"766 753 CURVE",
"758 754 OFFCURVE",
"751 754 OFFCURVE",
"750 753 CURVE SMOOTH"
);
}
);
};
layerId = "3AE1663F-34E8-4710-91A2-69F84C961E5F";
paths = (
{
closed = 1;
nodes = (
"676 -13 LINE",
"676 724 LINE",
"776 724 LINE",
"776 754 LINE",
"532 754 LINE",
"532 724 LINE",
"632 724 LINE",
"632 309 LINE",
"628 309 LINE",
"312 754 LINE",
"20 754 LINE",
"20 724 LINE",
"130 724 LINE",
"130 30 LINE",
"20 30 LINE",
"20 0 LINE",
"284 0 LINE",
"284 30 LINE",
"174 30 LINE",
"174 641 LINE",
"178 641 LINE",
"632 -13 LINE"
);
}
);
width = 791;
}
);
leftKerningGroup = N;
rightKerningGroup = N;
unicode = 004E;
},
{
glyphname = Eng;
lastChange = "2016-08-19 17:05:53 +0000";
layers = (
{
background = {
paths = (
{
closed = 1;
nodes = (
"597 76 LINE SMOOTH",
"597 -82 OFFCURVE",
"565 -124 OFFCURVE",
"529 -124 CURVE SMOOTH",
"516 -124 OFFCURVE",
"505 -118 OFFCURVE",
"505 -104 CURVE SMOOTH",
"505 -86 OFFCURVE",
"523 -70 OFFCURVE",
"523 -42 CURVE SMOOTH",
"523 -7 OFFCURVE",
"496 21 OFFCURVE",
"460 21 CURVE SMOOTH",
"425 21 OFFCURVE",
"392 -5 OFFCURVE",
"392 -54 CURVE SMOOTH",
"392 -112 OFFCURVE",
"438 -157 OFFCURVE",
"513 -157 CURVE SMOOTH",
"574 -157 OFFCURVE",
"635 -127 OFFCURVE",
"635 76 CURVE SMOOTH",
"635 735 LINE",
"597 735 LINE"
);
},
{
closed = 1;
nodes = (
"125 15 LINE",
"164 15 LINE",
"164 754 LINE",
"125 754 LINE"
);
},
{
closed = 1;
nodes = (
"15 0 LINE",
"274 0 LINE",
"274 25 LINE",
"15 25 LINE"
);
},
{
closed = 1;
nodes = (
"15 729 LINE",
"274 729 LINE",
"274 754 LINE",
"15 754 LINE"
);
},
{
closed = 1;
nodes = (
"496 729 LINE",
"735 729 LINE",
"735 754 LINE",
"496 754 LINE"
);
},
{
closed = 1;
nodes = (
"286 754 LINE",
"152 754 LINE",
"164 683 LINE",
"168 683 LINE",
"604 47 LINE",
"626 47 LINE",
"597 328 LINE",
"593 328 LINE"
);
}
);
};
layerId = UUID0;
paths = (
{
closed = 1;
nodes = (
"574 -157 OFFCURVE",
"635 -127 OFFCURVE",
"635 76 CURVE SMOOTH",
"635 729 LINE",
"735 729 LINE",
"735 754 LINE",
"496 754 LINE",
"496 729 LINE",
"597 729 LINE",
"597 328 LINE",
"593 328 LINE",
"286 754 LINE",
"15 754 LINE",
"15 729 LINE",
"125 729 LINE",
"125 25 LINE",
"15 25 LINE",
"15 0 LINE",
"274 0 LINE",
"274 25 LINE",
"164 25 LINE",
"164 683 LINE",
"168 683 LINE",
"597 57 LINE",
"597 25 LINE SMOOTH",
"597 -82 OFFCURVE",
"560 -124 OFFCURVE",
"529 -124 CURVE SMOOTH",
"516 -124 OFFCURVE",
"505 -118 OFFCURVE",
"505 -104 CURVE SMOOTH",
"505 -86 OFFCURVE",
"523 -70 OFFCURVE",
"523 -42 CURVE SMOOTH",
"523 -7 OFFCURVE",
"496 21 OFFCURVE",
"460 21 CURVE SMOOTH",
"425 21 OFFCURVE",
"392 -5 OFFCURVE",
"392 -54 CURVE SMOOTH",
"392 -112 OFFCURVE",
"438 -157 OFFCURVE",
"513 -157 CURVE SMOOTH",
"513 -157 LINE SMOOTH"
);
}
);
width = 743;
},
{
background = {
paths = (
{
closed = 1;
nodes = (
"676 686 LINE",
"632 686 LINE",
"632 21 LINE SMOOTH",
"632 -104 OFFCURVE",
"592 -122 OFFCURVE",
"567 -122 CURVE SMOOTH",
"554 -122 OFFCURVE",
"540 -117 OFFCURVE",
"540 -104 CURVE SMOOTH",
"540 -89 OFFCURVE",
"558 -76 OFFCURVE",
"558 -47 CURVE SMOOTH",
"558 -4 OFFCURVE",
"519 23 OFFCURVE",
"482 23 CURVE SMOOTH",
"436 23 OFFCURVE",
"402 -17 OFFCURVE",
"402 -67 CURVE SMOOTH",
"402 -128 OFFCURVE",
"452 -170 OFFCURVE",
"536 -170 CURVE SMOOTH",
"642 -170 OFFCURVE",
"676 -102 OFFCURVE",
"676 20 CURVE SMOOTH"
);
},
{
closed = 1;
nodes = (
"130 15 LINE",
"174 15 LINE",
"174 754 LINE",
"130 754 LINE"
);
},
{
closed = 1;
nodes = (
"20 0 LINE",
"284 0 LINE",
"284 30 LINE",
"20 30 LINE"
);
},
{
closed = 1;
nodes = (
"20 724 LINE",
"284 724 LINE",
"284 754 LINE",
"20 754 LINE"
);
},
{
closed = 1;
nodes = (
"632 57 LINE",
"676 57 LINE",
"676 754 LINE",
"632 754 LINE"
);
},
{
closed = 1;
nodes = (
"532 724 LINE",
"776 724 LINE",
"776 754 LINE",
"532 754 LINE"
);
},
{
closed = 1;
nodes = (
"312 754 LINE",
"162 754 LINE",
"174 641 LINE",
"178 641 LINE",
"632 57 LINE",
"662 57 LINE",
"632 379 LINE",
"628 379 LINE"
);
}
);
};
layerId = "3AE1663F-34E8-4710-91A2-69F84C961E5F";
paths = (
{
closed = 1;
nodes = (
"642 -170 OFFCURVE",
"676 -102 OFFCURVE",
"676 20 CURVE SMOOTH",
"676 724 LINE",
"776 724 LINE",
"776 754 LINE",
"532 754 LINE",
"532 724 LINE",
"632 724 LINE",
"632 379 LINE",
"628 379 LINE",
"312 754 LINE",
"20 754 LINE",
"20 724 LINE",
"130 724 LINE",
"130 30 LINE",
"20 30 LINE",
"20 0 LINE",
"284 0 LINE",
"284 30 LINE",
"174 30 LINE",
"174 641 LINE",
"178 641 LINE",
"632 57 LINE",
"632 21 LINE SMOOTH",
"632 -104 OFFCURVE",
"592 -122 OFFCURVE",
"567 -122 CURVE SMOOTH",
"554 -122 OFFCURVE",
"540 -117 OFFCURVE",
"540 -104 CURVE SMOOTH",
"540 -89 OFFCURVE",
"558 -76 OFFCURVE",
"558 -47 CURVE SMOOTH",
"558 -4 OFFCURVE",
"519 23 OFFCURVE",
"482 23 CURVE SMOOTH",
"436 23 OFFCURVE",
"402 -17 OFFCURVE",
"402 -67 CURVE SMOOTH",
"402 -128 OFFCURVE",
"452 -170 OFFCURVE",
"536 -170 CURVE SMOOTH",
"536 -170 LINE"
);
}
);
width = 791;
}
);
leftKerningGroup = N;
unicode = 014A;
},
{
glyphname = O;
lastChange = "2016-08-22 09:33:53 +0000";
layers = (
{
anchors = (
{
name = bottom;
position = "{391, 0}";
},
{
name = center;
position = "{391, 377}";
},
{
name = ogonek;
position = "{704, 10}";
},
{
name = top;
position = "{391, 754}";
},
{
name = topleft;
position = "{20, 754}";
},
{
name = topright;
position = "{550, 701}";
}
);
background = {
paths = (
{
closed = 1;
nodes = (
"0 172 OFFCURVE",
"152 -13 OFFCURVE",
"346 -13 CURVE SMOOTH",
"540 -13 OFFCURVE",
"693 172 OFFCURVE",
"693 380 CURVE SMOOTH",
"693 582 OFFCURVE",
"540 763 OFFCURVE",
"346 763 CURVE SMOOTH",
"152 763 OFFCURVE",
"0 582 OFFCURVE",
"0 380 CURVE SMOOTH"
);
},
{
closed = 1;
nodes = (
"160 666 OFFCURVE",
"209 733 OFFCURVE",
"345 733 CURVE SMOOTH",
"482 733 OFFCURVE",
"533 665 OFFCURVE",
"533 378 CURVE SMOOTH",
"533 86 OFFCURVE",
"483 17 OFFCURVE",
"346 17 CURVE SMOOTH",
"209 17 OFFCURVE",
"160 85 OFFCURVE",
"160 380 CURVE SMOOTH"
);
}
);
};
layerId = UUID0;
paths = (
{
closed = 1;
nodes = (
"585 -12 OFFCURVE",
"738 169 OFFCURVE",
"738 377 CURVE SMOOTH",
"738 585 OFFCURVE",
"585 766 OFFCURVE",
"391 766 CURVE SMOOTH",
"197 766 OFFCURVE",
"44 585 OFFCURVE",
"44 377 CURVE SMOOTH",
"44 169 OFFCURVE",
"197 -12 OFFCURVE",
"391 -12 CURVE SMOOTH"
);
},
{
closed = 1;
nodes = (
"255 18 OFFCURVE",
"204 91 OFFCURVE",
"204 377 CURVE SMOOTH",
"204 663 OFFCURVE",
"255 736 OFFCURVE",
"391 736 CURVE SMOOTH",
"527 736 OFFCURVE",
"578 664 OFFCURVE",
"578 378 CURVE SMOOTH",
"578 92 OFFCURVE",
"527 18 OFFCURVE",
"391 18 CURVE SMOOTH"
);
}
);
width = 782;
},
{
anchors = (
{
name = bottom;
position = "{412, 0}";
},
{
name = center;
position = "{412, 377}";
},
{
name = ogonek;
position = "{741, 10}";
},
{
name = top;
position = "{412, 754}";
},
{
name = topleft;
position = "{20, 754}";
},
{
name = topright;
position = "{451, 702}";
}
);
background = {
paths = (
{
closed = 1;
nodes = (
"351 753 OFFCURVE",
"340 751 OFFCURVE",
"330 748 CURVE SMOOTH",
"321 746 OFFCURVE",
"310 743 OFFCURVE",
"305 741 CURVE SMOOTH",
"294 738 OFFCURVE",
"236 713 OFFCURVE",
"220 703 CURVE SMOOTH",
"204 692 OFFCURVE",
"175 669 OFFCURVE",
"167 661 CURVE SMOOTH",
"159 652 OFFCURVE",
"153 647 OFFCURVE",
"138 631 CURVE",
"130 625 OFFCURVE",
"119 613 OFFCURVE",
"113 605 CURVE SMOOTH",
"100 589 OFFCURVE",
"68 537 OFFCURVE",
"68 532 CURVE SMOOTH",
"68 530 OFFCURVE",
"68 529 OFFCURVE",
"66 527 CURVE SMOOTH",
"65 525 OFFCURVE",
"54 501 OFFCURVE",
"49 489 CURVE SMOOTH",
"41 465 OFFCURVE",
"39 457 OFFCURVE",
"38 442 CURVE",
"33 405 OFFCURVE",
"31 394 OFFCURVE",
"31 393 CURVE SMOOTH",
"31 391 OFFCURVE",
"31 380 OFFCURVE",
"33 367 CURVE SMOOTH",
"34 354 OFFCURVE",
"34 343 OFFCURVE",
"34 341 CURVE SMOOTH",
"33 335 OFFCURVE",
"38 292 OFFCURVE",
"47 273 CURVE",
"58 241 OFFCURVE",
"70 207 OFFCURVE",
"81 194 CURVE",
"105 156 OFFCURVE",
"110 149 OFFCURVE",
"140 117 CURVE SMOOTH",
"175 81 OFFCURVE",
"218 49 OFFCURVE",
"255 33 CURVE SMOOTH",
"259 31 OFFCURVE",
"264 28 OFFCURVE",
"273 25 CURVE",
"277 21 OFFCURVE",
"285 20 OFFCURVE",
"286 20 CURVE SMOOTH",
"286 20 OFFCURVE",
"290 18 OFFCURVE",
"295 15 CURVE",
"311 9 OFFCURVE",
"354 -1 OFFCURVE",
"382 -3 CURVE SMOOTH",
"447 -6 OFFCURVE",
"500 7 OFFCURVE",
"570 47 CURVE SMOOTH",
"610 69 OFFCURVE",
"654 109 OFFCURVE",
"694 159 CURVE",
"705 175 OFFCURVE",
"738 239 OFFCURVE",
"743 257 CURVE SMOOTH",
"752 285 OFFCURVE",
"761 314 OFFCURVE",
"761 335 CURVE SMOOTH",
"761 362 OFFCURVE",
"761 401 OFFCURVE",
"761 417 CURVE",
"759 433 OFFCURVE",
"751 469 OFFCURVE",
"746 479 CURVE",
"745 485 OFFCURVE",
"743 490 OFFCURVE",
"743 492 CURVE SMOOTH",
"743 497 OFFCURVE",
"732 525 OFFCURVE",
"726 538 CURVE SMOOTH",
"710 569 OFFCURVE",
"676 615 OFFCURVE",
"650 641 CURVE",
"630 663 OFFCURVE",
"586 697 OFFCURVE",
"567 708 CURVE SMOOTH",
"564 709 OFFCURVE",
"514 733 OFFCURVE",
"510 735 CURVE SMOOTH",
"500 740 OFFCURVE",
"476 745 OFFCURVE",
"466 745 CURVE SMOOTH",
"463 745 OFFCURVE",
"457 746 OFFCURVE",
"454 748 CURVE SMOOTH",
"442 753 OFFCURVE",
"377 756 OFFCURVE",
"354 753 CURVE SMOOTH"
);
},
{
closed = 1;
nodes = (
"490 705 OFFCURVE",
"510 693 OFFCURVE",
"516 687 CURVE SMOOTH",
"528 674 OFFCURVE",
"540 652 OFFCURVE",
"540 636 CURVE",
"542 628 OFFCURVE",
"543 618 OFFCURVE",
"545 615 CURVE",
"545 612 OFFCURVE",
"545 607 OFFCURVE",
"545 605 CURVE SMOOTH",
"545 604 OFFCURVE",
"545 594 OFFCURVE",
"546 583 CURVE",
"548 573 OFFCURVE",
"550 554 OFFCURVE",
"550 541 CURVE SMOOTH",
"550 530 OFFCURVE",
"551 513 OFFCURVE",
"551 503 CURVE",
"553 493 OFFCURVE",
"554 473 OFFCURVE",
"554 457 CURVE",
"556 433 OFFCURVE",
"556 426 OFFCURVE",
"553 412 CURVE SMOOTH",
"550 397 OFFCURVE",
"550 393 OFFCURVE",
"551 386 CURVE",
"553 380 OFFCURVE",
"554 361 OFFCURVE",
"553 314 CURVE SMOOTH",
"553 279 OFFCURVE",
"551 247 OFFCURVE",
"551 244 CURVE SMOOTH",
"551 242 OFFCURVE",
"550 229 OFFCURVE",
"548 217 CURVE",
"543 153 OFFCURVE",
"538 125 OFFCURVE",
"532 105 CURVE SMOOTH",
"524 82 OFFCURVE",
"521 74 OFFCURVE",
"510 65 CURVE",
"497 52 OFFCURVE",
"478 44 OFFCURVE",
"446 36 CURVE SMOOTH",
"431 33 OFFCURVE",
"430 33 OFFCURVE",
"425 34 CURVE",
"418 37 OFFCURVE",
"418 37 OFFCURVE",
"409 34 CURVE SMOOTH",
"404 33 OFFCURVE",
"398 31 OFFCURVE",
"393 31 CURVE",
"390 33 OFFCURVE",
"385 33 OFFCURVE",
"382 33 CURVE SMOOTH",
"356 33 OFFCURVE",
"335 36 OFFCURVE",
"327 41 CURVE",
"322 42 OFFCURVE",
"316 45 OFFCURVE",
"313 45 CURVE",
"302 49 OFFCURVE",
"284 61 OFFCURVE",
"284 66 CURVE SMOOTH",
"284 68 OFFCURVE",
"281 69 OFFCURVE",
"279 71 CURVE SMOOTH",
"276 73 OFFCURVE",
"271 76 OFFCURVE",
"270 77 CURVE SMOOTH",
"265 84 OFFCURVE",
"255 108 OFFCURVE",
"250 127 CURVE",
"247 143 OFFCURVE",
"239 215 OFFCURVE",
"239 241 CURVE SMOOTH",
"239 287 OFFCURVE",
"239 474 OFFCURVE",
"239 495 CURVE",
"241 508 OFFCURVE",
"241 519 OFFCURVE",
"241 521 CURVE SMOOTH",
"241 522 OFFCURVE",
"241 530 OFFCURVE",
"241 538 CURVE SMOOTH",
"242 548 OFFCURVE",
"244 569 OFFCURVE",
"246 586 CURVE SMOOTH",
"249 613 OFFCURVE",
"250 620 OFFCURVE",
"257 641 CURVE SMOOTH",
"261 655 OFFCURVE",
"266 668 OFFCURVE",
"270 671 CURVE",
"271 673 OFFCURVE",
"273 677 OFFCURVE",
"273 679 CURVE",
"276 684 OFFCURVE",
"280 689 OFFCURVE",
"290 697 CURVE",
"303 705 OFFCURVE",
"312 708 OFFCURVE",
"330 711 CURVE",
"340 711 OFFCURVE",
"352 714 OFFCURVE",
"362 716 CURVE SMOOTH",
"372 717 OFFCURVE",
"386 717 OFFCURVE",
"414 717 CURVE SMOOTH",
"448 716 OFFCURVE",
"453 716 OFFCURVE",
"468 711 CURVE SMOOTH"
);
}
);
};
layerId = "3AE1663F-34E8-4710-91A2-69F84C961E5F";
paths = (
{
closed = 1;
nodes = (
"620 -13 OFFCURVE",
"783 173 OFFCURVE",
"783 378 CURVE SMOOTH",
"783 583 OFFCURVE",
"620 763 OFFCURVE",
"411 763 CURVE SMOOTH",
"202 763 OFFCURVE",
"40 583 OFFCURVE",
"40 378 CURVE SMOOTH",
"40 173 OFFCURVE",
"202 -13 OFFCURVE",
"411 -13 CURVE SMOOTH"
);
},
{
closed = 1;
nodes = (
"278 22 OFFCURVE",
"230 88 OFFCURVE",
"230 378 CURVE SMOOTH",
"230 661 OFFCURVE",
"276 728 OFFCURVE",
"410 728 CURVE SMOOTH",
"545 728 OFFCURVE",
"593 660 OFFCURVE",
"593 376 CURVE SMOOTH",
"593 91 OFFCURVE",
"545 22 OFFCURVE",
"410 22 CURVE SMOOTH"
);
}
);
width = 823;
}
);
leftKerningGroup = O;
rightKerningGroup = O;
unicode = 004F;
},
{
glyphname = Oslash;
lastChange = "2022-02-25 09:10:17 +0000";
layers = (
{
anchors = (
{
name = bottom;
position = "{377, 0}";
},
{
name = top;
position = "{377, 754}";
}
);
layerId = UUID0;
paths = (
{
closed = 1;
nodes = (
"570 -13 OFFCURVE",
"723 172 OFFCURVE",
"723 380 CURVE SMOOTH",
"723 582 OFFCURVE",
"570 763 OFFCURVE",
"376 763 CURVE SMOOTH",
"182 763 OFFCURVE",
"30 582 OFFCURVE",
"30 380 CURVE SMOOTH",
"30 172 OFFCURVE",
"182 -13 OFFCURVE",
"376 -13 CURVE SMOOTH"
);
},
{
closed = 1;
nodes = (
"118 -53 LINE",
"673 804 LINE",
"635 804 LINE",
"80 -53 LINE"
);
},
{
closed = 1;
nodes = (
"239 17 OFFCURVE",
"190 85 OFFCURVE",
"190 380 CURVE SMOOTH",
"190 666 OFFCURVE",
"239 733 OFFCURVE",
"375 733 CURVE SMOOTH",
"512 733 OFFCURVE",
"563 665 OFFCURVE",
"563 378 CURVE SMOOTH",
"563 86 OFFCURVE",
"513 17 OFFCURVE",
"376 17 CURVE SMOOTH"
);
}
);
width = 753;
},
{
anchors = (
{
name = bottom;
position = "{412, 0}";
},
{
name = top;
position = "{412, 754}";
}
);
layerId = "3AE1663F-34E8-4710-91A2-69F84C961E5F";
paths = (
{
closed = 1;
nodes = (
"620 -13 OFFCURVE",
"783 173 OFFCURVE",
"783 378 CURVE SMOOTH",
"783 583 OFFCURVE",
"620 763 OFFCURVE",
"411 763 CURVE SMOOTH",
"202 763 OFFCURVE",
"40 583 OFFCURVE",
"40 378 CURVE SMOOTH",
"40 173 OFFCURVE",
"202 -13 OFFCURVE",
"411 -13 CURVE SMOOTH"
);
},
{
closed = 1;
nodes = (
"165 -53 LINE",
"720 804 LINE",
"662 804 LINE",
"107 -53 LINE"
);
},
{
closed = 1;
nodes = (
"278 22 OFFCURVE",
"230 88 OFFCURVE",
"230 378 CURVE SMOOTH",
"230 661 OFFCURVE",
"276 728 OFFCURVE",
"410 728 CURVE SMOOTH",
"545 728 OFFCURVE",
"593 660 OFFCURVE",
"593 376 CURVE SMOOTH",
"593 91 OFFCURVE",
"545 22 OFFCURVE",
"410 22 CURVE SMOOTH"
);
}
);
width = 823;
}
);
unicode = 00D8;
},
{
glyphname = OE;
lastChange = "2016-08-19 17:05:53 +0000";
layers = (
{
background = {
paths = (
{
closed = 1;
nodes = (
"1056 0 LINE",
"1056 235 LINE",
"1021 235 LINE",
"1019 123 OFFCURVE",
"962 25 OFFCURVE",
"863 25 CURVE SMOOTH",
"677 25 LINE",
"677 363 LINE",
"798 362 OFFCURVE",
"829 327 OFFCURVE",
"832 216 CURVE",
"867 216 LINE",
"867 526 LINE",
"832 526 LINE",
"832 419 OFFCURVE",
"798 388 OFFCURVE",
"677 388 CURVE",
"677 729 LINE",
"833 729 LINE SMOOTH",
"932 729 OFFCURVE",
"989 646 OFFCURVE",
"991 549 CURVE",
"1026 549 LINE",
"1026 754 LINE",
"376 754 LINE SMOOTH",
"182 754 OFFCURVE",
"30 578 OFFCURVE",
"30 380 CURVE SMOOTH",
"30 180 OFFCURVE",
"182 0 OFFCURVE",
"376 0 CURVE SMOOTH"
);
},
{
closed = 1;
nodes = (
"190 659 OFFCURVE",
"239 724 OFFCURVE",
"375 724 CURVE SMOOTH",
"492 724 OFFCURVE",
"543 658 OFFCURVE",
"543 367 CURVE SMOOTH",
"543 94 OFFCURVE",
"490 30 OFFCURVE",
"376 30 CURVE SMOOTH",
"239 30 OFFCURVE",
"190 96 OFFCURVE",
"190 380 CURVE SMOOTH"
);
}
);
};
layerId = UUID0;
paths = (
{
closed = 1;
nodes = (
"1056 0 LINE",
"1056 235 LINE",
"1021 235 LINE",
"1019 123 OFFCURVE",
"962 25 OFFCURVE",
"863 25 CURVE SMOOTH",
"677 25 LINE",
"677 363 LINE",
"798 362 OFFCURVE",
"829 327 OFFCURVE",
"832 216 CURVE",
"867 216 LINE",
"867 526 LINE",
"832 526 LINE",
"832 419 OFFCURVE",
"798 388 OFFCURVE",
"677 388 CURVE",
"677 729 LINE",
"833 729 LINE SMOOTH",
"932 729 OFFCURVE",
"989 646 OFFCURVE",
"991 549 CURVE",
"1026 549 LINE",
"1026 754 LINE",
"376 754 LINE SMOOTH",
"182 754 OFFCURVE",
"30 578 OFFCURVE",
"30 380 CURVE SMOOTH",
"30 180 OFFCURVE",
"182 0 OFFCURVE",
"376 0 CURVE SMOOTH"
);
},
{
closed = 1;
nodes = (
"239 30 OFFCURVE",
"190 96 OFFCURVE",
"190 380 CURVE SMOOTH",
"190 659 OFFCURVE",
"239 724 OFFCURVE",
"375 724 CURVE SMOOTH",
"492 724 OFFCURVE",
"543 658 OFFCURVE",
"543 367 CURVE SMOOTH",
"543 94 OFFCURVE",
"490 30 OFFCURVE",
"376 30 CURVE SMOOTH"
);
}
);
width = 1093;
},
{
background = {
paths = (
{
closed = 1;
nodes = (
"40 181 OFFCURVE",
"202 0 OFFCURVE",
"413 0 CURVE SMOOTH",
"1144 0 LINE",
"1144 245 LINE",
"1104 245 LINE",
"1102 131 OFFCURVE",
"1037 30 OFFCURVE",
"926 30 CURVE SMOOTH",
"756 30 LINE",
"756 356 LINE",
"885 355 OFFCURVE",
"933 311 OFFCURVE",
"935 216 CURVE",
"975 216 LINE",
"975 516 LINE",
"935 516 LINE",
"933 428 OFFCURVE",
"885 387 OFFCURVE",
"756 386 CURVE",
"756 724 LINE",
"926 724 LINE SMOOTH",
"1028 724 OFFCURVE",
"1087 646 OFFCURVE",
"1089 554 CURVE",
"1129 554 LINE",
"1129 754 LINE",
"411 754 LINE SMOOTH",
"202 754 OFFCURVE",
"40 579 OFFCURVE",
"40 378 CURVE SMOOTH"
);
},
{
closed = 1;
nodes = (
"230 654 OFFCURVE",
"276 719 OFFCURVE",
"410 719 CURVE SMOOTH",
"545 719 OFFCURVE",
"593 653 OFFCURVE",
"593 376 CURVE SMOOTH",
"593 102 OFFCURVE",
"545 35 OFFCURVE",
"410 35 CURVE SMOOTH",
"278 35 OFFCURVE",
"230 99 OFFCURVE",
"230 378 CURVE SMOOTH"
);
}
);
};
layerId = "3AE1663F-34E8-4710-91A2-69F84C961E5F";
paths = (
{
closed = 1;
nodes = (
"1144 0 LINE",
"1144 245 LINE",
"1104 245 LINE",
"1102 131 OFFCURVE",
"1037 30 OFFCURVE",
"926 30 CURVE SMOOTH",
"756 30 LINE",
"756 356 LINE",
"885 355 OFFCURVE",
"933 311 OFFCURVE",
"935 216 CURVE",
"975 216 LINE",
"975 516 LINE",
"935 516 LINE",
"933 428 OFFCURVE",
"885 387 OFFCURVE",
"756 386 CURVE",
"756 724 LINE",
"926 724 LINE SMOOTH",
"1028 724 OFFCURVE",
"1087 646 OFFCURVE",
"1089 554 CURVE",
"1129 554 LINE",
"1129 754 LINE",
"411 754 LINE SMOOTH",
"202 754 OFFCURVE",
"40 579 OFFCURVE",
"40 378 CURVE SMOOTH",
"40 181 OFFCURVE",
"202 0 OFFCURVE",
"413 0 CURVE SMOOTH"
);
},
{
closed = 1;
nodes = (
"278 35 OFFCURVE",
"230 99 OFFCURVE",
"230 378 CURVE SMOOTH",
"230 654 OFFCURVE",
"276 719 OFFCURVE",
"410 719 CURVE SMOOTH",
"545 719 OFFCURVE",
"593 653 OFFCURVE",
"593 376 CURVE SMOOTH",
"593 102 OFFCURVE",
"545 35 OFFCURVE",
"410 35 CURVE SMOOTH"
);
}
);
width = 1179;
}
);
leftKerningGroup = O;
rightKerningGroup = E;
unicode = 0152;
},
{
glyphname = P;
lastChange = "2016-08-22 11:52:33 +0000";
layers = (
{
anchors = (
{
name = bottom;
position = "{342, 0}";
},
{
name = top;
position = "{342, 754}";
}
);
background = {
paths = (
{
closed = 1;
nodes = (
"121 15 LINE",
"255 15 LINE",
"255 754 LINE",
"121 754 LINE"
);
},
{
closed = 1;
nodes = (
"11 0 LINE",
"385 0 LINE",
"385 25 LINE",
"11 25 LINE"
);
},
{
closed = 1;
nodes = (
"307 342 LINE SMOOTH",
"522 342 OFFCURVE",
"652 427 OFFCURVE",
"652 552 CURVE SMOOTH",
"652 669 OFFCURVE",
"540 754 OFFCURVE",
"397 754 CURVE SMOOTH",
"11 754 LINE",
"11 729 LINE",
"357 729 LINE SMOOTH",
"450 729 OFFCURVE",
"497 700 OFFCURVE",
"497 558 CURVE SMOOTH",
"497 405 OFFCURVE",
"443 372 OFFCURVE",
"307 372 CURVE SMOOTH",
"224 372 LINE",
"224 342 LINE"
);
}
);
};
layerId = UUID0;
paths = (
{
closed = 1;
nodes = (
"307 342 LINE SMOOTH",
"522 342 OFFCURVE",
"652 427 OFFCURVE",
"652 552 CURVE SMOOTH",
"652 669 OFFCURVE",
"540 754 OFFCURVE",
"397 754 CURVE SMOOTH",
"11 754 LINE",
"11 729 LINE",
"357 729 LINE SMOOTH",
"450 729 OFFCURVE",
"497 700 OFFCURVE",
"497 558 CURVE SMOOTH",
"497 405 OFFCURVE",
"443 372 OFFCURVE",
"307 372 CURVE SMOOTH",
"224 372 LINE",
"224 342 LINE"
);
},
{
closed = 1;
nodes = (
"385 0 LINE",
"385 25 LINE",
"11 25 LINE",
"11 0 LINE"
);
},
{
closed = 1;
nodes = (
"255 15 LINE",
"255 754 LINE",
"121 754 LINE",
"121 15 LINE"
);
}
);
width = 684;
},
{
anchors = (
{
name = bottom;
position = "{350, 0}";
},
{
name = top;
position = "{350, 754}";
}
);
background = {
paths = (
{
closed = 1;
nodes = (
"115 15 LINE",
"273 15 LINE",
"273 754 LINE",
"115 754 LINE"
);
},
{
closed = 1;
nodes = (
"20 0 LINE",
"391 0 LINE",
"391 30 LINE",
"20 30 LINE"
);
},
{
closed = 1;
nodes = (
"350 342 LINE SMOOTH",
"565 342 OFFCURVE",
"695 427 OFFCURVE",
"695 552 CURVE SMOOTH",
"695 669 OFFCURVE",
"583 754 OFFCURVE",
"440 754 CURVE SMOOTH",
"20 754 LINE",
"20 724 LINE",
"390 724 LINE SMOOTH",
"465 724 OFFCURVE",
"505 696 OFFCURVE",
"505 555 CURVE SMOOTH",
"505 405 OFFCURVE",
"460 372 OFFCURVE",
"350 372 CURVE SMOOTH",
"267 372 LINE",
"267 342 LINE"
);
}
);
};
layerId = "3AE1663F-34E8-4710-91A2-69F84C961E5F";
paths = (
{
closed = 1;
nodes = (
"350 342 LINE SMOOTH",
"565 342 OFFCURVE",
"695 427 OFFCURVE",
"695 552 CURVE SMOOTH",
"695 669 OFFCURVE",
"583 754 OFFCURVE",
"440 754 CURVE SMOOTH",
"20 754 LINE",
"20 724 LINE",
"390 724 LINE SMOOTH",
"465 724 OFFCURVE",
"505 696 OFFCURVE",
"505 555 CURVE SMOOTH",
"505 405 OFFCURVE",
"460 372 OFFCURVE",
"350 372 CURVE SMOOTH",
"267 372 LINE",
"267 342 LINE"
);
},
{
closed = 1;
nodes = (
"391 0 LINE",
"391 30 LINE",
"20 30 LINE",
"20 0 LINE"
);
},
{
closed = 1;
nodes = (
"273 15 LINE",
"273 754 LINE",
"115 754 LINE",
"115 15 LINE"
);
}
);
width = 700;
}
);
leftKerningGroup = P;
unicode = 0050;
},
{
glyphname = Thorn;
lastChange = "2016-08-19 17:05:53 +0000";
layers = (
{
layerId = UUID0;
paths = (
{
closed = 1;
nodes = (
"391 0 LINE",
"391 25 LINE",
"261 25 LINE",
"261 179 LINE",
"313 179 LINE SMOOTH",
"528 179 OFFCURVE",
"658 264 OFFCURVE",
"658 389 CURVE SMOOTH",
"658 506 OFFCURVE",
"546 591 OFFCURVE",
"403 591 CURVE SMOOTH",
"261 591 LINE",
"261 728 LINE",
"391 728 LINE",
"391 753 LINE",
"17 753 LINE",
"17 728 LINE",
"127 728 LINE",
"127 25 LINE",
"17 25 LINE",
"17 0 LINE"
);
},
{
closed = 1;
nodes = (
"261 566 LINE",
"363 566 LINE SMOOTH",
"456 566 OFFCURVE",
"503 537 OFFCURVE",
"503 395 CURVE SMOOTH",
"503 242 OFFCURVE",
"449 209 OFFCURVE",
"313 209 CURVE SMOOTH",
"261 209 LINE"
);
}
);
width = 680;
},
{
layerId = "3AE1663F-34E8-4710-91A2-69F84C961E5F";
paths = (
{
closed = 1;
nodes = (
"391 0 LINE",
"391 30 LINE",
"273 30 LINE",
"273 181 LINE",
"350 181 LINE SMOOTH",
"565 181 OFFCURVE",
"695 266 OFFCURVE",
"695 391 CURVE SMOOTH",
"695 508 OFFCURVE",
"583 593 OFFCURVE",
"440 593 CURVE SMOOTH",
"273 593 LINE",
"273 724 LINE",
"391 724 LINE",
"391 754 LINE",
"20 754 LINE",
"20 724 LINE",
"115 724 LINE",
"115 30 LINE",
"20 30 LINE",
"20 0 LINE"
);
},
{
closed = 1;
nodes = (
"273 563 LINE",
"390 563 LINE SMOOTH",
"465 563 OFFCURVE",
"505 535 OFFCURVE",
"505 394 CURVE SMOOTH",
"505 244 OFFCURVE",
"460 211 OFFCURVE",
"350 211 CURVE SMOOTH",
"273 211 LINE"
);
}
);
width = 700;
}
);
unicode = 00DE;
},
{
glyphname = Q;
lastChange = "2016-08-22 11:52:33 +0000";
layers = (
{
anchors = (
{
name = bottom;
position = "{391, 0}";
},
{
name = top;
position = "{391, 754}";
}
);
background = {
paths = (
{
closed = 1;
nodes = (
"585 -12 OFFCURVE",
"738 169 OFFCURVE",
"738 377 CURVE SMOOTH",
"738 585 OFFCURVE",
"585 766 OFFCURVE",
"391 766 CURVE SMOOTH",
"197 766 OFFCURVE",
"45 585 OFFCURVE",
"45 377 CURVE SMOOTH",
"45 169 OFFCURVE",
"197 -12 OFFCURVE",
"391 -12 CURVE SMOOTH"
);
},
{
closed = 1;
nodes = (
"685 -226 LINE",
"548 -226 OFFCURVE",
"470 -195 OFFCURVE",
"470 -49 CURVE SMOOTH",
"470 -33 OFFCURVE",
"471 -12 OFFCURVE",
"473 7 CURVE",
"312 7 LINE",
"312 -192 OFFCURVE",
"409 -256 OFFCURVE",
"685 -256 CURVE"
);
},
{
closed = 1;
nodes = (
"255 18 OFFCURVE",
"205 91 OFFCURVE",
"205 377 CURVE SMOOTH",
"205 663 OFFCURVE",
"254 736 OFFCURVE",
"390 736 CURVE SMOOTH",
"526 736 OFFCURVE",
"578 664 OFFCURVE",
"578 378 CURVE SMOOTH",
"578 92 OFFCURVE",
"527 18 OFFCURVE",
"391 18 CURVE SMOOTH"
);
}
);
};
layerId = UUID0;
paths = (
{
closed = 1;
nodes = (
"585 -12 OFFCURVE",
"738 169 OFFCURVE",
"738 377 CURVE SMOOTH",
"738 585 OFFCURVE",
"585 766 OFFCURVE",
"391 766 CURVE SMOOTH",
"197 766 OFFCURVE",
"45 585 OFFCURVE",
"45 377 CURVE SMOOTH",
"45 169 OFFCURVE",
"197 -12 OFFCURVE",
"391 -12 CURVE SMOOTH"
);
},
{
closed = 1;
nodes = (
"685 -226 LINE",
"548 -226 OFFCURVE",
"470 -195 OFFCURVE",
"470 -49 CURVE SMOOTH",
"470 -33 OFFCURVE",
"471 -12 OFFCURVE",
"473 7 CURVE",
"312 7 LINE",
"312 -192 OFFCURVE",
"409 -256 OFFCURVE",
"685 -256 CURVE"
);
},
{
closed = 1;
nodes = (
"255 18 OFFCURVE",
"205 91 OFFCURVE",
"205 377 CURVE SMOOTH",
"205 663 OFFCURVE",
"254 736 OFFCURVE",
"390 736 CURVE SMOOTH",
"526 736 OFFCURVE",
"578 664 OFFCURVE",
"578 378 CURVE SMOOTH",
"578 92 OFFCURVE",
"527 18 OFFCURVE",
"391 18 CURVE SMOOTH"
);
}
);
width = 782;
},
{
anchors = (
{
name = bottom;
position = "{412, 0}";
},
{
name = top;
position = "{412, 754}";
}
);
background = {
paths = (
{
closed = 1;
nodes = (
"620 -13 OFFCURVE",
"783 173 OFFCURVE",
"783 378 CURVE SMOOTH",
"783 583 OFFCURVE",
"620 763 OFFCURVE",
"411 763 CURVE SMOOTH",
"202 763 OFFCURVE",
"40 583 OFFCURVE",
"40 378 CURVE SMOOTH",
"40 173 OFFCURVE",
"202 -13 OFFCURVE",
"411 -13 CURVE SMOOTH"
);
},
{
closed = 1;
nodes = (
"715 -201 LINE",
"583 -201 OFFCURVE",
"510 -175 OFFCURVE",
"510 -48 CURVE SMOOTH",
"510 -33 OFFCURVE",
"511 -12 OFFCURVE",
"513 7 CURVE",
"312 7 LINE",
"312 -176 OFFCURVE",
"418 -236 OFFCURVE",
"715 -236 CURVE"
);
},
{
closed = 1;
nodes = (
"278 22 OFFCURVE",
"230 88 OFFCURVE",
"230 378 CURVE SMOOTH",
"230 661 OFFCURVE",
"276 728 OFFCURVE",
"410 728 CURVE SMOOTH",
"545 728 OFFCURVE",
"593 660 OFFCURVE",
"593 376 CURVE SMOOTH",
"593 91 OFFCURVE",
"545 22 OFFCURVE",
"410 22 CURVE SMOOTH"
);
}
);
};
layerId = "3AE1663F-34E8-4710-91A2-69F84C961E5F";
paths = (
{
closed = 1;
nodes = (
"620 -13 OFFCURVE",
"783 173 OFFCURVE",
"783 378 CURVE SMOOTH",
"783 583 OFFCURVE",
"620 763 OFFCURVE",
"411 763 CURVE SMOOTH",
"202 763 OFFCURVE",
"40 583 OFFCURVE",
"40 378 CURVE SMOOTH",
"40 173 OFFCURVE",
"202 -13 OFFCURVE",
"411 -13 CURVE SMOOTH"
);
},
{
closed = 1;
nodes = (
"715 -201 LINE",
"583 -201 OFFCURVE",
"510 -175 OFFCURVE",
"510 -48 CURVE SMOOTH",
"510 -33 OFFCURVE",
"511 -12 OFFCURVE",
"513 7 CURVE",
"312 7 LINE",
"312 -176 OFFCURVE",
"418 -236 OFFCURVE",
"715 -236 CURVE"
);
},
{
closed = 1;
nodes = (
"278 22 OFFCURVE",
"230 88 OFFCURVE",
"230 378 CURVE SMOOTH",
"230 661 OFFCURVE",
"276 728 OFFCURVE",
"410 728 CURVE SMOOTH",
"545 728 OFFCURVE",
"593 660 OFFCURVE",
"593 376 CURVE SMOOTH",
"593 91 OFFCURVE",
"545 22 OFFCURVE",
"410 22 CURVE SMOOTH"
);
}
);
width = 823;
}
);
leftKerningGroup = O;
unicode = 0051;
},
{
glyphname = R;
lastChange = "2016-08-22 11:52:33 +0000";
layers = (
{
anchors = (
{
name = bottom;
position = "{346, 0}";
},
{
name = top;
position = "{346, 754}";
}
);
background = {
paths = (
{
closed = 1;
nodes = (
"123 15 LINE",
"257 15 LINE",
"257 754 LINE",
"123 754 LINE"
);
},
{
closed = 1;
nodes = (
"13 754 LINE",
"13 729 LINE",
"359 729 LINE SMOOTH",
"440 729 OFFCURVE",
"479 706 OFFCURVE",
"479 585 CURVE SMOOTH",
"479 447 OFFCURVE",
"429 417 OFFCURVE",
"309 417 CURVE SMOOTH",
"226 417 LINE",
"226 387 LINE",
"309 387 LINE SMOOTH",
"513 387 OFFCURVE",
"634 466 OFFCURVE",
"634 582 CURVE SMOOTH",
"634 691 OFFCURVE",
"529 754 OFFCURVE",
"399 754 CURVE SMOOTH"
);
},
{
closed = 1;
nodes = (
"13 0 LINE",
"387 0 LINE",
"387 25 LINE",
"13 25 LINE"
);
},
{
closed = 1;
nodes = (
"711 0 LINE",
"711 25 LINE",
"673 25 LINE SMOOTH",
"621 25 OFFCURVE",
"604 52 OFFCURVE",
"604 144 CURVE SMOOTH",
"604 196 LINE SMOOTH",
"604 291 OFFCURVE",
"515 374 OFFCURVE",
"430 394 CURVE",
"430 398 LINE",
"393 398 LINE",
"317 387 LINE",
"395 387 OFFCURVE",
"451 337 OFFCURVE",
"455 232 CURVE SMOOTH",
"458 153 LINE SMOOTH",
"461 60 OFFCURVE",
"535 0 OFFCURVE",
"634 0 CURVE SMOOTH"
);
}
);
};
layerId = UUID0;
paths = (
{
closed = 1;
nodes = (
"309 387 LINE SMOOTH",
"513 387 OFFCURVE",
"634 466 OFFCURVE",
"634 582 CURVE SMOOTH",
"634 691 OFFCURVE",
"529 754 OFFCURVE",
"399 754 CURVE SMOOTH",
"13 754 LINE",
"13 729 LINE",
"359 729 LINE SMOOTH",
"440 729 OFFCURVE",
"479 706 OFFCURVE",
"479 585 CURVE SMOOTH",
"479 447 OFFCURVE",
"429 417 OFFCURVE",
"309 417 CURVE SMOOTH",
"226 417 LINE",
"226 387 LINE"
);
},
{
closed = 1;
nodes = (
"387 0 LINE",
"387 25 LINE",
"13 25 LINE",
"13 0 LINE"
);
},
{
closed = 1;
nodes = (
"257 15 LINE",
"257 754 LINE",
"123 754 LINE",
"123 15 LINE"
);
},
{
closed = 1;
nodes = (
"711 0 LINE",
"711 25 LINE",
"673 25 LINE SMOOTH",
"621 25 OFFCURVE",
"604 52 OFFCURVE",
"604 144 CURVE SMOOTH",
"604 196 LINE SMOOTH",
"604 291 OFFCURVE",
"515 374 OFFCURVE",
"430 394 CURVE",
"430 398 LINE",
"393 398 LINE",
"317 387 LINE",
"395 387 OFFCURVE",
"451 337 OFFCURVE",
"455 232 CURVE SMOOTH",
"458 153 LINE SMOOTH",
"461 60 OFFCURVE",
"535 0 OFFCURVE",
"634 0 CURVE SMOOTH"
);
}
);
width = 691;
},
{
anchors = (
{
name = bottom;
position = "{370, 0}";
},
{
name = top;
position = "{370, 754}";
}
);
background = {
paths = (
{
closed = 1;
nodes = (
"273 754 LINE",
"115 754 LINE",
"115 15 LINE",
"273 15 LINE"
);
},
{
closed = 1;
nodes = (
"350 392 LINE SMOOTH",
"553 392 OFFCURVE",
"675 459 OFFCURVE",
"675 582 CURVE SMOOTH",
"675 691 OFFCURVE",
"563 754 OFFCURVE",
"420 754 CURVE SMOOTH",
"20 754 LINE",
"20 724 LINE",
"370 724 LINE SMOOTH",
"445 724 OFFCURVE",
"485 700 OFFCURVE",
"485 575 CURVE SMOOTH",
"485 449 OFFCURVE",
"446 422 OFFCURVE",
"350 422 CURVE SMOOTH",
"267 422 LINE",
"267 392 LINE"
);
},
{
closed = 1;
nodes = (
"20 0 LINE",
"391 0 LINE",
"391 30 LINE",
"20 30 LINE"
);
},
{
closed = 1;
nodes = (
"755 0 LINE",
"755 32 LINE",
"717 32 LINE SMOOTH",
"665 32 OFFCURVE",
"648 59 OFFCURVE",
"648 151 CURVE SMOOTH",
"648 196 LINE SMOOTH",
"648 291 OFFCURVE",
"554 374 OFFCURVE",
"464 394 CURVE",
"464 398 LINE",
"397 398 LINE",
"321 392 LINE",
"396 392 OFFCURVE",
"448 351 OFFCURVE",
"452 262 CURVE SMOOTH",
"457 153 LINE SMOOTH",
"461 60 OFFCURVE",
"538 0 OFFCURVE",
"638 0 CURVE SMOOTH"
);
}
);
};
layerId = "3AE1663F-34E8-4710-91A2-69F84C961E5F";
paths = (
{
closed = 1;
nodes = (
"350 392 LINE SMOOTH",
"553 392 OFFCURVE",
"675 459 OFFCURVE",
"675 582 CURVE SMOOTH",
"675 691 OFFCURVE",
"563 754 OFFCURVE",
"420 754 CURVE SMOOTH",
"20 754 LINE",
"20 724 LINE",
"370 724 LINE SMOOTH",
"445 724 OFFCURVE",
"485 700 OFFCURVE",
"485 575 CURVE SMOOTH",
"485 449 OFFCURVE",
"446 422 OFFCURVE",
"350 422 CURVE SMOOTH",
"267 422 LINE",
"267 392 LINE"
);
},
{
closed = 1;
nodes = (
"391 0 LINE",
"391 30 LINE",
"20 30 LINE",
"20 0 LINE"
);
},
{
closed = 1;
nodes = (
"273 15 LINE",
"273 754 LINE",
"115 754 LINE",
"115 15 LINE"
);
},
{
closed = 1;
nodes = (
"755 0 LINE",
"755 32 LINE",
"717 32 LINE SMOOTH",
"665 32 OFFCURVE",
"648 59 OFFCURVE",
"648 151 CURVE SMOOTH",
"648 196 LINE SMOOTH",
"648 291 OFFCURVE",
"554 374 OFFCURVE",
"464 394 CURVE",
"464 398 LINE",
"397 398 LINE",
"321 392 LINE",
"396 392 OFFCURVE",
"448 351 OFFCURVE",
"452 262 CURVE SMOOTH",
"457 153 LINE SMOOTH",
"461 60 OFFCURVE",
"538 0 OFFCURVE",
"638 0 CURVE SMOOTH"
);
}
);
width = 740;
}
);
leftKerningGroup = P;
rightKerningGroup = R;
unicode = 0052;
},
{
glyphname = S;
lastChange = "2016-08-22 11:52:33 +0000";
layers = (
{
anchors = (
{
name = bottom;
position = "{287, 0}";
},
{
name = top;
position = "{287, 754}";
}
);
background = {
paths = (
{
closed = 1;
nodes = (
"115 47 LINE",
"164 8 OFFCURVE",
"211 -12 OFFCURVE",
"283 -12 CURVE SMOOTH",
"438 -12 OFFCURVE",
"524 81 OFFCURVE",
"524 232 CURVE SMOOTH",
"524 372 OFFCURVE",
"450 438 OFFCURVE",
"307 477 CURVE SMOOTH",
"204 505 OFFCURVE",
"139 526 OFFCURVE",
"139 608 CURVE SMOOTH",
"139 681 OFFCURVE",
"200 736 OFFCURVE",
"283 736 CURVE SMOOTH",
"374 736 OFFCURVE",
"437 675 OFFCURVE",
"469 549 CURVE",
"494 550 LINE",
"494 754 LINE",
"469 754 LINE",
"443 710 LINE",
"394 749 OFFCURVE",
"351 766 OFFCURVE",
"287 766 CURVE SMOOTH",
"169 766 OFFCURVE",
"60 688 OFFCURVE",
"60 543 CURVE SMOOTH",
"60 425 OFFCURVE",
"123 350 OFFCURVE",
"267 316 CURVE SMOOTH",
"383 289 OFFCURVE",
"450 251 OFFCURVE",
"450 165 CURVE SMOOTH",
"450 92 OFFCURVE",
"404 19 OFFCURVE",
"291 19 CURVE SMOOTH",
"163 19 OFFCURVE",
"104 114 OFFCURVE",
"80 210 CURVE",
"54 210 LINE",
"54 0 LINE",
"79 0 LINE"
);
}
);
};
layerId = UUID0;
paths = (
{
closed = 1;
nodes = (
"438 -12 OFFCURVE",
"524 81 OFFCURVE",
"524 232 CURVE SMOOTH",
"524 372 OFFCURVE",
"450 438 OFFCURVE",
"307 477 CURVE SMOOTH",
"204 505 OFFCURVE",
"129 526 OFFCURVE",
"129 608 CURVE SMOOTH",
"129 681 OFFCURVE",
"200 736 OFFCURVE",
"283 736 CURVE SMOOTH",
"374 736 OFFCURVE",
"437 675 OFFCURVE",
"469 549 CURVE",
"494 550 LINE",
"494 754 LINE",
"469 754 LINE",
"443 710 LINE",
"394 749 OFFCURVE",
"351 766 OFFCURVE",
"287 766 CURVE SMOOTH",
"169 766 OFFCURVE",
"60 688 OFFCURVE",
"60 543 CURVE SMOOTH",
"60 425 OFFCURVE",
"123 350 OFFCURVE",
"267 316 CURVE SMOOTH",
"383 289 OFFCURVE",
"460 251 OFFCURVE",
"460 165 CURVE SMOOTH",
"460 92 OFFCURVE",
"404 19 OFFCURVE",
"291 19 CURVE SMOOTH",
"163 19 OFFCURVE",
"104 114 OFFCURVE",
"80 210 CURVE",
"54 210 LINE",
"54 0 LINE",
"79 0 LINE",
"115 47 LINE",
"164 8 OFFCURVE",
"211 -12 OFFCURVE",
"283 -12 CURVE SMOOTH"
);
}
);
width = 574;
},
{
anchors = (
{
name = bottom;
position = "{285, 0}";
},
{
name = top;
position = "{285, 754}";
}
);
background = {
paths = (
{
closed = 1;
nodes = (
"231 763 OFFCURVE",
"212 759 OFFCURVE",
"198 755 CURVE SMOOTH",
"182 751 OFFCURVE",
"145 734 OFFCURVE",
"132 724 CURVE SMOOTH",
"118 713 OFFCURVE",
"90 687 OFFCURVE",
"82 676 CURVE SMOOTH",
"79 672 OFFCURVE",
"74 664 OFFCURVE",
"71 661 CURVE SMOOTH",
"59 649 OFFCURVE",
"46 616 OFFCURVE",
"38 583 CURVE SMOOTH",
"32 561 OFFCURVE",
"32 533 OFFCURVE",
"35 492 CURVE",
"38 470 OFFCURVE",
"39 465 OFFCURVE",
"44 450 CURVE SMOOTH",
"50 431 OFFCURVE",
"57 420 OFFCURVE",
"63 414 CURVE SMOOTH",
"66 411 OFFCURVE",
"69 406 OFFCURVE",
"72 401 CURVE SMOOTH",
"76 394 OFFCURVE",
"102 370 OFFCURVE",
"115 357 CURVE SMOOTH",
"124 349 OFFCURVE",
"159 331 OFFCURVE",
"178 323 CURVE SMOOTH",
"196 315 OFFCURVE",
"245 301 OFFCURVE",
"270 298 CURVE",
"270 298 OFFCURVE",
"291 295 OFFCURVE",
"291 293 CURVE",
"296 291 OFFCURVE",
"306 288 OFFCURVE",
"320 287 CURVE",
"335 283 OFFCURVE",
"349 279 OFFCURVE",
"355 276 CURVE SMOOTH",
"361 274 OFFCURVE",
"368 271 OFFCURVE",
"370 271 CURVE SMOOTH",
"374 271 OFFCURVE",
"400 258 OFFCURVE",
"411 251 CURVE SMOOTH",
"428 241 OFFCURVE",
"435 230 OFFCURVE",
"452 205 CURVE",
"458 193 OFFCURVE",
"458 191 OFFCURVE",
"458 167 CURVE",
"460 144 OFFCURVE",
"460 139 OFFCURVE",
"455 124 CURVE",
"450 104 OFFCURVE",
"440 89 OFFCURVE",
"422 67 CURVE",
"400 44 OFFCURVE",
"385 33 OFFCURVE",
"366 26 CURVE SMOOTH",
"339 16 OFFCURVE",
"331 14 OFFCURVE",
"300 13 CURVE SMOOTH",
"270 13 OFFCURVE",
"259 13 OFFCURVE",
"231 17 CURVE",
"223 20 OFFCURVE",
"196 33 OFFCURVE",
"195 36 CURVE",
"193 36 OFFCURVE",
"188 39 OFFCURVE",
"185 41 CURVE",
"159 51 OFFCURVE",
"127 80 OFFCURVE",
"99 121 CURVE SMOOTH",
"93 129 OFFCURVE",
"80 162 OFFCURVE",
"72 185 CURVE",
"68 200 OFFCURVE",
"66 204 OFFCURVE",
"59 207 CURVE SMOOTH",
"52 210 OFFCURVE",
"46 210 OFFCURVE",
"35 208 CURVE SMOOTH",
"30 207 OFFCURVE",
"27 204 OFFCURVE",
"26 199 CURVE",
"22 193 OFFCURVE",
"22 187 OFFCURVE",
"24 125 CURVE",
"24 66 OFFCURVE",
"24 56 OFFCURVE",
"24 38 CURVE",
"22 25 OFFCURVE",
"21 13 OFFCURVE",
"22 6 CURVE",
"22 -2 OFFCURVE",
"24 -5 OFFCURVE",
"29 -7 CURVE",
"35 -12 OFFCURVE",
"52 -12 OFFCURVE",
"62 -7 CURVE",
"62 -5 OFFCURVE",
"80 5 OFFCURVE",
"88 14 CURVE",
"101 25 OFFCURVE",
"113 33 OFFCURVE",
"113 33 CURVE",
"113 33 OFFCURVE",
"135 26 OFFCURVE",
"135 22 CURVE SMOOTH",
"135 14 OFFCURVE",
"159 8 OFFCURVE",
"159 6 CURVE",
"175 -5 OFFCURVE",
"212 -17 OFFCURVE",
"243 -22 CURVE SMOOTH",
"258 -25 OFFCURVE",
"308 -25 OFFCURVE",
"322 -24 CURVE",
"322 -22 OFFCURVE",
"344 -20 OFFCURVE",
"344 -20 CURVE",
"358 -17 OFFCURVE",
"388 -5 OFFCURVE",
"407 5 CURVE SMOOTH",
"458 31 OFFCURVE",
"503 83 OFFCURVE",
"523 136 CURVE SMOOTH",
"537 172 OFFCURVE",
"543 193 OFFCURVE",
"543 232 CURVE",
"546 278 OFFCURVE",
"541 307 OFFCURVE",
"524 349 CURVE SMOOTH",
"508 390 OFFCURVE",
"480 422 OFFCURVE",
"440 447 CURVE SMOOTH",
"430 453 OFFCURVE",
"419 462 OFFCURVE",
"416 464 CURVE SMOOTH",
"407 469 OFFCURVE",
"383 478 OFFCURVE",
"382 477 CURVE",
"382 477 OFFCURVE",
"375 478 OFFCURVE",
"366 481 CURVE SMOOTH",
"331 495 OFFCURVE",
"291 505 OFFCURVE",
"264 506 CURVE",
"258 508 OFFCURVE",
"248 510 OFFCURVE",
"243 511 CURVE",
"237 511 OFFCURVE",
"225 514 OFFCURVE",
"217 519 CURVE",
"193 523 OFFCURVE",
"175 528 OFFCURVE",
"167 533 CURVE SMOOTH",
"157 538 OFFCURVE",
"140 552 OFFCURVE",
"134 560 CURVE",
"118 575 OFFCURVE",
"112 603 OFFCURVE",
"115 629 CURVE",
"115 651 OFFCURVE",
"115 663 OFFCURVE",
"137 674 CURVE",
"142 680 OFFCURVE",
"148 685 OFFCURVE",
"148 687 CURVE SMOOTH",
"148 687 OFFCURVE",
"148 691 OFFCURVE",
"151 694 CURVE SMOOTH",
"157 701 OFFCURVE",
"174 709 OFFCURVE",
"190 713 CURVE SMOOTH",
"202 715 OFFCURVE",
"202 718 OFFCURVE",
"215 722 CURVE SMOOTH",
"225 726 OFFCURVE",
"230 726 OFFCURVE",
"262 727 CURVE SMOOTH",
"287 727 OFFCURVE",
"302 727 OFFCURVE",
"311 726 CURVE",
"326 722 OFFCURVE",
"359 705 OFFCURVE",
"370 697 CURVE SMOOTH",
"374 694 OFFCURVE",
"383 688 OFFCURVE",
"385 685 CURVE",
"391 682 OFFCURVE",
"395 677 OFFCURVE",
"397 674 CURVE",
"401 671 OFFCURVE",
"406 659 OFFCURVE",
"416 649 CURVE",
"431 626 OFFCURVE",
"440 605 OFFCURVE",
"450 578 CURVE",
"453 566 OFFCURVE",
"458 556 OFFCURVE",
"461 553 CURVE SMOOTH",
"465 547 OFFCURVE",
"465 547 OFFCURVE",
"480 547 CURVE SMOOTH",
"491 547 OFFCURVE",
"493 548 OFFCURVE",
"496 552 CURVE SMOOTH",
"499 556 OFFCURVE",
"499 556 OFFCURVE",
"498 610 CURVE SMOOTH",
"498 633 OFFCURVE",
"496 671 OFFCURVE",
"496 696 CURVE SMOOTH",
"496 740 LINE",
"491 745 LINE",
"488 746 OFFCURVE",
"485 749 OFFCURVE",
"475 746 CURVE",
"461 746 OFFCURVE",
"461 746 OFFCURVE",
"436 727 CURVE",
"432 722 OFFCURVE",
"424 717 OFFCURVE",
"422 715 CURVE",
"417 713 OFFCURVE",
"416 715 OFFCURVE",
"411 718 CURVE",
"410 722 OFFCURVE",
"407 724 OFFCURVE",
"405 724 CURVE SMOOTH",
"405 724 OFFCURVE",
"402 726 OFFCURVE",
"399 727 CURVE",
"397 729 OFFCURVE",
"394 730 OFFCURVE",
"392 730 CURVE SMOOTH",
"391 730 OFFCURVE",
"382 734 OFFCURVE",
"374 738 CURVE SMOOTH",
"349 752 OFFCURVE",
"329 759 OFFCURVE",
"306 762 CURVE SMOOTH",
"292 763 OFFCURVE",
"256 765 OFFCURVE",
"245 763 CURVE"
);
}
);
};
layerId = "3AE1663F-34E8-4710-91A2-69F84C961E5F";
paths = (
{
closed = 1;
nodes = (
"457 -13 OFFCURVE",
"544 80 OFFCURVE",
"544 237 CURVE SMOOTH",
"544 391 OFFCURVE",
"461 460 OFFCURVE",
"310 497 CURVE SMOOTH",
"231 516 OFFCURVE",
"120 531 OFFCURVE",
"120 617 CURVE SMOOTH",
"120 685 OFFCURVE",
"189 728 OFFCURVE",
"276 728 CURVE SMOOTH",
"371 728 OFFCURVE",
"435 677 OFFCURVE",
"474 550 CURVE",
"504 550 LINE",
"504 754 LINE",
"473 754 LINE",
"434 712 LINE",
"381 745 OFFCURVE",
"338 763 OFFCURVE",
"278 763 CURVE SMOOTH",
"155 763 OFFCURVE",
"43 690 OFFCURVE",
"43 537 CURVE SMOOTH",
"43 397 OFFCURVE",
"138 331 OFFCURVE",
"278 296 CURVE SMOOTH",
"356 276 OFFCURVE",
"465 264 OFFCURVE",
"465 159 CURVE SMOOTH",
"465 82 OFFCURVE",
"406 22 OFFCURVE",
"295 22 CURVE SMOOTH",
"159 22 OFFCURVE",
"89 111 OFFCURVE",
"66 210 CURVE",
"35 210 LINE",
"35 0 LINE",
"65 0 LINE",
"112 48 LINE",
"161 12 OFFCURVE",
"216 -13 OFFCURVE",
"298 -13 CURVE SMOOTH"
);
}
);
width = 569;
}
);
leftKerningGroup = S;
rightKerningGroup = S;
unicode = 0053;
},
{
glyphname = T;
lastChange = "2016-08-22 11:52:33 +0000";
layers = (
{
anchors = (
{
name = bottom;
position = "{353, 0}";
},
{
name = center;
position = "{353, 377}";
},
{
name = top;
position = "{353, 754}";
}
);
background = {
paths = (
{
closed = 1;
nodes = (
"677 754 LINE",
"29 754 LINE",
"29 509 LINE",
"64 509 LINE",
"66 623 OFFCURVE",
"120 724 OFFCURVE",
"214 729 CURVE",
"290 729 LINE",
"290 25 LINE",
"160 25 LINE",
"160 0 LINE",
"554 0 LINE",
"554 25 LINE",
"424 25 LINE",
"424 729 LINE",
"484 729 LINE SMOOTH",
"583 729 OFFCURVE",
"640 626 OFFCURVE",
"642 509 CURVE",
"677 509 LINE"
);
}
);
};
layerId = UUID0;
paths = (
{
closed = 1;
nodes = (
"554 0 LINE",
"554 25 LINE",
"424 25 LINE",
"424 729 LINE",
"484 729 LINE SMOOTH",
"583 729 OFFCURVE",
"640 626 OFFCURVE",
"642 509 CURVE",
"677 509 LINE",
"677 754 LINE",
"29 754 LINE",
"29 509 LINE",
"64 509 LINE",
"66 623 OFFCURVE",
"120 724 OFFCURVE",
"214 729 CURVE",
"290 729 LINE",
"290 25 LINE",
"160 25 LINE",
"160 0 LINE"
);
}
);
width = 705;
},
{
anchors = (
{
name = bottom;
position = "{362, 0}";
},
{
name = center;
position = "{362, 377}";
},
{
name = top;
position = "{362, 754}";
}
);
background = {
paths = (
{
closed = 1;
nodes = (
"158 0 LINE",
"559 0 LINE",
"559 30 LINE",
"441 30 LINE",
"441 724 LINE",
"491 724 LINE SMOOTH",
"602 724 OFFCURVE",
"667 623 OFFCURVE",
"669 509 CURVE",
"709 509 LINE",
"709 754 LINE",
"15 754 LINE",
"15 509 LINE",
"55 509 LINE",
"57 623 OFFCURVE",
"122 724 OFFCURVE",
"233 724 CURVE SMOOTH",
"283 724 LINE",
"283 30 LINE",
"158 30 LINE"
);
}
);
};
layerId = "3AE1663F-34E8-4710-91A2-69F84C961E5F";
paths = (
{
closed = 1;
nodes = (
"559 0 LINE",
"559 30 LINE",
"441 30 LINE",
"441 724 LINE",
"491 724 LINE SMOOTH",
"602 724 OFFCURVE",
"667 623 OFFCURVE",
"669 509 CURVE",
"709 509 LINE",
"709 754 LINE",
"15 754 LINE",
"15 509 LINE",
"55 509 LINE",
"57 623 OFFCURVE",
"122 724 OFFCURVE",
"233 724 CURVE SMOOTH",
"283 724 LINE",
"283 30 LINE",
"158 30 LINE",
"158 0 LINE"
);
}
);
width = 724;
}
);
leftKerningGroup = T;
rightKerningGroup = T;
unicode = 0054;
},
{
glyphname = U;
lastChange = "2022-03-23 16:32:33 +0000";
layers = (
{
anchors = (
{
name = bottom;
position = "{369, 0}";
},
{
name = ogonek;
position = "{663, 10}";
},
{
name = top;
position = "{399, 754}";
},
{
name = topright;
position = "{680, 701}";
}
);
background = {
paths = (
{
closed = 1;
nodes = (
"10 729 LINE",
"127 729 LINE",
"127 194 LINE SMOOTH",
"127 53 OFFCURVE",
"231 -13 OFFCURVE",
"391 -13 CURVE SMOOTH",
"549 -13 OFFCURVE",
"629 52 OFFCURVE",
"629 195 CURVE SMOOTH",
"629 729 LINE",
"734 729 LINE",
"734 754 LINE",
"491 754 LINE",
"491 729 LINE",
"596 729 LINE",
"596 195 LINE SMOOTH",
"596 79 OFFCURVE",
"529 22 OFFCURVE",
"422 22 CURVE SMOOTH",
"322 22 OFFCURVE",
"261 71 OFFCURVE",
"261 195 CURVE SMOOTH",
"261 729 LINE",
"356 729 LINE",
"356 754 LINE",
"10 754 LINE"
);
}
);
};
layerId = UUID0;
paths = (
{
closed = 1;
nodes = (
"545 -12 OFFCURVE",
"625 53 OFFCURVE",
"625 196 CURVE SMOOTH",
"625 729 LINE",
"730 729 LINE",
"730 754 LINE",
"487 754 LINE",
"487 729 LINE",
"592 729 LINE",
"592 196 LINE SMOOTH",
"592 80 OFFCURVE",
"525 23 OFFCURVE",
"418 23 CURVE SMOOTH",
"318 23 OFFCURVE",
"257 72 OFFCURVE",
"257 196 CURVE SMOOTH",
"257 729 LINE",
"352 729 LINE",
"352 754 LINE",
"6 754 LINE",
"6 729 LINE",
"123 729 LINE",
"123 195 LINE SMOOTH",
"123 54 OFFCURVE",
"227 -12 OFFCURVE",
"387 -12 CURVE SMOOTH"
);
}
);
width = 737;
},
{
anchors = (
{
name = bottom;
position = "{387, 0}";
},
{
name = ogonek;
position = "{697, 10}";
},
{
name = top;
position = "{387, 754}";
},
{
name = topright;
position = "{605, 700}";
}
);
background = {
paths = (
{
closed = 1;
nodes = (
"22 746 OFFCURVE",
"21 738 OFFCURVE",
"24 729 CURVE",
"26 719 OFFCURVE",
"30 719 OFFCURVE",
"68 719 CURVE",
"107 721 OFFCURVE",
"115 719 OFFCURVE",
"119 714 CURVE",
"119 711 OFFCURVE",
"121 674 OFFCURVE",
"121 633 CURVE SMOOTH",
"121 589 OFFCURVE",
"121 555 OFFCURVE",
"121 552 CURVE SMOOTH",
"121 550 OFFCURVE",
"121 522 OFFCURVE",
"121 489 CURVE SMOOTH",
"119 388 OFFCURVE",
"118 258 OFFCURVE",
"118 239 CURVE SMOOTH",
"118 203 OFFCURVE",
"121 147 OFFCURVE",
"122 143 CURVE",
"124 142 OFFCURVE",
"126 136 OFFCURVE",
"126 131 CURVE",
"132 108 OFFCURVE",
"148 75 OFFCURVE",
"160 64 CURVE",
"184 36 OFFCURVE",
"193 30 OFFCURVE",
"204 22 CURVE SMOOTH",
"210 17 OFFCURVE",
"217 14 OFFCURVE",
"218 14 CURVE SMOOTH",
"220 14 OFFCURVE",
"227 9 OFFCURVE",
"232 6 CURVE SMOOTH",
"253 -5 OFFCURVE",
"304 -19 OFFCURVE",
"338 -24 CURVE",
"366 -27 OFFCURVE",
"434 -27 OFFCURVE",
"471 -25 CURVE",
"507 -22 OFFCURVE",
"526 -17 OFFCURVE",
"555 -5 CURVE",
"596 14 OFFCURVE",
"617 31 OFFCURVE",
"645 75 CURVE SMOOTH",
"667 108 OFFCURVE",
"680 145 OFFCURVE",
"680 213 CURVE",
"682 247 OFFCURVE",
"682 397 OFFCURVE",
"682 602 CURVE SMOOTH",
"682 686 OFFCURVE",
"682 692 OFFCURVE",
"690 700 CURVE",
"700 714 OFFCURVE",
"706 714 OFFCURVE",
"745 716 CURVE",
"778 716 LINE",
"784 721 LINE",
"793 732 OFFCURVE",
"785 752 OFFCURVE",
"768 752 CURVE SMOOTH",
"751 752 OFFCURVE",
"651 752 OFFCURVE",
"604 752 CURVE SMOOTH",
"552 752 LINE",
"546 747 LINE",
"542 741 OFFCURVE",
"540 729 OFFCURVE",
"545 722 CURVE",
"545 719 OFFCURVE",
"552 719 OFFCURVE",
"565 717 CURVE",
"590 716 OFFCURVE",
"615 713 OFFCURVE",
"620 711 CURVE SMOOTH",
"626 709 OFFCURVE",
"640 699 OFFCURVE",
"640 691 CURVE SMOOTH",
"640 684 OFFCURVE",
"640 606 OFFCURVE",
"640 586 CURVE SMOOTH",
"640 577 OFFCURVE",
"640 569 OFFCURVE",
"640 561 CURVE SMOOTH",
"640 547 OFFCURVE",
"640 464 OFFCURVE",
"640 431 CURVE",
"638 419 OFFCURVE",
"638 408 OFFCURVE",
"638 405 CURVE SMOOTH",
"638 401 OFFCURVE",
"638 391 OFFCURVE",
"638 381 CURVE SMOOTH",
"638 371 OFFCURVE",
"638 358 OFFCURVE",
"638 351 CURVE",
"640 334 OFFCURVE",
"640 283 OFFCURVE",
"642 276 CURVE",
"642 273 OFFCURVE",
"640 250 OFFCURVE",
"640 223 CURVE",
"637 176 OFFCURVE",
"637 173 OFFCURVE",
"626 128 CURVE SMOOTH",
"620 101 OFFCURVE",
"607 81 OFFCURVE",
"580 55 CURVE SMOOTH",
"565 40 OFFCURVE",
"554 33 OFFCURVE",
"521 25 CURVE",
"502 18 LINE",
"455 18 LINE SMOOTH",
"405 18 OFFCURVE",
"402 18 OFFCURVE",
"372 33 CURVE SMOOTH",
"347 45 OFFCURVE",
"342 50 OFFCURVE",
"322 81 CURVE SMOOTH",
"313 95 OFFCURVE",
"310 105 OFFCURVE",
"309 114 CURVE",
"307 120 OFFCURVE",
"307 130 OFFCURVE",
"305 136 CURVE",
"301 159 OFFCURVE",
"301 208 OFFCURVE",
"301 286 CURVE SMOOTH",
"302 373 OFFCURVE",
"302 505 OFFCURVE",
"302 627 CURVE",
"301 672 OFFCURVE",
"302 704 OFFCURVE",
"304 708 CURVE SMOOTH",
"308 717 OFFCURVE",
"314 717 OFFCURVE",
"352 716 CURVE",
"352 716 OFFCURVE",
"374 716 OFFCURVE",
"374 717 CURVE",
"396 717 OFFCURVE",
"396 719 OFFCURVE",
"396 722 CURVE SMOOTH",
"396 729 OFFCURVE",
"396 742 OFFCURVE",
"396 749 CURVE",
"390 752 LINE",
"342 752 LINE SMOOTH",
"315 752 OFFCURVE",
"280 752 OFFCURVE",
"262 752 CURVE SMOOTH",
"244 752 OFFCURVE",
"185 752 OFFCURVE",
"130 752 CURVE",
"36 754 OFFCURVE",
"32 754 OFFCURVE",
"29 750 CURVE"
);
},
{
closed = 1;
nodes = (
"230 467 OFFCURVE",
"230 467 OFFCURVE",
"227 467 CURVE SMOOTH",
"221 467 OFFCURVE",
"219 469 OFFCURVE",
"222 471 CURVE",
"226 472 OFFCURVE",
"227 472 OFFCURVE",
"229 469 CURVE SMOOTH"
);
}
);
};
layerId = "3AE1663F-34E8-4710-91A2-69F84C961E5F";
paths = (
{
closed = 1;
nodes = (
"574 -13 OFFCURVE",
"659 51 OFFCURVE",
"659 195 CURVE SMOOTH",
"659 724 LINE",
"764 724 LINE",
"764 754 LINE",
"526 754 LINE",
"526 724 LINE",
"621 724 LINE",
"621 200 LINE SMOOTH",
"621 84 OFFCURVE",
"553 27 OFFCURVE",
"441 27 CURVE SMOOTH",
"337 27 OFFCURVE",
"270 76 OFFCURVE",
"270 200 CURVE SMOOTH",
"270 724 LINE",
"376 724 LINE",
"376 754 LINE",
"15 754 LINE",
"15 724 LINE",
"112 724 LINE",
"112 194 LINE SMOOTH",
"112 53 OFFCURVE",
"229 -13 OFFCURVE",
"403 -13 CURVE SMOOTH"
);
}
);
width = 774;
}
);
leftKerningGroup = U;
rightKerningGroup = U;
unicode = 0055;
},
{
glyphname = Uhorn;
lastChange = "2016-08-22 12:18:08 +0000";
layers = (
{
anchors = (
{
name = bottom;
position = "{369, 0}";
},
{
name = ogonek;
position = "{663, 10}";
},
{
name = top;
position = "{369, 754}";
},
{
name = topright;
position = "{680, 701}";
}
);
components = (
{
name = horncomb;
transform = "{1, 0, 0, 1, 368, 251}";
}
);
layerId = UUID0;
paths = (
{
closed = 1;
nodes = (
"545 -12 OFFCURVE",
"625 53 OFFCURVE",
"625 196 CURVE SMOOTH",
"625 754 LINE",
"487 754 LINE",
"487 729 LINE",
"592 729 LINE",
"592 196 LINE SMOOTH",
"592 80 OFFCURVE",
"525 23 OFFCURVE",
"418 23 CURVE SMOOTH",
"318 23 OFFCURVE",
"257 72 OFFCURVE",
"257 196 CURVE SMOOTH",
"257 729 LINE",
"352 729 LINE",
"352 754 LINE",
"6 754 LINE",
"6 729 LINE",
"123 729 LINE",
"123 195 LINE SMOOTH",
"123 54 OFFCURVE",
"227 -12 OFFCURVE",
"387 -12 CURVE SMOOTH"
);
}
);
width = 737;
},
{
anchors = (
{
name = bottom;
position = "{387, 0}";
},
{
name = ogonek;
position = "{697, 10}";
},
{
name = top;
position = "{387, 754}";
},
{
name = topright;
position = "{605, 700}";
}
);
components = (
{
name = horncomb;
transform = "{1, 0, 0, 1, 406, 250}";
}
);
layerId = "3AE1663F-34E8-4710-91A2-69F84C961E5F";
paths = (
{
closed = 1;
nodes = (
"574 -13 OFFCURVE",
"659 51 OFFCURVE",
"659 195 CURVE SMOOTH",
"659 754 LINE",
"526 754 LINE",
"526 724 LINE",
"621 724 LINE",
"621 200 LINE SMOOTH",
"621 84 OFFCURVE",
"553 27 OFFCURVE",
"441 27 CURVE SMOOTH",
"337 27 OFFCURVE",
"270 76 OFFCURVE",
"270 200 CURVE SMOOTH",
"270 724 LINE",
"376 724 LINE",
"376 754 LINE",
"15 754 LINE",
"15 724 LINE",
"112 724 LINE",
"112 194 LINE SMOOTH",
"112 53 OFFCURVE",
"229 -13 OFFCURVE",
"403 -13 CURVE SMOOTH"
);
}
);
width = 774;
}
);
leftKerningGroup = U;
rightKerningGroup = U;
unicode = 01AF;
},
{
glyphname = V;
lastChange = "2016-08-22 11:52:33 +0000";
layers = (
{
anchors = (
{
name = bottom;
position = "{357, 0}";
},
{
name = top;
position = "{357, 754}";
}
);
background = {
paths = (
{
closed = 1;
nodes = (
"237 739 LINE",
"103 739 LINE",
"359 -9 LINE",
"389 -9 LINE",
"437 160 LINE",
"427 194 LINE",
"423 194 LINE"
);
},
{
closed = 1;
nodes = (
"357 754 LINE",
"10 754 LINE",
"10 729 LINE",
"357 729 LINE"
);
},
{
closed = 1;
nodes = (
"735 754 LINE",
"491 754 LINE",
"491 729 LINE",
"735 729 LINE"
);
},
{
closed = 1;
nodes = (
"417 165 LINE",
"359 -9 LINE",
"389 -9 LINE",
"645 739 LINE",
"612 739 LINE"
);
}
);
};
layerId = UUID0;
paths = (
{
closed = 1;
nodes = (
"373 -12 LINE",
"421 160 LINE",
"411 194 LINE",
"407 194 LINE",
"221 739 LINE",
"87 739 LINE",
"343 -12 LINE"
);
},
{
closed = 1;
nodes = (
"373 -12 LINE",
"629 739 LINE",
"596 739 LINE",
"401 165 LINE",
"343 -12 LINE"
);
},
{
closed = 1;
nodes = (
"341 729 LINE",
"341 754 LINE",
"-6 754 LINE",
"-6 729 LINE"
);
},
{
closed = 1;
nodes = (
"719 729 LINE",
"719 754 LINE",
"475 754 LINE",
"475 729 LINE"
);
}
);
width = 714;
},
{
anchors = (
{
name = bottom;
position = "{334, 0}";
},
{
name = top;
position = "{334, 754}";
}
);
background = {
paths = (
{
closed = 1;
nodes = (
"66 754 OFFCURVE",
"43 754 OFFCURVE",
"19 752 CURVE",
"-32 752 OFFCURVE",
"-32 752 OFFCURVE",
"-33 740 CURVE",
"-35 730 OFFCURVE",
"-33 724 OFFCURVE",
"-25 719 CURVE",
"-25 717 OFFCURVE",
"-25 717 OFFCURVE",
"-2 719 CURVE",
"16 722 OFFCURVE",
"39 722 OFFCURVE",
"41 719 CURVE SMOOTH",
"43 717 OFFCURVE",
"50 702 OFFCURVE",
"56 686 CURVE SMOOTH",
"62 671 OFFCURVE",
"70 655 OFFCURVE",
"73 652 CURVE",
"74 649 OFFCURVE",
"76 642 OFFCURVE",
"77 638 CURVE SMOOTH",
"77 635 OFFCURVE",
"84 621 OFFCURVE",
"90 606 CURVE",
"97 594 OFFCURVE",
"101 578 OFFCURVE",
"101 577 CURVE SMOOTH",
"101 575 OFFCURVE",
"103 572 OFFCURVE",
"105 569 CURVE SMOOTH",
"106 567 OFFCURVE",
"109 559 OFFCURVE",
"111 553 CURVE SMOOTH",
"113 546 OFFCURVE",
"119 532 OFFCURVE",
"123 522 CURVE",
"127 512 OFFCURVE",
"135 497 OFFCURVE",
"136 489 CURVE",
"139 481 OFFCURVE",
"142 473 OFFCURVE",
"144 470 CURVE SMOOTH",
"150 462 OFFCURVE",
"157 439 OFFCURVE",
"163 421 CURVE",
"185 393 OFFCURVE",
"185 380 OFFCURVE",
"185 369 CURVE",
"206 340 OFFCURVE",
"206 328 OFFCURVE",
"206 317 CURVE",
"209 309 OFFCURVE",
"215 291 OFFCURVE",
"220 278 CURVE",
"227 264 OFFCURVE",
"232 250 OFFCURVE",
"233 245 CURVE SMOOTH",
"235 240 OFFCURVE",
"236 234 OFFCURVE",
"239 231 CURVE SMOOTH",
"241 228 OFFCURVE",
"245 220 OFFCURVE",
"248 212 CURVE",
"248 195 OFFCURVE",
"269 166 OFFCURVE",
"269 158 CURVE",
"273 150 OFFCURVE",
"278 136 OFFCURVE",
"287 114 CURVE",
"288 106 OFFCURVE",
"292 98 OFFCURVE",
"295 93 CURVE SMOOTH",
"296 90 OFFCURVE",
"300 81 OFFCURVE",
"301 74 CURVE",
"305 61 OFFCURVE",
"311 37 OFFCURVE",
"320 26 CURVE",
"321 20 OFFCURVE",
"323 16 OFFCURVE",
"323 14 CURVE SMOOTH",
"323 9 OFFCURVE",
"332 -2 OFFCURVE",
"336 -5 CURVE",
"336 -7 OFFCURVE",
"357 -7 OFFCURVE",
"357 -4 CURVE",
"358 -4 OFFCURVE",
"360 1 OFFCURVE",
"361 3 CURVE",
"361 9 OFFCURVE",
"385 50 OFFCURVE",
"385 66 CURVE SMOOTH",
"385 74 OFFCURVE",
"402 117 OFFCURVE",
"410 144 CURVE",
"434 209 OFFCURVE",
"445 240 OFFCURVE",
"445 244 CURVE SMOOTH",
"445 245 OFFCURVE",
"448 255 OFFCURVE",
"451 263 CURVE SMOOTH",
"455 273 OFFCURVE",
"461 288 OFFCURVE",
"463 296 CURVE SMOOTH",
"466 304 OFFCURVE",
"471 318 OFFCURVE",
"474 325 CURVE SMOOTH",
"477 333 OFFCURVE",
"479 342 OFFCURVE",
"480 343 CURVE",
"480 345 OFFCURVE",
"483 353 OFFCURVE",
"485 359 CURVE SMOOTH",
"487 366 OFFCURVE",
"490 374 OFFCURVE",
"492 375 CURVE SMOOTH",
"494 378 OFFCURVE",
"496 385 OFFCURVE",
"497 391 CURVE SMOOTH",
"499 399 OFFCURVE",
"504 408 OFFCURVE",
"507 416 CURVE SMOOTH",
"515 442 OFFCURVE",
"520 455 OFFCURVE",
"523 462 CURVE",
"527 480 OFFCURVE",
"531 497 OFFCURVE",
"552 549 CURVE",
"556 559 OFFCURVE",
"561 572 OFFCURVE",
"564 582 CURVE SMOOTH",
"567 590 OFFCURVE",
"572 611 OFFCURVE",
"580 627 CURVE",
"586 644 OFFCURVE",
"592 662 OFFCURVE",
"593 668 CURVE",
"601 692 OFFCURVE",
"611 708 OFFCURVE",
"630 716 CURVE SMOOTH",
"638 719 OFFCURVE",
"641 719 OFFCURVE",
"664 719 CURVE",
"695 717 OFFCURVE",
"697 717 OFFCURVE",
"702 727 CURVE SMOOTH",
"707 735 OFFCURVE",
"705 746 OFFCURVE",
"697 749 CURVE SMOOTH",
"692 752 OFFCURVE",
"686 752 OFFCURVE",
"581 752 CURVE SMOOTH",
"471 752 LINE",
"467 748 LINE",
"467 743 OFFCURVE",
"467 732 OFFCURVE",
"467 727 CURVE",
"471 720 OFFCURVE",
"488 717 OFFCURVE",
"497 719 CURVE SMOOTH",
"503 720 OFFCURVE",
"510 720 OFFCURVE",
"523 719 CURVE SMOOTH",
"545 716 OFFCURVE",
"556 712 OFFCURVE",
"561 702 CURVE",
"564 694 OFFCURVE",
"564 692 OFFCURVE",
"562 681 CURVE SMOOTH",
"561 675 OFFCURVE",
"559 668 OFFCURVE",
"559 668 CURVE",
"557 667 OFFCURVE",
"554 659 OFFCURVE",
"552 651 CURVE",
"548 640 OFFCURVE",
"542 624 OFFCURVE",
"537 610 CURVE SMOOTH",
"532 597 OFFCURVE",
"523 570 OFFCURVE",
"516 553 CURVE",
"510 535 OFFCURVE",
"504 515 OFFCURVE",
"502 510 CURVE SMOOTH",
"492 489 OFFCURVE",
"472 432 OFFCURVE",
"469 419 CURVE",
"466 411 OFFCURVE",
"459 390 OFFCURVE",
"453 370 CURVE",
"450 364 OFFCURVE",
"448 358 OFFCURVE",
"448 353 CURVE",
"447 350 OFFCURVE",
"445 343 OFFCURVE",
"443 338 CURVE",
"440 333 OFFCURVE",
"437 323 OFFCURVE",
"434 315 CURVE",
"426 288 OFFCURVE",
"423 281 OFFCURVE",
"420 275 CURVE SMOOTH",
"415 264 OFFCURVE",
"410 264 OFFCURVE",
"407 273 CURVE",
"406 280 OFFCURVE",
"398 299 OFFCURVE",
"390 313 CURVE",
"388 320 OFFCURVE",
"383 331 OFFCURVE",
"380 342 CURVE SMOOTH",
"377 351 OFFCURVE",
"372 366 OFFCURVE",
"366 374 CURVE",
"363 382 OFFCURVE",
"360 391 OFFCURVE",
"360 393 CURVE SMOOTH",
"360 394 OFFCURVE",
"353 410 OFFCURVE",
"347 426 CURVE SMOOTH",
"341 442 OFFCURVE",
"334 464 OFFCURVE",
"331 470 CURVE SMOOTH",
"328 478 OFFCURVE",
"325 488 OFFCURVE",
"323 491 CURVE SMOOTH",
"321 494 OFFCURVE",
"320 500 OFFCURVE",
"318 505 CURVE",
"317 512 OFFCURVE",
"309 533 OFFCURVE",
"300 556 CURVE SMOOTH",
"298 561 OFFCURVE",
"293 572 OFFCURVE",
"288 584 CURVE SMOOTH",
"277 608 OFFCURVE",
"272 622 OFFCURVE",
"263 651 CURVE",
"258 662 OFFCURVE",
"253 676 OFFCURVE",
"252 683 CURVE",
"248 687 OFFCURVE",
"247 697 OFFCURVE",
"247 702 CURVE SMOOTH",
"247 716 OFFCURVE",
"252 717 OFFCURVE",
"274 717 CURVE SMOOTH",
"301 717 OFFCURVE",
"313 719 OFFCURVE",
"317 725 CURVE",
"317 732 OFFCURVE",
"317 740 OFFCURVE",
"317 746 CURVE",
"312 752 LINE",
"195 752 LINE SMOOTH",
"131 752 OFFCURVE",
"77 754 OFFCURVE",
"74 754 CURVE SMOOTH",
"73 754 OFFCURVE",
"69 754 OFFCURVE",
"68 754 CURVE"
);
}
);
};
layerId = "3AE1663F-34E8-4710-91A2-69F84C961E5F";
paths = (
{
closed = 1;
nodes = (
"347 -9 LINE",
"413 205 LINE",
"407 242 LINE",
"403 242 LINE",
"222 739 LINE",
"49 739 LINE",
"321 -9 LINE"
);
},
{
closed = 1;
nodes = (
"347 -9 LINE",
"622 739 LINE",
"589 739 LINE",
"373 150 LINE",
"321 -9 LINE"
);
},
{
closed = 1;
nodes = (
"307 724 LINE",
"307 754 LINE",
"-25 754 LINE",
"-25 724 LINE"
);
},
{
closed = 1;
nodes = (
"687 724 LINE",
"687 754 LINE",
"466 754 LINE",
"466 724 LINE"
);
}
);
width = 667;
}
);
unicode = 0056;
},
{
glyphname = W;
lastChange = "2016-08-22 11:52:33 +0000";
layers = (
{
anchors = (
{
name = bottom;
position = "{454, 0}";
},
{
name = top;
position = "{454, 754}";
}
);
background = {
paths = (
{
closed = 1;
nodes = (
"181 739 LINE",
"47 739 LINE",
"303 -12 LINE",
"333 -12 LINE",
"381 160 LINE",
"372 192 LINE",
"368 192 LINE"
);
},
{
closed = 1;
nodes = (
"673 754 LINE",
"-26 754 LINE",
"-26 729 LINE",
"673 729 LINE"
);
},
{
closed = 1;
nodes = (
"362 163 LINE",
"303 -12 LINE",
"333 -12 LINE",
"510 487 LINE",
"476 487 LINE"
);
},
{
closed = 1;
nodes = (
"451 739 LINE",
"317 739 LINE",
"573 -12 LINE",
"603 -12 LINE",
"651 160 LINE",
"644 189 LINE",
"640 189 LINE"
);
},
{
closed = 1;
nodes = (
"626 160 LINE",
"573 -12 LINE",
"603 -12 LINE",
"864 739 LINE",
"831 739 LINE"
);
},
{
closed = 1;
nodes = (
"932 754 LINE",
"724 754 LINE",
"724 729 LINE",
"932 729 LINE"
);
},
{
closed = 1;
nodes = (
"500 495 LINE",
"532 495 LINE",
"621 742 LINE",
"586 742 LINE"
);
}
);
};
layerId = UUID0;
paths = (
{
closed = 1;
nodes = (
"333 -12 LINE",
"455 333 LINE",
"573 -12 LINE",
"603 -12 LINE",
"860 729 LINE",
"932 729 LINE",
"932 754 LINE",
"724 754 LINE",
"724 729 LINE",
"827 729 LINE",
"640 192 LINE",
"636 192 LINE",
"533 499 LINE",
"616 729 LINE",
"673 729 LINE",
"673 754 LINE",
"-26 754 LINE",
"-26 729 LINE",
"50 729 LINE",
"303 -12 LINE"
);
},
{
closed = 1;
nodes = (
"184 729 LINE",
"320 729 LINE",
"439 381 LINE",
"372 192 LINE",
"368 192 LINE"
);
},
{
closed = 1;
nodes = (
"454 729 LINE",
"581 729 LINE",
"517 545 LINE"
);
}
);
width = 907;
},
{
anchors = (
{
name = bottom;
position = "{510, 0}";
},
{
name = top;
position = "{510, 754}";
}
);
background = {
paths = (
{
closed = 1;
nodes = (
"227 739 LINE",
"54 739 LINE",
"338 -9 LINE",
"364 -9 LINE",
"439 178 LINE",
"435 208 LINE",
"431 208 LINE"
);
},
{
closed = 1;
nodes = (
"770 754 LINE",
"-20 754 LINE",
"-20 724 LINE",
"770 724 LINE"
);
},
{
closed = 1;
nodes = (
"1039 754 LINE",
"818 754 LINE",
"818 724 LINE",
"1039 724 LINE"
);
},
{
closed = 1;
nodes = (
"708 150 LINE",
"656 -9 LINE",
"682 -9 LINE",
"957 739 LINE",
"924 739 LINE"
);
},
{
closed = 1;
nodes = (
"545 739 LINE",
"372 739 LINE",
"656 -9 LINE",
"682 -9 LINE",
"744 195 LINE",
"738 232 LINE",
"734 232 LINE"
);
},
{
closed = 1;
nodes = (
"410 150 LINE",
"358 -9 LINE",
"384 -9 LINE",
"547 393 LINE",
"514 393 LINE"
);
},
{
closed = 1;
nodes = (
"574 454 LINE",
"607 454 LINE",
"711 737 LINE",
"678 737 LINE"
);
}
);
};
layerId = "3AE1663F-34E8-4710-91A2-69F84C961E5F";
paths = (
{
closed = 1;
nodes = (
"384 -9 LINE",
"524 337 LINE",
"656 -9 LINE",
"682 -9 LINE",
"951 724 LINE",
"1039 724 LINE",
"1039 754 LINE",
"818 754 LINE",
"818 724 LINE",
"918 724 LINE",
"738 232 LINE",
"734 232 LINE",
"629 514 LINE",
"706 724 LINE",
"770 724 LINE",
"770 754 LINE",
"-20 754 LINE",
"-20 724 LINE",
"59 724 LINE",
"338 -9 LINE"
);
},
{
closed = 1;
nodes = (
"233 724 LINE",
"377 724 LINE",
"508 379 LINE",
"435 208 LINE",
"431 208 LINE"
);
},
{
closed = 1;
nodes = (
"550 724 LINE",
"673 724 LINE",
"612 558 LINE"
);
}
);
width = 1019;
}
);
leftKerningGroup = W;
rightKerningGroup = W;
unicode = 0057;
},
{
glyphname = X;
lastChange = "2016-08-22 11:52:33 +0000";
layers = (
{
anchors = (
{
name = bottom;
position = "{337, 0}";
},
{
name = top;
position = "{337, 754}";
}
);
background = {
paths = (
{
closed = 1;
nodes = (
"223 739 LINE",
"73 739 LINE",
"487 0 LINE",
"632 0 LINE"
);
},
{
closed = 1;
nodes = (
"337 754 LINE",
"-7 754 LINE",
"-7 729 LINE",
"337 729 LINE"
);
},
{
closed = 1;
nodes = (
"674 754 LINE",
"425 754 LINE",
"425 729 LINE",
"674 729 LINE"
);
},
{
closed = 1;
nodes = (
"337 400 LINE",
"374 400 LINE",
"584 739 LINE",
"551 739 LINE"
);
},
{
closed = 1;
nodes = (
"696 25 LINE",
"354 25 LINE",
"354 0 LINE",
"696 0 LINE"
);
},
{
closed = 1;
nodes = (
"240 25 LINE",
"-22 25 LINE",
"-22 0 LINE",
"240 0 LINE"
);
},
{
closed = 1;
nodes = (
"70 20 LINE",
"107 20 LINE",
"329 379 LINE",
"293 379 LINE"
);
}
);
};
layerId = UUID0;
paths = (
{
closed = 1;
nodes = (
"240 0 LINE",
"240 25 LINE",
"110 25 LINE",
"300 333 LINE",
"473 25 LINE",
"354 25 LINE",
"354 0 LINE",
"696 0 LINE",
"696 25 LINE",
"618 25 LINE",
"393 431 LINE",
"578 729 LINE",
"674 729 LINE",
"674 754 LINE",
"425 754 LINE",
"425 729 LINE",
"544 729 LINE",
"376 462 LINE",
"228 729 LINE",
"337 729 LINE",
"337 754 LINE",
"-7 754 LINE",
"-7 729 LINE",
"78 729 LINE",
"283 363 LINE",
"73 25 LINE",
"-22 25 LINE",
"-22 0 LINE"
);
}
);
width = 674;
},
{
anchors = (
{
name = bottom;
position = "{360, 0}";
},
{
name = top;
position = "{360, 754}";
}
);
background = {
paths = (
{
closed = 1;
nodes = (
"237 739 LINE",
"49 739 LINE",
"488 0 LINE",
"677 0 LINE"
);
},
{
closed = 1;
nodes = (
"347 754 LINE",
"-15 754 LINE",
"-15 724 LINE",
"347 724 LINE"
);
},
{
closed = 1;
nodes = (
"676 754 LINE",
"445 754 LINE",
"445 724 LINE",
"676 724 LINE"
);
},
{
closed = 1;
nodes = (
"312 356 LINE",
"345 350 LINE",
"597 739 LINE",
"561 739 LINE"
);
},
{
closed = 1;
nodes = (
"-11 0 LINE",
"240 0 LINE",
"240 30 LINE",
"-11 30 LINE"
);
},
{
closed = 1;
nodes = (
"363 398 LINE",
"330 404 LINE",
"78 15 LINE",
"114 15 LINE"
);
},
{
closed = 1;
nodes = (
"379 0 LINE",
"734 0 LINE",
"734 30 LINE",
"379 30 LINE"
);
}
);
};
layerId = "3AE1663F-34E8-4710-91A2-69F84C961E5F";
paths = (
{
closed = 1;
nodes = (
"240 0 LINE",
"240 30 LINE",
"124 30 LINE",
"304 308 LINE",
"470 30 LINE",
"379 30 LINE",
"379 0 LINE",
"734 0 LINE",
"734 30 LINE",
"659 30 LINE",
"409 449 LINE",
"587 724 LINE",
"676 724 LINE",
"676 754 LINE",
"445 754 LINE",
"445 724 LINE",
"551 724 LINE",
"392 479 LINE",
"246 724 LINE",
"347 724 LINE",
"347 754 LINE",
"-15 754 LINE",
"-15 724 LINE",
"58 724 LINE",
"287 338 LINE",
"87 30 LINE",
"-11 30 LINE",
"-11 0 LINE"
);
}
);
width = 719;
}
);
unicode = 0058;
},
{
glyphname = Y;
lastChange = "2016-08-22 09:54:01 +0000";
layers = (
{
anchors = (
{
name = bottom;
position = "{329, 0}";
},
{
name = top;
position = "{329, 754}";
},
{
name = topleft;
position = "{20, 754}";
}
);
background = {
paths = (
{
closed = 1;
nodes = (
"271 15 LINE",
"405 15 LINE",
"405 384 LINE",
"271 384 LINE"
);
},
{
closed = 1;
nodes = (
"151 0 LINE",
"525 0 LINE",
"525 25 LINE",
"151 25 LINE"
);
},
{
closed = 1;
nodes = (
"191 739 LINE",
"41 739 LINE",
"284 321 LINE",
"401 375 LINE",
"390 402 LINE",
"386 402 LINE"
);
},
{
closed = 1;
nodes = (
"305 754 LINE",
"-42 754 LINE",
"-42 729 LINE",
"305 729 LINE"
);
},
{
closed = 1;
nodes = (
"698 754 LINE",
"433 754 LINE",
"433 729 LINE",
"698 729 LINE"
);
},
{
closed = 1;
nodes = (
"360 347 LINE",
"397 347 LINE",
"608 739 LINE",
"575 739 LINE"
);
}
);
};
layerId = UUID0;
paths = (
{
closed = 1;
nodes = (
"525 0 LINE",
"525 25 LINE",
"405 25 LINE",
"405 362 LINE",
"602 729 LINE",
"698 729 LINE",
"698 754 LINE",
"433 754 LINE",
"433 729 LINE",
"569 729 LINE",
"390 402 LINE",
"386 402 LINE",
"197 729 LINE",
"305 729 LINE",
"305 754 LINE",
"-42 754 LINE",
"-42 729 LINE",
"47 729 LINE",
"271 343 LINE",
"271 25 LINE",
"151 25 LINE",
"151 0 LINE"
);
}
);
width = 657;
},
{
anchors = (
{
name = bottom;
position = "{383, 0}";
},
{
name = top;
position = "{383, 754}";
},
{
name = topleft;
position = "{20, 754}";
}
);
background = {
paths = (
{
closed = 1;
nodes = (
"317 15 LINE",
"475 15 LINE",
"475 384 LINE",
"317 384 LINE"
);
},
{
closed = 1;
nodes = (
"202 0 LINE",
"593 0 LINE",
"593 30 LINE",
"202 30 LINE"
);
},
{
closed = 1;
nodes = (
"267 739 LINE",
"69 739 LINE",
"375 234 LINE",
"406 234 LINE",
"472 368 LINE",
"468 403 LINE",
"464 403 LINE"
);
},
{
closed = 1;
nodes = (
"362 754 LINE",
"10 754 LINE",
"10 724 LINE",
"362 724 LINE"
);
},
{
closed = 1;
nodes = (
"756 754 LINE",
"521 754 LINE",
"521 724 LINE",
"756 724 LINE"
);
},
{
closed = 1;
nodes = (
"416 301 LINE",
"454 301 LINE",
"675 739 LINE",
"637 739 LINE"
);
}
);
};
layerId = "3AE1663F-34E8-4710-91A2-69F84C961E5F";
paths = (
{
closed = 1;
nodes = (
"593 0 LINE",
"593 30 LINE",
"475 30 LINE",
"475 342 LINE",
"667 724 LINE",
"756 724 LINE",
"756 754 LINE",
"521 754 LINE",
"521 724 LINE",
"629 724 LINE",
"468 403 LINE",
"464 403 LINE",
"276 724 LINE",
"362 724 LINE",
"362 754 LINE",
"10 754 LINE",
"10 724 LINE",
"78 724 LINE",
"317 329 LINE",
"317 30 LINE",
"202 30 LINE",
"202 0 LINE"
);
}
);
width = 766;
}
);
leftKerningGroup = Y;
rightKerningGroup = Y;
unicode = 0059;
},
{
glyphname = Z;
lastChange = "2016-08-22 11:52:33 +0000";
layers = (
{
anchors = (
{
name = bottom;
position = "{326, 0}";
},
{
name = top;
position = "{326, 754}";
}
);
background = {
paths = (
{
closed = 1;
nodes = (
"15 0 LINE",
"601 0 LINE",
"601 245 LINE",
"566 245 LINE",
"564 128 OFFCURVE",
"507 25 OFFCURVE",
"408 25 CURVE SMOOTH",
"15 25 LINE"
);
},
{
closed = 1;
nodes = (
"601 754 LINE",
"65 754 LINE",
"65 549 LINE",
"100 549 LINE",
"102 646 OFFCURVE",
"159 729 OFFCURVE",
"258 729 CURVE SMOOTH",
"601 729 LINE"
);
},
{
closed = 1;
nodes = (
"15 32 LINE",
"15 7 LINE",
"180 18 LINE",
"180 29 LINE",
"601 719 LINE",
"601 737 LINE",
"439 731 LINE",
"439 725 LINE"
);
}
);
};
layerId = UUID0;
paths = (
{
closed = 1;
nodes = (
"193 18 LINE",
"193 29 LINE",
"608 719 LINE",
"608 737 LINE",
"446 731 LINE",
"446 725 LINE",
"28 32 LINE",
"28 7 LINE"
);
},
{
closed = 1;
nodes = (
"608 0 LINE",
"608 245 LINE",
"573 245 LINE",
"571 128 OFFCURVE",
"514 25 OFFCURVE",
"415 25 CURVE SMOOTH",
"28 25 LINE",
"28 0 LINE"
);
},
{
closed = 1;
nodes = (
"103 549 LINE",
"105 646 OFFCURVE",
"162 729 OFFCURVE",
"261 729 CURVE SMOOTH",
"608 729 LINE",
"608 754 LINE",
"68 754 LINE",
"68 549 LINE"
);
}
);
width = 651;
},
{
anchors = (
{
name = bottom;
position = "{311, 0}";
},
{
name = top;
position = "{311, 754}";
}
);
background = {
paths = (
{
closed = 1;
nodes = (
"81 751 OFFCURVE",
"78 747 OFFCURVE",
"78 692 CURVE SMOOTH",
"78 658 OFFCURVE",
"76 638 OFFCURVE",
"72 581 CURVE",
"69 553 OFFCURVE",
"72 547 OFFCURVE",
"90 544 CURVE",
"97 542 OFFCURVE",
"100 544 OFFCURVE",
"103 547 CURVE SMOOTH",
"106 551 OFFCURVE",
"110 556 OFFCURVE",
"112 561 CURVE SMOOTH",
"114 567 OFFCURVE",
"117 576 OFFCURVE",
"118 581 CURVE SMOOTH",
"120 586 OFFCURVE",
"123 594 OFFCURVE",
"125 600 CURVE SMOOTH",
"134 621 OFFCURVE",
"143 638 OFFCURVE",
"151 648 CURVE SMOOTH",
"156 655 OFFCURVE",
"162 661 OFFCURVE",
"164 666 CURVE",
"169 673 OFFCURVE",
"184 684 OFFCURVE",
"193 691 CURVE",
"197 692 OFFCURVE",
"201 697 OFFCURVE",
"206 698 CURVE",
"216 708 OFFCURVE",
"234 714 OFFCURVE",
"254 717 CURVE",
"270 722 OFFCURVE",
"397 722 OFFCURVE",
"409 719 CURVE SMOOTH",
"415 717 OFFCURVE",
"415 716 OFFCURVE",
"417 711 CURVE",
"417 703 OFFCURVE",
"407 683 OFFCURVE",
"395 663 CURVE SMOOTH",
"392 658 OFFCURVE",
"387 650 OFFCURVE",
"385 644 CURVE SMOOTH",
"384 639 OFFCURVE",
"379 633 OFFCURVE",
"377 630 CURVE SMOOTH",
"373 626 OFFCURVE",
"367 616 OFFCURVE",
"362 606 CURVE SMOOTH",
"357 597 OFFCURVE",
"350 586 OFFCURVE",
"347 581 CURVE SMOOTH",
"340 571 OFFCURVE",
"323 541 OFFCURVE",
"315 526 CURVE",
"314 521 OFFCURVE",
"309 514 OFFCURVE",
"307 511 CURVE SMOOTH",
"304 506 OFFCURVE",
"300 501 OFFCURVE",
"300 500 CURVE SMOOTH",
"298 497 OFFCURVE",
"295 491 OFFCURVE",
"292 484 CURVE",
"287 478 OFFCURVE",
"276 459 OFFCURVE",
"270 444 CURVE SMOOTH",
"264 430 OFFCURVE",
"254 414 OFFCURVE",
"250 411 CURVE SMOOTH",
"247 408 OFFCURVE",
"243 400 OFFCURVE",
"242 396 CURVE SMOOTH",
"240 392 OFFCURVE",
"232 380 OFFCURVE",
"225 369 CURVE SMOOTH",
"214 350 OFFCURVE",
"197 324 OFFCURVE",
"189 308 CURVE SMOOTH",
"187 305 OFFCURVE",
"181 294 OFFCURVE",
"175 286 CURVE",
"170 275 OFFCURVE",
"165 266 OFFCURVE",
"162 261 CURVE SMOOTH",
"160 256 OFFCURVE",
"156 249 OFFCURVE",
"153 246 CURVE SMOOTH",
"150 242 OFFCURVE",
"148 238 OFFCURVE",
"147 236 CURVE",
"147 233 OFFCURVE",
"145 230 OFFCURVE",
"142 225 CURVE SMOOTH",
"137 217 OFFCURVE",
"120 189 OFFCURVE",
"120 186 CURVE SMOOTH",
"120 186 OFFCURVE",
"117 181 OFFCURVE",
"114 175 CURVE",
"110 171 OFFCURVE",
"103 163 OFFCURVE",
"100 156 CURVE SMOOTH",
"93 142 OFFCURVE",
"78 116 OFFCURVE",
"70 104 CURVE",
"67 97 OFFCURVE",
"59 86 OFFCURVE",
"53 77 CURVE SMOOTH",
"47 67 OFFCURVE",
"40 55 OFFCURVE",
"37 52 CURVE SMOOTH",
"23 36 OFFCURVE",
"18 14 OFFCURVE",
"25 2 CURVE",
"31 -4 OFFCURVE",
"39 -6 OFFCURVE",
"85 -4 CURVE SMOOTH",
"131 -3 OFFCURVE",
"209 -3 OFFCURVE",
"559 -6 CURVE SMOOTH",
"580 -6 OFFCURVE",
"602 -6 OFFCURVE",
"604 -4 CURVE",
"614 -3 OFFCURVE",
"616 2 OFFCURVE",
"618 52 CURVE",
"618 75 OFFCURVE",
"620 106 OFFCURVE",
"623 119 CURVE",
"626 155 OFFCURVE",
"626 167 OFFCURVE",
"627 191 CURVE SMOOTH",
"627 202 OFFCURVE",
"629 216 OFFCURVE",
"629 219 CURVE SMOOTH",
"632 236 OFFCURVE",
"623 246 OFFCURVE",
"604 242 CURVE",
"595 241 OFFCURVE",
"593 241 OFFCURVE",
"589 231 CURVE",
"585 225 OFFCURVE",
"582 216 OFFCURVE",
"581 211 CURVE SMOOTH",
"579 205 OFFCURVE",
"576 192 OFFCURVE",
"570 183 CURVE",
"567 172 OFFCURVE",
"562 161 OFFCURVE",
"560 158 CURVE",
"560 152 OFFCURVE",
"554 142 OFFCURVE",
"547 133 CURVE",
"542 124 OFFCURVE",
"535 114 OFFCURVE",
"534 111 CURVE SMOOTH",
"531 102 OFFCURVE",
"502 72 OFFCURVE",
"487 61 CURVE SMOOTH",
"465 44 OFFCURVE",
"435 33 OFFCURVE",
"409 29 CURVE SMOOTH",
"392 27 OFFCURVE",
"232 27 OFFCURVE",
"229 29 CURVE",
"226 29 OFFCURVE",
"226 33 OFFCURVE",
"226 34 CURVE SMOOTH",
"226 39 OFFCURVE",
"236 59 OFFCURVE",
"245 72 CURVE",
"253 86 OFFCURVE",
"266 106 OFFCURVE",
"284 139 CURVE",
"284 156 OFFCURVE",
"306 172 OFFCURVE",
"306 175 CURVE",
"315 186 OFFCURVE",
"343 234 OFFCURVE",
"347 247 CURVE SMOOTH",
"350 255 OFFCURVE",
"359 267 OFFCURVE",
"364 275 CURVE SMOOTH",
"369 284 OFFCURVE",
"378 296 OFFCURVE",
"381 300 CURVE",
"382 308 OFFCURVE",
"387 317 OFFCURVE",
"392 324 CURVE SMOOTH",
"395 330 OFFCURVE",
"398 336 OFFCURVE",
"398 338 CURVE SMOOTH",
"398 338 OFFCURVE",
"402 341 OFFCURVE",
"404 344 CURVE SMOOTH",
"407 347 OFFCURVE",
"410 355 OFFCURVE",
"414 361 CURVE",
"415 366 OFFCURVE",
"422 375 OFFCURVE",
"426 383 CURVE SMOOTH",
"430 389 OFFCURVE",
"435 399 OFFCURVE",
"439 405 CURVE",
"439 409 OFFCURVE",
"450 424 OFFCURVE",
"460 439 CURVE SMOOTH",
"480 471 OFFCURVE",
"483 481 OFFCURVE",
"493 494 CURVE",
"510 521 OFFCURVE",
"522 544 OFFCURVE",
"534 566 CURVE",
"539 578 OFFCURVE",
"546 589 OFFCURVE",
"549 592 CURVE SMOOTH",
"551 594 OFFCURVE",
"560 605 OFFCURVE",
"564 614 CURVE",
"575 626 OFFCURVE",
"585 641 OFFCURVE",
"585 650 CURVE",
"590 658 OFFCURVE",
"599 671 OFFCURVE",
"602 678 CURVE",
"607 684 OFFCURVE",
"615 697 OFFCURVE",
"618 703 CURVE",
"634 725 OFFCURVE",
"635 742 OFFCURVE",
"623 750 CURVE",
"615 753 OFFCURVE",
"585 756 OFFCURVE",
"570 753 CURVE",
"565 753 OFFCURVE",
"537 751 OFFCURVE",
"510 751 CURVE SMOOTH",
"456 751 OFFCURVE",
"201 753 OFFCURVE",
"143 753 CURVE",
"122 755 OFFCURVE",
"101 755 OFFCURVE",
"97 753 CURVE"
);
}
);
};
layerId = "3AE1663F-34E8-4710-91A2-69F84C961E5F";
paths = (
{
closed = 1;
nodes = (
"195 23 LINE",
"195 36 LINE",
"616 714 LINE",
"616 732 LINE",
"424 726 LINE",
"424 720 LINE",
"10 39 LINE",
"10 7 LINE"
);
},
{
closed = 1;
nodes = (
"606 0 LINE",
"606 245 LINE",
"566 245 LINE",
"564 133 OFFCURVE",
"491 32 OFFCURVE",
"368 32 CURVE SMOOTH",
"10 32 LINE",
"10 0 LINE"
);
},
{
closed = 1;
nodes = (
"100 549 LINE",
"102 643 OFFCURVE",
"171 724 OFFCURVE",
"288 724 CURVE SMOOTH",
"616 724 LINE",
"616 754 LINE",
"60 754 LINE",
"60 549 LINE"
);
}
);
width = 621;
}
);
leftKerningGroup = Z;
rightKerningGroup = Z;
unicode = 005A;
},
{
glyphname = a;
lastChange = "2016-08-22 09:54:01 +0000";
layers = (
{
anchors = (
{
name = bottom;
position = "{253, 0}";
},
{
name = ogonek;
position = "{455, 10}";
},
{
name = top;
position = "{253, 450}";
}
);
background = {
paths = (
{
closed = 1;
nodes = (
"292 146 LINE SMOOTH",
"292 77 OFFCURVE",
"252 43 OFFCURVE",
"207 43 CURVE SMOOTH",
"166 43 OFFCURVE",
"141 69 OFFCURVE",
"141 119 CURVE SMOOTH",
"141 184 OFFCURVE",
"183 227 OFFCURVE",
"292 227 CURVE"
);
},
{
closed = 1;
nodes = (
"266 421 OFFCURVE",
"292 404 OFFCURVE",
"292 372 CURVE SMOOTH",
"292 253 LINE",
"115 253 OFFCURVE",
"25 188 OFFCURVE",
"25 99 CURVE SMOOTH",
"25 30 OFFCURVE",
"78 -12 OFFCURVE",
"147 -12 CURVE SMOOTH",
"204 -12 OFFCURVE",
"266 17 OFFCURVE",
"292 62 CURVE",
"296 62 LINE",
"305 17 OFFCURVE",
"336 -12 OFFCURVE",
"383 -12 CURVE SMOOTH",
"418 -12 OFFCURVE",
"446 4 OFFCURVE",
"473 39 CURVE",
"459 55 LINE",
"443 38 OFFCURVE",
"434 32 OFFCURVE",
"425 32 CURVE SMOOTH",
"415 32 OFFCURVE",
"402 38 OFFCURVE",
"402 51 CURVE SMOOTH",
"402 355 LINE SMOOTH",
"402 412 OFFCURVE",
"339 452 OFFCURVE",
"240 452 CURVE SMOOTH",
"125 452 OFFCURVE",
"58 399 OFFCURVE",
"58 345 CURVE SMOOTH",
"58 317 OFFCURVE",
"77 294 OFFCURVE",
"110 294 CURVE SMOOTH",
"140 294 OFFCURVE",
"165 312 OFFCURVE",
"165 342 CURVE SMOOTH",
"165 364 OFFCURVE",
"151 371 OFFCURVE",
"151 385 CURVE SMOOTH",
"151 404 OFFCURVE",
"174 421 OFFCURVE",
"220 421 CURVE SMOOTH"
);
}
);
};
layerId = UUID0;
paths = (
{
closed = 1;
nodes = (
"222 -12 OFFCURVE",
"283 19 OFFCURVE",
"308 62 CURVE",
"312 62 LINE",
"322 15 OFFCURVE",
"353 -12 OFFCURVE",
"400 -12 CURVE SMOOTH",
"441 -12 OFFCURVE",
"473 9 OFFCURVE",
"505 55 CURVE",
"491 71 LINE",
"467 44 OFFCURVE",
"452 32 OFFCURVE",
"440 32 CURVE SMOOTH",
"428 32 OFFCURVE",
"418 42 OFFCURVE",
"418 55 CURVE SMOOTH",
"418 359 LINE SMOOTH",
"418 420 OFFCURVE",
"350 462 OFFCURVE",
"253 462 CURVE SMOOTH",
"151 462 OFFCURVE",
"72 415 OFFCURVE",
"72 355 CURVE SMOOTH",
"72 325 OFFCURVE",
"92 304 OFFCURVE",
"124 304 CURVE SMOOTH",
"156 304 OFFCURVE",
"179 324 OFFCURVE",
"179 352 CURVE SMOOTH",
"179 374 OFFCURVE",
"165 381 OFFCURVE",
"165 395 CURVE SMOOTH",
"165 416 OFFCURVE",
"193 431 OFFCURVE",
"233 431 CURVE SMOOTH",
"280 431 OFFCURVE",
"308 410 OFFCURVE",
"308 375 CURVE SMOOTH",
"308 253 LINE",
"143 253 OFFCURVE",
"41 195 OFFCURVE",
"41 100 CURVE SMOOTH",
"41 33 OFFCURVE",
"91 -12 OFFCURVE",
"163 -12 CURVE SMOOTH"
);
},
{
closed = 1;
nodes = (
"181 43 OFFCURVE",
"157 71 OFFCURVE",
"157 119 CURVE SMOOTH",
"157 190 OFFCURVE",
"208 227 OFFCURVE",
"308 227 CURVE",
"308 146 LINE SMOOTH",
"308 84 OFFCURVE",
"274 43 OFFCURVE",
"223 43 CURVE SMOOTH"
);
}
);
width = 506;
},
{
anchors = (
{
name = bottom;
position = "{271, 0}";
},
{
name = ogonek;
position = "{487, 10}";
},
{
name = top;
position = "{271, 450}";
}
);
background = {
paths = (
{
closed = 1;
nodes = (
"321 150 LINE SMOOTH",
"321 80 OFFCURVE",
"286 45 OFFCURVE",
"245 45 CURVE SMOOTH",
"208 45 OFFCURVE",
"187 76 OFFCURVE",
"187 124 CURVE SMOOTH",
"187 184 OFFCURVE",
"221 225 OFFCURVE",
"321 225 CURVE"
);
},
{
closed = 1;
nodes = (
"296 429 OFFCURVE",
"321 410 OFFCURVE",
"321 378 CURVE SMOOTH",
"321 256 LINE",
"131 256 OFFCURVE",
"42 190 OFFCURVE",
"42 102 CURVE SMOOTH",
"42 31 OFFCURVE",
"96 -13 OFFCURVE",
"171 -13 CURVE SMOOTH",
"231 -13 OFFCURVE",
"295 14 OFFCURVE",
"321 56 CURVE",
"325 56 LINE",
"335 14 OFFCURVE",
"371 -13 OFFCURVE",
"425 -13 CURVE SMOOTH",
"466 -13 OFFCURVE",
"506 3 OFFCURVE",
"536 44 CURVE",
"516 64 LINE",
"500 49 OFFCURVE",
"491 46 OFFCURVE",
"483 46 CURVE SMOOTH",
"472 46 OFFCURVE",
"459 52 OFFCURVE",
"459 76 CURVE SMOOTH",
"459 376 LINE SMOOTH",
"459 427 OFFCURVE",
"384 462 OFFCURVE",
"276 462 CURVE SMOOTH",
"139 462 OFFCURVE",
"74 405 OFFCURVE",
"74 343 CURVE SMOOTH",
"74 306 OFFCURVE",
"97 275 OFFCURVE",
"139 275 CURVE SMOOTH",
"179 275 OFFCURVE",
"209 302 OFFCURVE",
"209 340 CURVE SMOOTH",
"209 370 OFFCURVE",
"190 381 OFFCURVE",
"190 396 CURVE SMOOTH",
"190 416 OFFCURVE",
"221 429 OFFCURVE",
"254 429 CURVE SMOOTH"
);
}
);
};
layerId = "3AE1663F-34E8-4710-91A2-69F84C961E5F";
paths = (
{
closed = 1;
nodes = (
"245 -12 OFFCURVE",
"297 22 OFFCURVE",
"321 57 CURVE",
"325 57 LINE",
"335 15 OFFCURVE",
"366 -12 OFFCURVE",
"421 -12 CURVE SMOOTH",
"470 -12 OFFCURVE",
"508 9 OFFCURVE",
"546 55 CURVE",
"526 78 LINE",
"503 52 OFFCURVE",
"493 45 OFFCURVE",
"482 45 CURVE SMOOTH",
"468 45 OFFCURVE",
"459 56 OFFCURVE",
"459 68 CURVE SMOOTH",
"459 359 LINE SMOOTH",
"459 420 OFFCURVE",
"382 462 OFFCURVE",
"275 462 CURVE SMOOTH",
"158 462 OFFCURVE",
"73 411 OFFCURVE",
"73 343 CURVE SMOOTH",
"73 304 OFFCURVE",
"101 274 OFFCURVE",
"140 274 CURVE SMOOTH",
"179 274 OFFCURVE",
"210 305 OFFCURVE",
"210 340 CURVE SMOOTH",
"210 368 OFFCURVE",
"189 375 OFFCURVE",
"189 393 CURVE SMOOTH",
"189 414 OFFCURVE",
"217 429 OFFCURVE",
"252 429 CURVE SMOOTH",
"293 429 OFFCURVE",
"321 408 OFFCURVE",
"321 373 CURVE SMOOTH",
"321 256 LINE",
"152 256 OFFCURVE",
"42 197 OFFCURVE",
"42 101 CURVE SMOOTH",
"42 33 OFFCURVE",
"98 -12 OFFCURVE",
"177 -12 CURVE SMOOTH"
);
},
{
closed = 1;
nodes = (
"207 43 OFFCURVE",
"187 72 OFFCURVE",
"187 118 CURVE SMOOTH",
"187 189 OFFCURVE",
"235 225 OFFCURVE",
"321 225 CURVE",
"321 146 LINE SMOOTH",
"321 84 OFFCURVE",
"287 43 OFFCURVE",
"244 43 CURVE SMOOTH"
);
}
);
width = 541;
}
);
leftKerningGroup = a;
rightKerningGroup = a;
unicode = 0061;
},
{
glyphname = ae;
lastChange = "2016-08-19 17:05:53 +0000";
layers = (
{
background = {
paths = (
{
closed = 1;
nodes = (
"307 145 LINE SMOOTH",
"307 76 OFFCURVE",
"267 42 OFFCURVE",
"222 42 CURVE SMOOTH",
"181 42 OFFCURVE",
"156 69 OFFCURVE",
"156 119 CURVE SMOOTH",
"156 184 OFFCURVE",
"198 227 OFFCURVE",
"307 227 CURVE"
);
},
{
closed = 1;
nodes = (
"281 421 OFFCURVE",
"307 404 OFFCURVE",
"307 372 CURVE SMOOTH",
"307 253 LINE",
"129 253 OFFCURVE",
"40 187 OFFCURVE",
"40 97 CURVE SMOOTH",
"40 34 OFFCURVE",
"84 -13 OFFCURVE",
"167 -13 CURVE SMOOTH",
"226 -13 OFFCURVE",
"298 11 OFFCURVE",
"340 101 CURVE",
"344 101 LINE",
"417 50 LINE",
"417 355 LINE SMOOTH",
"417 412 OFFCURVE",
"354 451 OFFCURVE",
"255 451 CURVE SMOOTH",
"140 451 OFFCURVE",
"73 399 OFFCURVE",
"73 345 CURVE SMOOTH",
"73 317 OFFCURVE",
"92 294 OFFCURVE",
"125 294 CURVE SMOOTH",
"155 294 OFFCURVE",
"180 312 OFFCURVE",
"180 342 CURVE SMOOTH",
"180 364 OFFCURVE",
"166 371 OFFCURVE",
"166 385 CURVE SMOOTH",
"166 404 OFFCURVE",
"189 421 OFFCURVE",
"235 421 CURVE SMOOTH"
);
},
{
closed = 1;
nodes = (
"590 289 LINE",
"379 289 LINE",
"379 264 LINE",
"706 264 LINE",
"706 270 LINE SMOOTH",
"706 384 OFFCURVE",
"621 454 OFFCURVE",
"520 454 CURVE SMOOTH",
"390 454 OFFCURVE",
"312 339 OFFCURVE",
"312 224 CURVE SMOOTH",
"312 101 OFFCURVE",
"403 -13 OFFCURVE",
"523 -13 CURVE SMOOTH",
"605 -13 OFFCURVE",
"681 40 OFFCURVE",
"709 138 CURVE",
"681 138 LINE",
"645 49 OFFCURVE",
"593 17 OFFCURVE",
"523 17 CURVE SMOOTH",
"444 17 OFFCURVE",
"417 58 OFFCURVE",
"417 220 CURVE SMOOTH",
"417 378 OFFCURVE",
"443 427 OFFCURVE",
"510 427 CURVE SMOOTH",
"563 427 OFFCURVE",
"590 396 OFFCURVE",
"590 336 CURVE SMOOTH"
);
}
);
};
layerId = UUID0;
paths = (
{
closed = 1;
nodes = (
"613 -12 OFFCURVE",
"687 46 OFFCURVE",
"713 139 CURVE",
"685 139 LINE",
"650 52 OFFCURVE",
"598 18 OFFCURVE",
"528 18 CURVE SMOOTH",
"448 18 OFFCURVE",
"421 62 OFFCURVE",
"421 225 CURVE SMOOTH",
"421 384 OFFCURVE",
"447 435 OFFCURVE",
"514 435 CURVE SMOOTH",
"567 435 OFFCURVE",
"594 404 OFFCURVE",
"594 344 CURVE SMOOTH",
"594 287 LINE",
"383 287 LINE",
"383 262 LINE",
"710 262 LINE",
"710 268 LINE SMOOTH",
"710 382 OFFCURVE",
"626 462 OFFCURVE",
"521 462 CURVE SMOOTH",
"396 462 OFFCURVE",
"314 347 OFFCURVE",
"314 228 CURVE SMOOTH",
"314 102 OFFCURVE",
"407 -12 OFFCURVE",
"527 -12 CURVE SMOOTH"
);
},
{
closed = 1;
nodes = (
"184 43 OFFCURVE",
"160 71 OFFCURVE",
"160 119 CURVE SMOOTH",
"160 190 OFFCURVE",
"211 227 OFFCURVE",
"311 227 CURVE",
"311 146 LINE SMOOTH",
"311 84 OFFCURVE",
"277 43 OFFCURVE",
"226 43 CURVE SMOOTH"
);
},
{
closed = 1;
nodes = (
"245 -12 OFFCURVE",
"308 35 OFFCURVE",
"339 109 CURVE",
"343 109 LINE",
"421 55 LINE",
"421 359 LINE SMOOTH",
"421 420 OFFCURVE",
"353 462 OFFCURVE",
"256 462 CURVE SMOOTH",
"154 462 OFFCURVE",
"75 415 OFFCURVE",
"75 355 CURVE SMOOTH",
"75 325 OFFCURVE",
"95 304 OFFCURVE",
"127 304 CURVE SMOOTH",
"159 304 OFFCURVE",
"182 324 OFFCURVE",
"182 352 CURVE SMOOTH",
"182 374 OFFCURVE",
"168 381 OFFCURVE",
"168 395 CURVE SMOOTH",
"168 416 OFFCURVE",
"196 431 OFFCURVE",
"236 431 CURVE SMOOTH",
"283 431 OFFCURVE",
"311 410 OFFCURVE",
"311 375 CURVE SMOOTH",
"311 253 LINE",
"146 253 OFFCURVE",
"44 195 OFFCURVE",
"44 99 CURVE SMOOTH",
"44 33 OFFCURVE",
"93 -12 OFFCURVE",
"168 -12 CURVE SMOOTH"
);
}
);
width = 755;
},
{
background = {
paths = (
{
closed = 1;
nodes = (
"321 150 LINE SMOOTH",
"321 80 OFFCURVE",
"286 45 OFFCURVE",
"245 45 CURVE SMOOTH",
"208 45 OFFCURVE",
"187 74 OFFCURVE",
"187 119 CURVE SMOOTH",
"187 179 OFFCURVE",
"221 220 OFFCURVE",
"321 220 CURVE"
);
},
{
closed = 1;
nodes = (
"296 418 OFFCURVE",
"321 399 OFFCURVE",
"321 367 CURVE SMOOTH",
"321 251 LINE",
"131 251 OFFCURVE",
"42 185 OFFCURVE",
"42 97 CURVE SMOOTH",
"42 29 OFFCURVE",
"96 -13 OFFCURVE",
"171 -13 CURVE SMOOTH",
"231 -13 OFFCURVE",
"295 14 OFFCURVE",
"321 56 CURVE",
"325 56 LINE",
"459 76 LINE",
"459 365 LINE SMOOTH",
"459 416 OFFCURVE",
"384 451 OFFCURVE",
"276 451 CURVE SMOOTH",
"139 451 OFFCURVE",
"74 394 OFFCURVE",
"74 332 CURVE SMOOTH",
"74 295 OFFCURVE",
"97 264 OFFCURVE",
"139 264 CURVE SMOOTH",
"179 264 OFFCURVE",
"209 291 OFFCURVE",
"209 329 CURVE SMOOTH",
"209 360 OFFCURVE",
"190 370 OFFCURVE",
"190 385 CURVE SMOOTH",
"190 405 OFFCURVE",
"221 418 OFFCURVE",
"254 418 CURVE SMOOTH"
);
},
{
closed = 1;
nodes = (
"637 279 LINE",
"431 279 LINE",
"431 249 LINE",
"778 249 LINE",
"778 260 LINE SMOOTH",
"778 380 OFFCURVE",
"687 454 OFFCURVE",
"568 454 CURVE SMOOTH",
"419 454 OFFCURVE",
"324 338 OFFCURVE",
"324 224 CURVE SMOOTH",
"324 101 OFFCURVE",
"434 -13 OFFCURVE",
"574 -13 CURVE SMOOTH",
"674 -13 OFFCURVE",
"753 46 OFFCURVE",
"781 138 CURVE",
"748 138 LINE",
"709 53 OFFCURVE",
"649 22 OFFCURVE",
"579 22 CURVE SMOOTH",
"503 22 OFFCURVE",
"479 59 OFFCURVE",
"479 218 CURVE SMOOTH",
"479 373 OFFCURVE",
"502 422 OFFCURVE",
"566 422 CURVE SMOOTH",
"613 422 OFFCURVE",
"637 393 OFFCURVE",
"637 336 CURVE SMOOTH"
);
}
);
};
layerId = "3AE1663F-34E8-4710-91A2-69F84C961E5F";
paths = (
{
closed = 1;
nodes = (
"653 -13 OFFCURVE",
"735 49 OFFCURVE",
"761 138 CURVE",
"728 138 LINE",
"689 53 OFFCURVE",
"629 22 OFFCURVE",
"559 22 CURVE SMOOTH",
"483 22 OFFCURVE",
"459 60 OFFCURVE",
"459 222 CURVE SMOOTH",
"459 380 OFFCURVE",
"482 430 OFFCURVE",
"545 430 CURVE SMOOTH",
"593 430 OFFCURVE",
"617 401 OFFCURVE",
"617 344 CURVE SMOOTH",
"617 283 LINE",
"411 283 LINE",
"411 253 LINE",
"758 253 LINE",
"758 264 LINE SMOOTH",
"758 386 OFFCURVE",
"664 462 OFFCURVE",
"553 462 CURVE SMOOTH",
"414 462 OFFCURVE",
"334 343 OFFCURVE",
"334 228 CURVE SMOOTH",
"334 103 OFFCURVE",
"429 -13 OFFCURVE",
"558 -13 CURVE SMOOTH"
);
},
{
closed = 1;
nodes = (
"207 43 OFFCURVE",
"187 72 OFFCURVE",
"187 118 CURVE SMOOTH",
"187 189 OFFCURVE",
"235 225 OFFCURVE",
"321 225 CURVE",
"321 146 LINE SMOOTH",
"321 84 OFFCURVE",
"287 43 OFFCURVE",
"244 43 CURVE SMOOTH"
);
},
{
closed = 1;
nodes = (
"261 -12 OFFCURVE",
"332 30 OFFCURVE",
"357 115 CURVE",
"361 115 LINE",
"459 68 LINE",
"459 359 LINE SMOOTH",
"459 420 OFFCURVE",
"382 462 OFFCURVE",
"275 462 CURVE SMOOTH",
"158 462 OFFCURVE",
"73 411 OFFCURVE",
"73 343 CURVE SMOOTH",
"73 304 OFFCURVE",
"101 274 OFFCURVE",
"140 274 CURVE SMOOTH",
"179 274 OFFCURVE",
"210 305 OFFCURVE",
"210 340 CURVE SMOOTH",
"210 368 OFFCURVE",
"189 375 OFFCURVE",
"189 393 CURVE SMOOTH",
"189 414 OFFCURVE",
"217 429 OFFCURVE",
"252 429 CURVE SMOOTH",
"293 429 OFFCURVE",
"321 408 OFFCURVE",
"321 373 CURVE SMOOTH",
"321 256 LINE",
"152 256 OFFCURVE",
"42 197 OFFCURVE",
"42 101 CURVE SMOOTH",
"42 33 OFFCURVE",
"97 -12 OFFCURVE",
"180 -12 CURVE SMOOTH"
);
}
);
width = 796;
}
);
leftKerningGroup = a;
rightKerningGroup = e;
unicode = 00E6;
},
{
glyphname = b;
lastChange = "2016-08-22 11:52:33 +0000";
layers = (
{
anchors = (
{
name = bottom;
position = "{285, 0}";
},
{
name = top;
position = "{285, 450}";
}
);
background = {
paths = (
{
closed = 1;
nodes = (
"3 729 LINE",
"192 729 LINE",
"192 754 LINE",
"3 754 LINE"
);
},
{
closed = 1;
nodes = (
"82 15 LINE",
"192 15 LINE",
"192 738 LINE",
"82 738 LINE"
);
},
{
closed = 1;
nodes = (
"3 0 LINE",
"192 0 LINE",
"192 25 LINE",
"3 25 LINE"
);
},
{
closed = 1;
nodes = (
"245 22 OFFCURVE",
"192 88 OFFCURVE",
"192 213 CURVE",
"172 57 LINE",
"196 57 LINE",
"219 18 OFFCURVE",
"267 -13 OFFCURVE",
"322 -13 CURVE SMOOTH",
"422 -13 OFFCURVE",
"523 83 OFFCURVE",
"523 220 CURVE SMOOTH",
"523 352 OFFCURVE",
"429 454 OFFCURVE",
"324 454 CURVE SMOOTH",
"261 454 OFFCURVE",
"218 420 OFFCURVE",
"196 381 CURVE",
"172 381 LINE",
"192 234 LINE",
"192 366 OFFCURVE",
"247 419 OFFCURVE",
"317 419 CURVE SMOOTH",
"374 419 OFFCURVE",
"395 384 OFFCURVE",
"395 219 CURVE SMOOTH",
"395 62 OFFCURVE",
"376 22 OFFCURVE",
"319 22 CURVE SMOOTH"
);
}
);
};
layerId = UUID0;
paths = (
{
closed = 1;
nodes = (
"430 -12 OFFCURVE",
"524 83 OFFCURVE",
"524 225 CURVE SMOOTH",
"524 367 OFFCURVE",
"431 462 OFFCURVE",
"331 462 CURVE SMOOTH",
"269 462 OFFCURVE",
"219 432 OFFCURVE",
"197 392 CURVE",
"173 392 LINE",
"193 240 LINE",
"193 370 OFFCURVE",
"246 428 OFFCURVE",
"318 428 CURVE SMOOTH",
"374 428 OFFCURVE",
"396 389 OFFCURVE",
"396 224 CURVE SMOOTH",
"396 59 OFFCURVE",
"375 22 OFFCURVE",
"319 22 CURVE SMOOTH",
"247 22 OFFCURVE",
"193 80 OFFCURVE",
"193 210 CURVE",
"173 58 LINE",
"197 58 LINE",
"219 18 OFFCURVE",
"268 -12 OFFCURVE",
"330 -12 CURVE SMOOTH"
);
},
{
closed = 1;
nodes = (
"193 0 LINE",
"193 25 LINE",
"4 25 LINE",
"4 0 LINE"
);
},
{
closed = 1;
nodes = (
"193 15 LINE",
"193 738 LINE",
"83 738 LINE",
"83 15 LINE"
);
},
{
closed = 1;
nodes = (
"193 729 LINE",
"193 754 LINE",
"4 754 LINE",
"4 729 LINE"
);
}
);
width = 570;
},
{
anchors = (
{
name = bottom;
position = "{315, 0}";
},
{
name = top;
position = "{315, 450}";
}
);
background = {
paths = (
{
closed = 1;
nodes = (
"20 724 LINE",
"239 724 LINE",
"239 754 LINE",
"20 754 LINE"
);
},
{
closed = 1;
nodes = (
"101 15 LINE",
"239 15 LINE",
"239 738 LINE",
"101 738 LINE"
);
},
{
closed = 1;
nodes = (
"20 0 LINE",
"239 0 LINE",
"239 30 LINE",
"20 30 LINE"
);
},
{
closed = 1;
nodes = (
"413 414 OFFCURVE",
"430 372 OFFCURVE",
"430 223 CURVE SMOOTH",
"429 63 OFFCURVE",
"407 27 OFFCURVE",
"355 27 CURVE SMOOTH",
"286 27 OFFCURVE",
"238 92 OFFCURVE",
"238 217 CURVE",
"218 55 LINE",
"242 55 LINE",
"262 17 OFFCURVE",
"299 -13 OFFCURVE",
"363 -13 CURVE SMOOTH",
"478 -13 OFFCURVE",
"584 84 OFFCURVE",
"585 224 CURVE SMOOTH",
"585 362 OFFCURVE",
"485 454 OFFCURVE",
"377 454 CURVE SMOOTH",
"313 454 OFFCURVE",
"268 422 OFFCURVE",
"243 379 CURVE",
"219 379 LINE",
"238 218 LINE",
"239 346 OFFCURVE",
"288 414 OFFCURVE",
"358 414 CURVE SMOOTH"
);
}
);
};
layerId = "3AE1663F-34E8-4710-91A2-69F84C961E5F";
paths = (
{
closed = 1;
nodes = (
"486 -12 OFFCURVE",
"585 83 OFFCURVE",
"585 225 CURVE SMOOTH",
"585 367 OFFCURVE",
"487 462 OFFCURVE",
"377 462 CURVE SMOOTH",
"315 462 OFFCURVE",
"265 432 OFFCURVE",
"243 392 CURVE",
"219 392 LINE",
"239 240 LINE",
"239 364 OFFCURVE",
"287 423 OFFCURVE",
"353 423 CURVE SMOOTH",
"405 423 OFFCURVE",
"430 386 OFFCURVE",
"430 223 CURVE SMOOTH",
"430 63 OFFCURVE",
"406 27 OFFCURVE",
"354 27 CURVE SMOOTH",
"288 27 OFFCURVE",
"239 85 OFFCURVE",
"239 210 CURVE",
"219 58 LINE",
"243 58 LINE",
"265 18 OFFCURVE",
"314 -12 OFFCURVE",
"376 -12 CURVE SMOOTH"
);
},
{
closed = 1;
nodes = (
"239 0 LINE",
"239 30 LINE",
"20 30 LINE",
"20 0 LINE"
);
},
{
closed = 1;
nodes = (
"239 15 LINE",
"239 738 LINE",
"101 738 LINE",
"101 15 LINE"
);
},
{
closed = 1;
nodes = (
"239 724 LINE",
"239 754 LINE",
"20 754 LINE",
"20 724 LINE"
);
}
);
width = 630;
}
);
unicode = 0062;
},
{
glyphname = c;
lastChange = "2016-08-22 11:52:33 +0000";
layers = (
{
anchors = (
{
name = bottom;
position = "{253, 0}";
},
{
name = top;
position = "{253, 450}";
}
);
layerId = UUID0;
paths = (
{
closed = 1;
nodes = (
"377 -12 OFFCURVE",
"441 53 OFFCURVE",
"467 149 CURVE",
"439 149 LINE",
"403 54 OFFCURVE",
"357 18 OFFCURVE",
"284 18 CURVE SMOOTH",
"207 18 OFFCURVE",
"179 62 OFFCURVE",
"179 224 CURVE SMOOTH",
"179 395 OFFCURVE",
"210 435 OFFCURVE",
"288 435 CURVE SMOOTH",
"329 435 OFFCURVE",
"351 425 OFFCURVE",
"351 403 CURVE SMOOTH",
"351 379 OFFCURVE",
"327 375 OFFCURVE",
"327 341 CURVE SMOOTH",
"327 304 OFFCURVE",
"357 285 OFFCURVE",
"389 285 CURVE SMOOTH",
"424 285 OFFCURVE",
"449 309 OFFCURVE",
"449 348 CURVE SMOOTH",
"449 415 OFFCURVE",
"377 462 OFFCURVE",
"289 462 CURVE SMOOTH",
"150 462 OFFCURVE",
"49 343 OFFCURVE",
"49 226 CURVE SMOOTH",
"49 107 OFFCURVE",
"154 -12 OFFCURVE",
"281 -12 CURVE SMOOTH"
);
}
);
width = 505;
},
{
anchors = (
{
name = bottom;
position = "{260, 0}";
},
{
name = top;
position = "{260, 450}";
}
);
background = {
paths = (
{
closed = 1;
nodes = (
"332 422 OFFCURVE",
"347 414 OFFCURVE",
"347 398 CURVE SMOOTH",
"347 377 OFFCURVE",
"318 364 OFFCURVE",
"318 323 CURVE SMOOTH",
"318 282 OFFCURVE",
"347 257 OFFCURVE",
"390 257 CURVE SMOOTH",
"435 257 OFFCURVE",
"469 285 OFFCURVE",
"469 331 CURVE SMOOTH",
"469 403 OFFCURVE",
"388 454 OFFCURVE",
"293 454 CURVE SMOOTH",
"149 454 OFFCURVE",
"45 338 OFFCURVE",
"45 222 CURVE SMOOTH",
"45 102 OFFCURVE",
"155 -13 OFFCURVE",
"292 -13 CURVE SMOOTH",
"395 -13 OFFCURVE",
"463 52 OFFCURVE",
"490 148 CURVE",
"457 148 LINE",
"420 57 OFFCURVE",
"372 22 OFFCURVE",
"300 22 CURVE SMOOTH",
"224 22 OFFCURVE",
"200 61 OFFCURVE",
"200 215 CURVE SMOOTH",
"200 388 OFFCURVE",
"230 422 OFFCURVE",
"299 422 CURVE SMOOTH"
);
}
);
};
layerId = "3AE1663F-34E8-4710-91A2-69F84C961E5F";
paths = (
{
closed = 1;
nodes = (
"395 -13 OFFCURVE",
"463 52 OFFCURVE",
"490 148 CURVE",
"457 148 LINE",
"421 58 OFFCURVE",
"373 21 OFFCURVE",
"301 21 CURVE SMOOTH",
"226 21 OFFCURVE",
"200 61 OFFCURVE",
"200 210 CURVE SMOOTH",
"200 393 OFFCURVE",
"239 430 OFFCURVE",
"297 430 CURVE SMOOTH",
"328 430 OFFCURVE",
"347 419 OFFCURVE",
"347 399 CURVE SMOOTH",
"347 374 OFFCURVE",
"318 370 OFFCURVE",
"318 331 CURVE SMOOTH",
"318 291 OFFCURVE",
"347 265 OFFCURVE",
"390 265 CURVE SMOOTH",
"435 265 OFFCURVE",
"469 292 OFFCURVE",
"469 339 CURVE SMOOTH",
"469 411 OFFCURVE",
"388 462 OFFCURVE",
"293 462 CURVE SMOOTH",
"149 462 OFFCURVE",
"45 344 OFFCURVE",
"45 226 CURVE SMOOTH",
"45 104 OFFCURVE",
"155 -13 OFFCURVE",
"292 -13 CURVE SMOOTH"
);
}
);
width = 520;
}
);
leftKerningGroup = c;
rightKerningGroup = c;
unicode = 0063;
},
{
glyphname = d;
lastChange = "2016-08-22 11:52:33 +0000";
layers = (
{
anchors = (
{
name = bottom;
position = "{284, 0}";
},
{
name = center;
position = "{284, 225}";
},
{
name = top;
position = "{284, 450}";
},
{
name = topright;
position = "{548, 450}";
}
);
layerId = UUID0;
paths = (
{
closed = 1;
nodes = (
"304 -12 OFFCURVE",
"353 18 OFFCURVE",
"375 58 CURVE",
"399 58 LINE",
"379 210 LINE",
"379 80 OFFCURVE",
"325 22 OFFCURVE",
"253 22 CURVE SMOOTH",
"197 22 OFFCURVE",
"176 59 OFFCURVE",
"176 224 CURVE SMOOTH",
"176 389 OFFCURVE",
"198 428 OFFCURVE",
"254 428 CURVE SMOOTH",
"326 428 OFFCURVE",
"379 370 OFFCURVE",
"379 240 CURVE",
"399 392 LINE",
"375 392 LINE",
"353 432 OFFCURVE",
"303 462 OFFCURVE",
"241 462 CURVE SMOOTH",
"141 462 OFFCURVE",
"48 367 OFFCURVE",
"48 225 CURVE SMOOTH",
"48 83 OFFCURVE",
"142 -12 OFFCURVE",
"242 -12 CURVE SMOOTH"
);
},
{
closed = 1;
nodes = (
"557 0 LINE",
"557 25 LINE",
"379 25 LINE",
"379 0 LINE"
);
},
{
closed = 1;
nodes = (
"489 15 LINE",
"489 738 LINE",
"379 738 LINE",
"379 15 LINE"
);
},
{
closed = 1;
nodes = (
"489 729 LINE",
"489 754 LINE",
"280 754 LINE",
"280 729 LINE"
);
}
);
width = 568;
},
{
anchors = (
{
name = bottom;
position = "{316, 0}";
},
{
name = center;
position = "{316, 225}";
},
{
name = top;
position = "{316, 450}";
},
{
name = topright;
position = "{611, 450}";
}
);
background = {
paths = (
{
closed = 1;
nodes = (
"530 754 LINE",
"301 754 LINE",
"301 724 LINE",
"530 724 LINE"
);
},
{
closed = 1;
nodes = (
"530 738 LINE",
"392 738 LINE",
"392 15 LINE",
"530 15 LINE"
);
},
{
closed = 1;
nodes = (
"611 30 LINE",
"392 30 LINE",
"392 0 LINE",
"611 0 LINE"
);
},
{
closed = 1;
nodes = (
"218 27 OFFCURVE",
"200 69 OFFCURVE",
"200 213 CURVE SMOOTH",
"200 379 OFFCURVE",
"224 414 OFFCURVE",
"275 414 CURVE SMOOTH",
"344 414 OFFCURVE",
"392 349 OFFCURVE",
"392 224 CURVE",
"412 386 LINE",
"388 386 LINE",
"368 420 OFFCURVE",
"321 454 OFFCURVE",
"258 454 CURVE SMOOTH",
"150 454 OFFCURVE",
"45 354 OFFCURVE",
"45 216 CURVE SMOOTH",
"45 79 OFFCURVE",
"145 -13 OFFCURVE",
"253 -13 CURVE SMOOTH",
"317 -13 OFFCURVE",
"362 19 OFFCURVE",
"387 62 CURVE",
"411 62 LINE",
"392 223 LINE",
"391 95 OFFCURVE",
"342 27 OFFCURVE",
"272 27 CURVE SMOOTH"
);
}
);
};
layerId = "3AE1663F-34E8-4710-91A2-69F84C961E5F";
paths = (
{
closed = 1;
nodes = (
"317 -12 OFFCURVE",
"366 18 OFFCURVE",
"388 58 CURVE",
"412 58 LINE",
"392 210 LINE",
"392 83 OFFCURVE",
"342 27 OFFCURVE",
"276 27 CURVE SMOOTH",
"221 27 OFFCURVE",
"200 63 OFFCURVE",
"200 224 CURVE SMOOTH",
"200 385 OFFCURVE",
"222 423 OFFCURVE",
"277 423 CURVE SMOOTH",
"343 423 OFFCURVE",
"392 367 OFFCURVE",
"392 240 CURVE",
"412 392 LINE",
"388 392 LINE",
"366 432 OFFCURVE",
"316 462 OFFCURVE",
"254 462 CURVE SMOOTH",
"148 462 OFFCURVE",
"45 367 OFFCURVE",
"45 225 CURVE SMOOTH",
"45 83 OFFCURVE",
"149 -12 OFFCURVE",
"255 -12 CURVE SMOOTH"
);
},
{
closed = 1;
nodes = (
"611 0 LINE",
"611 30 LINE",
"392 30 LINE",
"392 0 LINE"
);
},
{
closed = 1;
nodes = (
"530 15 LINE",
"530 738 LINE",
"392 738 LINE",
"392 15 LINE"
);
},
{
closed = 1;
nodes = (
"530 724 LINE",
"530 754 LINE",
"293 754 LINE",
"293 724 LINE"
);
}
);
width = 631;
}
);
leftKerningGroup = d;
rightKerningGroup = d;
unicode = 0064;
},
{
glyphname = eth;
lastChange = "2016-08-19 17:05:53 +0000";
layers = (
{
background = {
paths = (
{
closed = 1;
nodes = (
"431 -13 OFFCURVE",
"544 103 OFFCURVE",
"544 297 CURVE SMOOTH",
"544 544 OFFCURVE",
"361 716 OFFCURVE",
"169 752 CURVE",
"160 725 LINE",
"330 683 OFFCURVE",
"392 576 OFFCURVE",
"392 416 CURVE",
"389 415 LINE",
"357 435 OFFCURVE",
"319 444 OFFCURVE",
"277 444 CURVE SMOOTH",
"139 444 OFFCURVE",
"27 345 OFFCURVE",
"27 219 CURVE SMOOTH",
"27 84 OFFCURVE",
"155 -13 OFFCURVE",
"287 -13 CURVE SMOOTH"
);
},
{
closed = 1;
nodes = (
"201 17 OFFCURVE",
"172 54 OFFCURVE",
"172 212 CURVE SMOOTH",
"172 375 OFFCURVE",
"203 414 OFFCURVE",
"275 414 CURVE SMOOTH",
"323 414 OFFCURVE",
"366 397 OFFCURVE",
"396 358 CURVE",
"404 307 OFFCURVE",
"406 245 OFFCURVE",
"406 201 CURVE SMOOTH",
"406 51 OFFCURVE",
"375 17 OFFCURVE",
"290 17 CURVE SMOOTH"
);
},
{
closed = 1;
nodes = (
"216 557 LINE",
"519 662 LINE",
"508 695 LINE",
"204 590 LINE"
);
}
);
};
layerId = UUID0;
paths = (
{
closed = 1;
nodes = (
"431 -13 OFFCURVE",
"544 103 OFFCURVE",
"544 297 CURVE SMOOTH",
"544 544 OFFCURVE",
"361 716 OFFCURVE",
"169 752 CURVE",
"160 725 LINE",
"330 683 OFFCURVE",
"392 576 OFFCURVE",
"392 416 CURVE",
"389 415 LINE",
"357 435 OFFCURVE",
"319 444 OFFCURVE",
"277 444 CURVE SMOOTH",
"139 444 OFFCURVE",
"27 345 OFFCURVE",
"27 219 CURVE SMOOTH",
"27 84 OFFCURVE",
"155 -13 OFFCURVE",
"287 -13 CURVE SMOOTH"
);
},
{
closed = 1;
nodes = (
"201 17 OFFCURVE",
"172 54 OFFCURVE",
"172 212 CURVE SMOOTH",
"172 375 OFFCURVE",
"203 414 OFFCURVE",
"275 414 CURVE SMOOTH",
"323 414 OFFCURVE",
"366 397 OFFCURVE",
"396 358 CURVE",
"404 307 OFFCURVE",
"406 245 OFFCURVE",
"406 201 CURVE SMOOTH",
"406 51 OFFCURVE",
"375 17 OFFCURVE",
"290 17 CURVE SMOOTH"
);
},
{
closed = 1;
nodes = (
"519 662 LINE",
"508 695 LINE",
"204 590 LINE",
"216 557 LINE"
);
}
);
width = 579;
},
{
background = {
paths = (
{
closed = 1;
nodes = (
"493 -11 OFFCURVE",
"622 107 OFFCURVE",
"622 301 CURVE SMOOTH",
"622 531 OFFCURVE",
"439 726 OFFCURVE",
"235 734 CURVE",
"225 705 LINE",
"341 687 OFFCURVE",
"425 578 OFFCURVE",
"435 413 CURVE",
"432 412 LINE",
"400 434 OFFCURVE",
"366 446 OFFCURVE",
"314 446 CURVE SMOOTH",
"184 446 OFFCURVE",
"65 357 OFFCURVE",
"65 235 CURVE SMOOTH",
"65 96 OFFCURVE",
"192 -11 OFFCURVE",
"339 -11 CURVE SMOOTH"
);
},
{
closed = 1;
nodes = (
"268 24 OFFCURVE",
"240 75 OFFCURVE",
"240 217 CURVE SMOOTH",
"240 374 OFFCURVE",
"282 406 OFFCURVE",
"338 406 CURVE SMOOTH",
"390 406 OFFCURVE",
"424 379 OFFCURVE",
"444 345 CURVE",
"454 305 OFFCURVE",
"454 257 OFFCURVE",
"454 223 CURVE SMOOTH",
"454 74 OFFCURVE",
"425 24 OFFCURVE",
"347 24 CURVE SMOOTH"
);
},
{
closed = 1;
nodes = (
"266 527 LINE",
"609 672 LINE",
"588 715 LINE",
"244 570 LINE"
);
}
);
};
layerId = "3AE1663F-34E8-4710-91A2-69F84C961E5F";
paths = (
{
closed = 1;
nodes = (
"493 -11 OFFCURVE",
"622 107 OFFCURVE",
"622 301 CURVE SMOOTH",
"622 531 OFFCURVE",
"439 726 OFFCURVE",
"235 734 CURVE",
"225 705 LINE",
"341 687 OFFCURVE",
"425 578 OFFCURVE",
"435 413 CURVE",
"432 412 LINE",
"400 434 OFFCURVE",
"366 446 OFFCURVE",
"314 446 CURVE SMOOTH",
"184 446 OFFCURVE",
"65 357 OFFCURVE",
"65 235 CURVE SMOOTH",
"65 96 OFFCURVE",
"192 -11 OFFCURVE",
"339 -11 CURVE SMOOTH"
);
},
{
closed = 1;
nodes = (
"268 24 OFFCURVE",
"240 75 OFFCURVE",
"240 217 CURVE SMOOTH",
"240 374 OFFCURVE",
"282 406 OFFCURVE",
"338 406 CURVE SMOOTH",
"390 406 OFFCURVE",
"424 379 OFFCURVE",
"444 345 CURVE",
"454 305 OFFCURVE",
"454 257 OFFCURVE",
"454 223 CURVE SMOOTH",
"454 74 OFFCURVE",
"425 24 OFFCURVE",
"347 24 CURVE SMOOTH"
);
},
{
closed = 1;
nodes = (
"609 672 LINE",
"588 715 LINE",
"244 570 LINE",
"266 527 LINE"
);
}
);
width = 692;
}
);
unicode = 00F0;
},
{
glyphname = dcroat;
lastChange = "2016-08-19 17:05:53 +0000";
layers = (
{
components = (
{
name = d;
}
);
layerId = UUID0;
paths = (
{
closed = 1;
nodes = (
"558 576 LINE",
"558 611 LINE",
"263 611 LINE",
"263 576 LINE"
);
}
);
width = 568;
},
{
components = (
{
name = d;
}
);
layerId = "3AE1663F-34E8-4710-91A2-69F84C961E5F";
paths = (
{
closed = 1;
nodes = (
"611 567 LINE",
"611 611 LINE",
"253 611 LINE",
"253 567 LINE"
);
}
);
width = 631;
}
);
leftKerningGroup = d;
unicode = 0111;
},
{
glyphname = e;
lastChange = "2016-08-22 09:54:01 +0000";
layers = (
{
anchors = (
{
name = bottom;
position = "{253, 0}";
},
{
name = ogonek;
position = "{454, 10}";
},
{
name = top;
position = "{253, 450}";
}
);
layerId = UUID0;
paths = (
{
closed = 1;
nodes = (
"365 -12 OFFCURVE",
"436 45 OFFCURVE",
"463 139 CURVE",
"435 139 LINE",
"399 50 OFFCURVE",
"347 18 OFFCURVE",
"277 18 CURVE SMOOTH",
"198 18 OFFCURVE",
"171 63 OFFCURVE",
"171 225 CURVE SMOOTH",
"171 383 OFFCURVE",
"197 435 OFFCURVE",
"264 435 CURVE SMOOTH",
"317 435 OFFCURVE",
"344 404 OFFCURVE",
"344 344 CURVE SMOOTH",
"344 287 LINE",
"133 287 LINE",
"133 262 LINE",
"460 262 LINE",
"460 268 LINE SMOOTH",
"460 382 OFFCURVE",
"377 462 OFFCURVE",
"269 462 CURVE SMOOTH",
"131 462 OFFCURVE",
"41 347 OFFCURVE",
"41 225 CURVE SMOOTH",
"41 103 OFFCURVE",
"145 -12 OFFCURVE",
"274 -12 CURVE SMOOTH"
);
}
);
width = 505;
},
{
anchors = (
{
name = bottom;
position = "{269, 0}";
},
{
name = ogonek;
position = "{483, 10}";
},
{
name = top;
position = "{269, 450}";
}
);
background = {
paths = (
{
closed = 1;
nodes = (
"358 279 LINE",
"152 279 LINE",
"152 249 LINE",
"499 249 LINE",
"499 260 LINE SMOOTH",
"499 380 OFFCURVE",
"408 454 OFFCURVE",
"289 454 CURVE SMOOTH",
"140 454 OFFCURVE",
"45 338 OFFCURVE",
"45 224 CURVE SMOOTH",
"45 101 OFFCURVE",
"155 -13 OFFCURVE",
"295 -13 CURVE SMOOTH",
"395 -13 OFFCURVE",
"474 46 OFFCURVE",
"502 138 CURVE",
"469 138 LINE",
"430 53 OFFCURVE",
"370 22 OFFCURVE",
"300 22 CURVE SMOOTH",
"224 22 OFFCURVE",
"200 59 OFFCURVE",
"200 218 CURVE SMOOTH",
"200 373 OFFCURVE",
"223 422 OFFCURVE",
"287 422 CURVE SMOOTH",
"334 422 OFFCURVE",
"358 393 OFFCURVE",
"358 336 CURVE SMOOTH"
);
}
);
};
layerId = "3AE1663F-34E8-4710-91A2-69F84C961E5F";
paths = (
{
closed = 1;
nodes = (
"395 -13 OFFCURVE",
"474 46 OFFCURVE",
"502 138 CURVE",
"469 138 LINE",
"430 53 OFFCURVE",
"370 22 OFFCURVE",
"300 22 CURVE SMOOTH",
"224 22 OFFCURVE",
"200 60 OFFCURVE",
"200 222 CURVE SMOOTH",
"200 380 OFFCURVE",
"223 430 OFFCURVE",
"286 430 CURVE SMOOTH",
"334 430 OFFCURVE",
"358 401 OFFCURVE",
"358 344 CURVE SMOOTH",
"358 283 LINE",
"152 283 LINE",
"152 253 LINE",
"499 253 LINE",
"499 264 LINE SMOOTH",
"499 386 OFFCURVE",
"408 462 OFFCURVE",
"289 462 CURVE SMOOTH",
"140 462 OFFCURVE",
"45 344 OFFCURVE",
"45 228 CURVE SMOOTH",
"45 103 OFFCURVE",
"155 -13 OFFCURVE",
"295 -13 CURVE SMOOTH"
);
}
);
width = 537;
}
);
leftKerningGroup = e;
rightKerningGroup = e;
unicode = 0065;
},
{
glyphname = schwa;
lastChange = "2016-08-19 17:05:53 +0000";
layers = (
{
background = {
paths = (
{
closed = 1;
nodes = (
"146 152 LINE",
"357 152 LINE",
"357 177 LINE",
"30 177 LINE",
"30 171 LINE SMOOTH",
"30 57 OFFCURVE",
"113 -13 OFFCURVE",
"221 -13 CURVE SMOOTH",
"359 -13 OFFCURVE",
"449 103 OFFCURVE",
"449 217 CURVE SMOOTH",
"449 340 OFFCURVE",
"347 454 OFFCURVE",
"221 454 CURVE SMOOTH",
"127 454 OFFCURVE",
"54 397 OFFCURVE",
"27 303 CURVE",
"55 303 LINE",
"92 392 OFFCURVE",
"146 424 OFFCURVE",
"218 424 CURVE SMOOTH",
"294 424 OFFCURVE",
"319 383 OFFCURVE",
"319 221 CURVE SMOOTH",
"319 63 OFFCURVE",
"293 14 OFFCURVE",
"226 14 CURVE SMOOTH",
"173 14 OFFCURVE",
"146 45 OFFCURVE",
"146 105 CURVE SMOOTH"
);
}
);
};
layerId = UUID0;
paths = (
{
closed = 1;
nodes = (
"374 -12 OFFCURVE",
"464 103 OFFCURVE",
"464 225 CURVE SMOOTH",
"464 347 OFFCURVE",
"360 462 OFFCURVE",
"231 462 CURVE SMOOTH",
"140 462 OFFCURVE",
"69 405 OFFCURVE",
"42 311 CURVE",
"70 311 LINE",
"106 400 OFFCURVE",
"158 432 OFFCURVE",
"228 432 CURVE SMOOTH",
"307 432 OFFCURVE",
"334 387 OFFCURVE",
"334 225 CURVE SMOOTH",
"334 67 OFFCURVE",
"308 15 OFFCURVE",
"241 15 CURVE SMOOTH",
"188 15 OFFCURVE",
"161 46 OFFCURVE",
"161 106 CURVE SMOOTH",
"161 163 LINE",
"372 163 LINE",
"372 188 LINE",
"45 188 LINE",
"45 182 LINE SMOOTH",
"45 68 OFFCURVE",
"128 -12 OFFCURVE",
"236 -12 CURVE SMOOTH"
);
}
);
width = 508;
},
{
layerId = "3AE1663F-34E8-4710-91A2-69F84C961E5F";
paths = (
{
closed = 1;
nodes = (
"397 -13 OFFCURVE",
"492 105 OFFCURVE",
"492 221 CURVE SMOOTH",
"492 346 OFFCURVE",
"382 462 OFFCURVE",
"242 462 CURVE SMOOTH",
"142 462 OFFCURVE",
"63 403 OFFCURVE",
"35 311 CURVE",
"68 311 LINE",
"107 396 OFFCURVE",
"167 427 OFFCURVE",
"237 427 CURVE SMOOTH",
"313 427 OFFCURVE",
"337 389 OFFCURVE",
"337 227 CURVE SMOOTH",
"337 69 OFFCURVE",
"314 19 OFFCURVE",
"251 19 CURVE SMOOTH",
"203 19 OFFCURVE",
"179 48 OFFCURVE",
"179 105 CURVE",
"179 166 LINE",
"385 166 LINE",
"385 196 LINE",
"38 196 LINE",
"38 185 LINE SMOOTH",
"38 63 OFFCURVE",
"129 -13 OFFCURVE",
"248 -13 CURVE SMOOTH"
);
}
);
width = 537;
}
);
unicode = 0259;
},
{
glyphname = f;
lastChange = "2016-08-22 11:52:33 +0000";
layers = (
{
anchors = (
{
name = bottom;
position = "{181, 0}";
},
{
name = top;
position = "{181, 450}";
}
);
background = {
paths = (
{
closed = 1;
nodes = (
"116 0 LINE",
"226 0 LINE",
"226 618 LINE SMOOTH",
"226 704 OFFCURVE",
"242 738 OFFCURVE",
"282 738 CURVE SMOOTH",
"298 738 OFFCURVE",
"305 733 OFFCURVE",
"305 721 CURVE SMOOTH",
"305 704 OFFCURVE",
"291 698 OFFCURVE",
"291 674 CURVE SMOOTH",
"291 646 OFFCURVE",
"311 627 OFFCURVE",
"341 627 CURVE SMOOTH",
"374 627 OFFCURVE",
"397 650 OFFCURVE",
"397 685 CURVE SMOOTH",
"397 733 OFFCURVE",
"355 765 OFFCURVE",
"287 765 CURVE SMOOTH",
"171 765 OFFCURVE",
"116 672 OFFCURVE",
"116 478 CURVE SMOOTH"
);
},
{
closed = 1;
nodes = (
"19 0 LINE",
"339 0 LINE",
"339 25 LINE",
"19 25 LINE"
);
},
{
closed = 1;
nodes = (
"19 425 LINE",
"349 425 LINE",
"349 450 LINE",
"19 450 LINE"
);
}
);
};
layerId = UUID0;
paths = (
{
closed = 1;
nodes = (
"226 0 LINE",
"226 618 LINE SMOOTH",
"226 704 OFFCURVE",
"242 738 OFFCURVE",
"282 738 CURVE SMOOTH",
"298 738 OFFCURVE",
"305 733 OFFCURVE",
"305 721 CURVE SMOOTH",
"305 704 OFFCURVE",
"291 698 OFFCURVE",
"291 674 CURVE SMOOTH",
"291 646 OFFCURVE",
"311 627 OFFCURVE",
"341 627 CURVE SMOOTH",
"374 627 OFFCURVE",
"397 650 OFFCURVE",
"397 685 CURVE SMOOTH",
"397 733 OFFCURVE",
"355 765 OFFCURVE",
"287 765 CURVE SMOOTH",
"171 765 OFFCURVE",
"116 672 OFFCURVE",
"116 478 CURVE SMOOTH",
"116 0 LINE"
);
},
{
closed = 1;
nodes = (
"339 0 LINE",
"339 25 LINE",
"19 25 LINE",
"19 0 LINE"
);
},
{
closed = 1;
nodes = (
"349 425 LINE",
"349 450 LINE",
"19 450 LINE",
"19 425 LINE"
);
}
);
width = 362;
},
{
anchors = (
{
name = bottom;
position = "{173, 0}";
},
{
name = top;
position = "{173, 450}";
}
);
background = {
paths = (
{
closed = 1;
nodes = (
"241 0 LINE",
"241 629 LINE SMOOTH",
"241 712 OFFCURVE",
"276 734 OFFCURVE",
"317 734 CURVE SMOOTH",
"340 734 OFFCURVE",
"350 727 OFFCURVE",
"350 715 CURVE SMOOTH",
"350 697 OFFCURVE",
"326 693 OFFCURVE",
"326 659 CURVE SMOOTH",
"326 621 OFFCURVE",
"355 603 OFFCURVE",
"387 603 CURVE SMOOTH",
"427 603 OFFCURVE",
"456 630 OFFCURVE",
"456 670 CURVE SMOOTH",
"456 722 OFFCURVE",
"405 766 OFFCURVE",
"323 766 CURVE SMOOTH",
"188 766 OFFCURVE",
"103 649 OFFCURVE",
"103 479 CURVE SMOOTH",
"103 0 LINE"
);
},
{
closed = 1;
nodes = (
"23 0 LINE",
"342 0 LINE",
"342 30 LINE",
"23 30 LINE"
);
},
{
closed = 1;
nodes = (
"20 410 LINE",
"349 410 LINE",
"349 440 LINE",
"20 440 LINE"
);
}
);
};
layerId = "3AE1663F-34E8-4710-91A2-69F84C961E5F";
paths = (
{
closed = 1;
nodes = (
"241 0 LINE",
"241 629 LINE SMOOTH",
"241 712 OFFCURVE",
"276 734 OFFCURVE",
"317 734 CURVE SMOOTH",
"340 734 OFFCURVE",
"350 727 OFFCURVE",
"350 715 CURVE SMOOTH",
"350 697 OFFCURVE",
"326 693 OFFCURVE",
"326 659 CURVE SMOOTH",
"326 621 OFFCURVE",
"355 603 OFFCURVE",
"387 603 CURVE SMOOTH",
"427 603 OFFCURVE",
"456 630 OFFCURVE",
"456 670 CURVE SMOOTH",
"456 722 OFFCURVE",
"405 766 OFFCURVE",
"323 766 CURVE SMOOTH",
"188 766 OFFCURVE",
"103 649 OFFCURVE",
"103 479 CURVE SMOOTH",
"103 0 LINE"
);
},
{
closed = 1;
nodes = (
"342 0 LINE",
"342 30 LINE",
"23 30 LINE",
"23 0 LINE"
);
},
{
closed = 1;
nodes = (
"349 410 LINE",
"349 440 LINE",
"20 440 LINE",
"20 410 LINE"
);
}
);
width = 346;
}
);
leftKerningGroup = f;
rightKerningGroup = f;
unicode = 0066;
},
{
glyphname = g;
lastChange = "2016-08-22 11:52:33 +0000";
layers = (
{
anchors = (
{
name = bottom;
position = "{259, 0}";
},
{
name = top;
position = "{259, 450}";
}
);
background = {
paths = (
{
closed = 1;
nodes = (
"379 -326 OFFCURVE",
"472 -232 OFFCURVE",
"472 -90 CURVE SMOOTH",
"472 0 OFFCURVE",
"435 40 OFFCURVE",
"349 40 CURVE SMOOTH",
"142 40 LINE SMOOTH",
"108 40 OFFCURVE",
"87 56 OFFCURVE",
"87 82 CURVE SMOOTH",
"87 118 OFFCURVE",
"126 141 OFFCURVE",
"179 141 CURVE SMOOTH",
"242 141 LINE SMOOTH",
"332 141 OFFCURVE",
"414 218 OFFCURVE",
"414 301 CURVE SMOOTH",
"414 327 OFFCURVE",
"406 352 OFFCURVE",
"392 375 CURVE",
"394 400 OFFCURVE",
"400 409 OFFCURVE",
"411 409 CURVE SMOOTH",
"435 409 OFFCURVE",
"426 372 OFFCURVE",
"463 372 CURVE SMOOTH",
"488 372 OFFCURVE",
"504 389 OFFCURVE",
"504 414 CURVE SMOOTH",
"504 442 OFFCURVE",
"482 462 OFFCURVE",
"450 462 CURVE SMOOTH",
"415 462 OFFCURVE",
"386 438 OFFCURVE",
"371 402 CURVE",
"339 438 OFFCURVE",
"292 462 OFFCURVE",
"242 462 CURVE SMOOTH",
"152 462 OFFCURVE",
"71 384 OFFCURVE",
"71 301 CURVE SMOOTH",
"71 246 OFFCURVE",
"106 194 OFFCURVE",
"156 165 CURVE",
"86 158 OFFCURVE",
"47 119 OFFCURVE",
"47 52 CURVE SMOOTH",
"47 -1 OFFCURVE",
"71 -38 OFFCURVE",
"120 -59 CURVE",
"120 -63 LINE",
"72 -89 OFFCURVE",
"43 -132 OFFCURVE",
"43 -181 CURVE SMOOTH",
"43 -263 OFFCURVE",
"127 -326 OFFCURVE",
"240 -326 CURVE SMOOTH"
);
},
{
closed = 1;
nodes = (
"171 -296 OFFCURVE",
"115 -244 OFFCURVE",
"115 -172 CURVE SMOOTH",
"115 -129 OFFCURVE",
"135 -80 OFFCURVE",
"159 -62 CURVE",
"370 -62 LINE SMOOTH",
"408 -62 OFFCURVE",
"431 -88 OFFCURVE",
"431 -132 CURVE SMOOTH",
"431 -218 OFFCURVE",
"345 -296 OFFCURVE",
"249 -296 CURVE SMOOTH"
);
},
{
closed = 1;
nodes = (
"187 168 OFFCURVE",
"174 196 OFFCURVE",
"174 300 CURVE SMOOTH",
"174 403 OFFCURVE",
"187 430 OFFCURVE",
"241 430 CURVE SMOOTH",
"297 430 OFFCURVE",
"311 402 OFFCURVE",
"311 300 CURVE SMOOTH",
"311 197 OFFCURVE",
"297 168 OFFCURVE",
"241 168 CURVE SMOOTH"
);
}
);
};
layerId = UUID0;
paths = (
{
closed = 1;
nodes = (
"379 -326 OFFCURVE",
"472 -232 OFFCURVE",
"472 -90 CURVE SMOOTH",
"472 0 OFFCURVE",
"435 40 OFFCURVE",
"349 40 CURVE SMOOTH",
"142 40 LINE SMOOTH",
"108 40 OFFCURVE",
"87 56 OFFCURVE",
"87 82 CURVE SMOOTH",
"87 118 OFFCURVE",
"126 141 OFFCURVE",
"179 141 CURVE SMOOTH",
"242 141 LINE SMOOTH",
"332 141 OFFCURVE",
"414 218 OFFCURVE",
"414 301 CURVE SMOOTH",
"414 327 OFFCURVE",
"406 352 OFFCURVE",
"392 375 CURVE",
"394 400 OFFCURVE",
"400 409 OFFCURVE",
"411 409 CURVE SMOOTH",
"435 409 OFFCURVE",
"426 372 OFFCURVE",
"463 372 CURVE SMOOTH",
"488 372 OFFCURVE",
"504 389 OFFCURVE",
"504 414 CURVE SMOOTH",
"504 442 OFFCURVE",
"482 462 OFFCURVE",
"450 462 CURVE SMOOTH",
"415 462 OFFCURVE",
"386 438 OFFCURVE",
"371 402 CURVE",
"339 438 OFFCURVE",
"292 462 OFFCURVE",
"242 462 CURVE SMOOTH",
"152 462 OFFCURVE",
"71 384 OFFCURVE",
"71 301 CURVE SMOOTH",
"71 246 OFFCURVE",
"106 194 OFFCURVE",
"156 165 CURVE",
"86 158 OFFCURVE",
"47 119 OFFCURVE",
"47 52 CURVE SMOOTH",
"47 -1 OFFCURVE",
"71 -38 OFFCURVE",
"120 -59 CURVE",
"120 -63 LINE",
"72 -89 OFFCURVE",
"43 -132 OFFCURVE",
"43 -181 CURVE SMOOTH",
"43 -263 OFFCURVE",
"127 -326 OFFCURVE",
"240 -326 CURVE SMOOTH",
"240 -326 LINE"
);
},
{
closed = 1;
nodes = (
"171 -296 OFFCURVE",
"115 -244 OFFCURVE",
"115 -172 CURVE SMOOTH",
"115 -129 OFFCURVE",
"135 -80 OFFCURVE",
"159 -62 CURVE",
"370 -62 LINE SMOOTH",
"408 -62 OFFCURVE",
"431 -88 OFFCURVE",
"431 -132 CURVE SMOOTH",
"431 -218 OFFCURVE",
"345 -296 OFFCURVE",
"249 -296 CURVE SMOOTH",
"249 -296 LINE SMOOTH"
);
},
{
closed = 1;
nodes = (
"187 168 OFFCURVE",
"174 196 OFFCURVE",
"174 300 CURVE SMOOTH",
"174 403 OFFCURVE",
"187 430 OFFCURVE",
"241 430 CURVE SMOOTH",
"297 430 OFFCURVE",
"311 402 OFFCURVE",
"311 300 CURVE SMOOTH",
"311 197 OFFCURVE",
"297 168 OFFCURVE",
"241 168 CURVE SMOOTH"
);
}
);
width = 518;
},
{
anchors = (
{
name = bottom;
position = "{283, 0}";
},
{
name = top;
position = "{283, 450}";
}
);
background = {
paths = (
{
closed = 1;
nodes = (
"405 -324 OFFCURVE",
"533 -251 OFFCURVE",
"533 -92 CURVE SMOOTH",
"533 20 OFFCURVE",
"469 50 OFFCURVE",
"368 50 CURVE SMOOTH",
"156 50 LINE SMOOTH",
"119 50 OFFCURVE",
"103 68 OFFCURVE",
"103 86 CURVE SMOOTH",
"103 115 OFFCURVE",
"145 137 OFFCURVE",
"210 137 CURVE SMOOTH",
"272 137 LINE SMOOTH",
"385 137 OFFCURVE",
"478 196 OFFCURVE",
"478 299 CURVE SMOOTH",
"478 323 OFFCURVE",
"472 345 OFFCURVE",
"463 365 CURVE",
"465 389 OFFCURVE",
"471 396 OFFCURVE",
"483 396 CURVE SMOOTH",
"509 396 OFFCURVE",
"503 364 OFFCURVE",
"542 364 CURVE SMOOTH",
"571 364 OFFCURVE",
"585 382 OFFCURVE",
"585 406 CURVE SMOOTH",
"585 443 OFFCURVE",
"554 464 OFFCURVE",
"521 464 CURVE SMOOTH",
"482 464 OFFCURVE",
"456 435 OFFCURVE",
"442 397 CURVE",
"404 439 OFFCURVE",
"342 462 OFFCURVE",
"272 462 CURVE SMOOTH",
"159 462 OFFCURVE",
"69 402 OFFCURVE",
"69 299 CURVE SMOOTH",
"69 236 OFFCURVE",
"102 189 OFFCURVE",
"154 163 CURVE",
"79 150 OFFCURVE",
"43 107 OFFCURVE",
"43 47 CURVE SMOOTH",
"43 -12 OFFCURVE",
"79 -42 OFFCURVE",
"136 -63 CURVE",
"136 -67 LINE",
"81 -89 OFFCURVE",
"40 -128 OFFCURVE",
"40 -181 CURVE SMOOTH",
"40 -260 OFFCURVE",
"133 -324 OFFCURVE",
"264 -324 CURVE SMOOTH"
);
},
{
closed = 1;
nodes = (
"197 -289 OFFCURVE",
"148 -238 OFFCURVE",
"148 -168 CURVE SMOOTH",
"148 -135 OFFCURVE",
"159 -86 OFFCURVE",
"178 -66 CURVE",
"413 -66 LINE SMOOTH",
"461 -66 OFFCURVE",
"477 -83 OFFCURVE",
"477 -124 CURVE SMOOTH",
"477 -228 OFFCURVE",
"377 -289 OFFCURVE",
"283 -289 CURVE SMOOTH"
);
},
{
closed = 1;
nodes = (
"224 173 OFFCURVE",
"209 194 OFFCURVE",
"209 301 CURVE SMOOTH",
"209 408 OFFCURVE",
"224 431 OFFCURVE",
"273 431 CURVE SMOOTH",
"321 431 OFFCURVE",
"338 409 OFFCURVE",
"338 300 CURVE SMOOTH",
"338 195 OFFCURVE",
"322 173 OFFCURVE",
"273 173 CURVE SMOOTH"
);
}
);
};
layerId = "3AE1663F-34E8-4710-91A2-69F84C961E5F";
paths = (
{
closed = 1;
nodes = (
"405 -324 OFFCURVE",
"533 -251 OFFCURVE",
"533 -92 CURVE SMOOTH",
"533 20 OFFCURVE",
"469 50 OFFCURVE",
"368 50 CURVE SMOOTH",
"156 50 LINE SMOOTH",
"119 50 OFFCURVE",
"103 68 OFFCURVE",
"103 86 CURVE SMOOTH",
"103 115 OFFCURVE",
"145 137 OFFCURVE",
"210 137 CURVE SMOOTH",
"272 137 LINE SMOOTH",
"385 137 OFFCURVE",
"478 196 OFFCURVE",
"478 299 CURVE SMOOTH",
"478 323 OFFCURVE",
"472 345 OFFCURVE",
"463 365 CURVE",
"465 389 OFFCURVE",
"471 396 OFFCURVE",
"483 396 CURVE SMOOTH",
"509 396 OFFCURVE",
"503 364 OFFCURVE",
"542 364 CURVE SMOOTH",
"571 364 OFFCURVE",
"585 382 OFFCURVE",
"585 406 CURVE SMOOTH",
"585 443 OFFCURVE",
"554 464 OFFCURVE",
"521 464 CURVE SMOOTH",
"482 464 OFFCURVE",
"456 435 OFFCURVE",
"442 397 CURVE",
"404 439 OFFCURVE",
"342 462 OFFCURVE",
"272 462 CURVE SMOOTH",
"159 462 OFFCURVE",
"69 402 OFFCURVE",
"69 299 CURVE SMOOTH",
"69 236 OFFCURVE",
"102 189 OFFCURVE",
"154 163 CURVE",
"79 150 OFFCURVE",
"43 107 OFFCURVE",
"43 47 CURVE SMOOTH",
"43 -12 OFFCURVE",
"79 -42 OFFCURVE",
"136 -63 CURVE",
"136 -67 LINE",
"81 -89 OFFCURVE",
"40 -128 OFFCURVE",
"40 -181 CURVE SMOOTH",
"40 -260 OFFCURVE",
"133 -324 OFFCURVE",
"264 -324 CURVE SMOOTH",
"264 -324 LINE"
);
},
{
closed = 1;
nodes = (
"197 -289 OFFCURVE",
"148 -238 OFFCURVE",
"148 -168 CURVE SMOOTH",
"148 -135 OFFCURVE",
"159 -86 OFFCURVE",
"178 -66 CURVE",
"413 -66 LINE SMOOTH",
"461 -66 OFFCURVE",
"477 -83 OFFCURVE",
"477 -124 CURVE SMOOTH",
"477 -228 OFFCURVE",
"377 -289 OFFCURVE",
"283 -289 CURVE SMOOTH",
"283 -289 LINE"
);
},
{
closed = 1;
nodes = (
"224 173 OFFCURVE",
"209 194 OFFCURVE",
"209 301 CURVE SMOOTH",
"209 408 OFFCURVE",
"224 431 OFFCURVE",
"273 431 CURVE SMOOTH",
"321 431 OFFCURVE",
"338 409 OFFCURVE",
"338 300 CURVE SMOOTH",
"338 195 OFFCURVE",
"322 173 OFFCURVE",
"273 173 CURVE SMOOTH"
);
}
);
width = 565;
}
);
leftKerningGroup = g;
rightKerningGroup = g;
unicode = 0067;
},
{
glyphname = h;
lastChange = "2016-08-22 11:52:33 +0000";
layers = (
{
anchors = (
{
name = bottom;
position = "{298, 0}";
},
{
name = center;
position = "{298, 225}";
},
{
name = top;
position = "{298, 450}";
}
);
background = {
paths = (
{
closed = 1;
nodes = (
"17 415 LINE",
"206 415 LINE",
"206 440 LINE",
"17 440 LINE"
);
},
{
closed = 1;
nodes = (
"96 15 LINE",
"206 15 LINE",
"206 424 LINE",
"96 424 LINE"
);
},
{
closed = 1;
nodes = (
"17 0 LINE",
"271 0 LINE",
"271 25 LINE",
"17 25 LINE"
);
},
{
closed = 1;
nodes = (
"311 0 LINE",
"565 0 LINE",
"565 25 LINE",
"311 25 LINE"
);
},
{
closed = 1;
nodes = (
"497 343 LINE SMOOTH",
"497 404 OFFCURVE",
"441 452 OFFCURVE",
"362 452 CURVE SMOOTH",
"285 452 OFFCURVE",
"238 412 OFFCURVE",
"210 357 CURVE",
"186 357 LINE",
"206 212 LINE",
"206 329 OFFCURVE",
"260 418 OFFCURVE",
"327 418 CURVE SMOOTH",
"365 418 OFFCURVE",
"387 393 OFFCURVE",
"387 343 CURVE SMOOTH",
"387 15 LINE",
"497 15 LINE"
);
}
);
};
layerId = UUID0;
paths = (
{
closed = 1;
nodes = (
"506 15 LINE",
"506 353 LINE SMOOTH",
"506 414 OFFCURVE",
"449 462 OFFCURVE",
"368 462 CURVE SMOOTH",
"289 462 OFFCURVE",
"242 422 OFFCURVE",
"213 367 CURVE",
"189 367 LINE",
"209 222 LINE",
"209 339 OFFCURVE",
"264 428 OFFCURVE",
"333 428 CURVE SMOOTH",
"373 428 OFFCURVE",
"396 403 OFFCURVE",
"396 353 CURVE SMOOTH",
"396 15 LINE"
);
},
{
closed = 1;
nodes = (
"274 0 LINE",
"274 25 LINE",
"20 25 LINE",
"20 0 LINE"
);
},
{
closed = 1;
nodes = (
"574 0 LINE",
"574 25 LINE",
"320 25 LINE",
"320 0 LINE"
);
},
{
closed = 1;
nodes = (
"209 15 LINE",
"209 738 LINE",
"99 738 LINE",
"99 15 LINE"
);
},
{
closed = 1;
nodes = (
"209 729 LINE",
"209 754 LINE",
"20 754 LINE",
"20 729 LINE"
);
}
);
width = 596;
},
{
anchors = (
{
name = bottom;
position = "{310, 0}";
},
{
name = center;
position = "{310, 225}";
},
{
name = top;
position = "{310, 450}";
}
);
background = {
paths = (
{
closed = 1;
nodes = (
"20 724 LINE",
"239 724 LINE",
"239 754 LINE",
"20 754 LINE"
);
},
{
closed = 1;
nodes = (
"101 15 LINE",
"239 15 LINE",
"239 738 LINE",
"101 738 LINE"
);
},
{
closed = 1;
nodes = (
"20 0 LINE",
"304 0 LINE",
"304 30 LINE",
"20 30 LINE"
);
},
{
closed = 1;
nodes = (
"335 0 LINE",
"604 0 LINE",
"604 30 LINE",
"335 30 LINE"
);
},
{
closed = 1;
nodes = (
"541 342 LINE SMOOTH",
"541 403 OFFCURVE",
"482 451 OFFCURVE",
"396 451 CURVE SMOOTH",
"318 451 OFFCURVE",
"269 415 OFFCURVE",
"243 356 CURVE",
"219 356 LINE",
"239 201 LINE",
"239 318 OFFCURVE",
"292 407 OFFCURVE",
"358 407 CURVE SMOOTH",
"386 407 OFFCURVE",
"403 390 OFFCURVE",
"403 357 CURVE SMOOTH",
"403 15 LINE",
"541 15 LINE"
);
}
);
};
layerId = "3AE1663F-34E8-4710-91A2-69F84C961E5F";
paths = (
{
closed = 1;
nodes = (
"541 15 LINE",
"541 353 LINE SMOOTH",
"541 414 OFFCURVE",
"483 462 OFFCURVE",
"395 462 CURVE SMOOTH",
"319 462 OFFCURVE",
"269 426 OFFCURVE",
"243 367 CURVE",
"219 367 LINE",
"239 212 LINE",
"239 330 OFFCURVE",
"292 418 OFFCURVE",
"359 418 CURVE SMOOTH",
"386 418 OFFCURVE",
"403 404 OFFCURVE",
"403 358 CURVE SMOOTH",
"403 15 LINE"
);
},
{
closed = 1;
nodes = (
"304 0 LINE",
"304 30 LINE",
"20 30 LINE",
"20 0 LINE"
);
},
{
closed = 1;
nodes = (
"604 0 LINE",
"604 30 LINE",
"335 30 LINE",
"335 0 LINE"
);
},
{
closed = 1;
nodes = (
"239 15 LINE",
"239 738 LINE",
"101 738 LINE",
"101 15 LINE"
);
},
{
closed = 1;
nodes = (
"239 724 LINE",
"239 754 LINE",
"20 754 LINE",
"20 724 LINE"
);
}
);
width = 619;
}
);
leftKerningGroup = h;
rightKerningGroup = h;
unicode = 0068;
},
{
glyphname = i;
lastChange = "2016-08-22 12:07:32 +0000";
layers = (
{
anchors = (
{
name = bottom;
position = "{165, 0}";
},
{
name = top;
position = "{175, 450}";
}
);
components = (
{
name = idotless;
},
{
name = dotaccent;
transform = "{1, 0, 0, 1, 91, -3}";
}
);
layerId = UUID0;
width = 330;
},
{
anchors = (
{
name = bottom;
position = "{160, 0}";
},
{
name = top;
position = "{177, 450}";
}
);
background = {
paths = (
{
closed = 1;
nodes = (
"20 410 LINE",
"239 410 LINE",
"239 440 LINE",
"20 440 LINE"
);
},
{
closed = 1;
nodes = (
"101 15 LINE",
"239 15 LINE",
"239 424 LINE",
"101 424 LINE"
);
},
{
closed = 1;
nodes = (
"20 0 LINE",
"304 0 LINE",
"304 30 LINE",
"20 30 LINE"
);
},
{
closed = 1;
nodes = (
"87 610 OFFCURVE",
"124 573 OFFCURVE",
"167 573 CURVE SMOOTH",
"211 573 OFFCURVE",
"248 610 OFFCURVE",
"248 653 CURVE SMOOTH",
"248 697 OFFCURVE",
"211 734 OFFCURVE",
"167 734 CURVE SMOOTH",
"124 734 OFFCURVE",
"87 697 OFFCURVE",
"87 653 CURVE SMOOTH"
);
}
);
};
components = (
{
name = idotless;
},
{
name = dotaccent;
transform = "{1, 0, 0, 1, 72, -7}";
}
);
layerId = "3AE1663F-34E8-4710-91A2-69F84C961E5F";
width = 319;
}
);
leftKerningGroup = i;
rightKerningGroup = i;
unicode = 0069;
},
{
glyphname = idotless;
lastChange = "2016-08-22 10:12:19 +0000";
layers = (
{
anchors = (
{
name = bottom;
position = "{165, 0}";
},
{
name = ogonek;
position = "{297, 10}";
},
{
name = top;
position = "{165, 450}";
}
);
layerId = UUID0;
paths = (
{
closed = 1;
nodes = (
"224 15 LINE",
"224 425 LINE",
"114 425 LINE",
"114 15 LINE"
);
},
{
closed = 1;
nodes = (
"304 0 LINE",
"304 25 LINE",
"35 25 LINE",
"35 0 LINE"
);
},
{
closed = 1;
nodes = (
"224 416 LINE",
"224 441 LINE",
"25 441 LINE",
"25 416 LINE"
);
}
);
width = 330;
},
{
anchors = (
{
name = bottom;
position = "{160, 0}";
},
{
name = ogonek;
position = "{287, 10}";
},
{
name = top;
position = "{160, 450}";
}
);
layerId = "3AE1663F-34E8-4710-91A2-69F84C961E5F";
paths = (
{
closed = 1;
nodes = (
"239 15 LINE",
"239 434 LINE",
"101 434 LINE",
"101 15 LINE"
);
},
{
closed = 1;
nodes = (
"304 0 LINE",
"304 30 LINE",
"20 30 LINE",
"20 0 LINE"
);
},
{
closed = 1;
nodes = (
"239 420 LINE",
"239 450 LINE",
"20 450 LINE",
"20 420 LINE"
);
}
);
width = 319;
}
);
unicode = 0131;
},
{
glyphname = j;
lastChange = "2016-08-22 12:32:08 +0000";
layers = (
{
background = {
paths = (
{
closed = 1;
nodes = (
"146 -326 OFFCURVE",
"224 -236 OFFCURVE",
"224 -47 CURVE SMOOTH",
"224 450 LINE",
"25 450 LINE",
"25 425 LINE",
"114 425 LINE",
"114 -197 LINE SMOOTH",
"114 -273 OFFCURVE",
"95 -293 OFFCURVE",
"79 -293 CURVE SMOOTH",
"71 -293 OFFCURVE",
"61 -288 OFFCURVE",
"61 -274 CURVE SMOOTH",
"61 -266 OFFCURVE",
"64 -251 OFFCURVE",
"64 -242 CURVE SMOOTH",
"64 -215 OFFCURVE",
"39 -198 OFFCURVE",
"13 -198 CURVE SMOOTH",
"-18 -198 OFFCURVE",
"-42 -221 OFFCURVE",
"-42 -256 CURVE SMOOTH",
"-42 -295 OFFCURVE",
"-11 -326 OFFCURVE",
"47 -326 CURVE SMOOTH"
);
},
{
closed = 1;
nodes = (
"99 631 OFFCURVE",
"129 601 OFFCURVE",
"165 601 CURVE SMOOTH",
"201 601 OFFCURVE",
"231 631 OFFCURVE",
"231 667 CURVE SMOOTH",
"231 703 OFFCURVE",
"201 733 OFFCURVE",
"165 733 CURVE SMOOTH",
"129 733 OFFCURVE",
"99 703 OFFCURVE",
"99 667 CURVE SMOOTH"
);
}
);
};
components = (
{
name = jdotless;
},
{
name = dotaccent;
transform = "{1, 0, 0, 1, 91, -3}";
}
);
layerId = UUID0;
width = 330;
},
{
background = {
paths = (
{
closed = 1;
nodes = (
"156 -322 OFFCURVE",
"239 -205 OFFCURVE",
"239 -35 CURVE SMOOTH",
"239 450 LINE",
"15 450 LINE",
"15 420 LINE",
"101 420 LINE",
"101 -185 LINE SMOOTH",
"101 -264 OFFCURVE",
"81 -285 OFFCURVE",
"57 -285 CURVE SMOOTH",
"43 -285 OFFCURVE",
"36 -278 OFFCURVE",
"36 -266 CURVE SMOOTH",
"36 -250 OFFCURVE",
"50 -245 OFFCURVE",
"50 -217 CURVE SMOOTH",
"50 -176 OFFCURVE",
"21 -159 OFFCURVE",
"-11 -159 CURVE SMOOTH",
"-51 -159 OFFCURVE",
"-80 -186 OFFCURVE",
"-80 -225 CURVE SMOOTH",
"-80 -278 OFFCURVE",
"-26 -322 OFFCURVE",
"43 -322 CURVE SMOOTH"
);
},
{
closed = 1;
nodes = (
"87 610 OFFCURVE",
"124 573 OFFCURVE",
"167 573 CURVE SMOOTH",
"211 573 OFFCURVE",
"248 610 OFFCURVE",
"248 653 CURVE SMOOTH",
"248 697 OFFCURVE",
"211 734 OFFCURVE",
"167 734 CURVE SMOOTH",
"124 734 OFFCURVE",
"87 697 OFFCURVE",
"87 653 CURVE SMOOTH"
);
}
);
};
components = (
{
name = jdotless;
},
{
name = dotaccent;
transform = "{1, 0, 0, 1, 71, -7}";
}
);
layerId = "3AE1663F-34E8-4710-91A2-69F84C961E5F";
width = 318;
}
);
leftKerningGroup = j;
rightKerningGroup = j;
unicode = 006A;
},
{
glyphname = jdotless;
lastChange = "2016-08-22 12:24:23 +0000";
layers = (
{
anchors = (
{
name = bottom;
position = "{165, 0}";
},
{
name = top;
position = "{165, 450}";
}
);
background = {
paths = (
{
closed = 1;
nodes = (
"15 416 LINE",
"114 416 LINE",
"114 -185 LINE SMOOTH",
"114 -261 OFFCURVE",
"95 -281 OFFCURVE",
"79 -281 CURVE SMOOTH",
"71 -281 OFFCURVE",
"61 -276 OFFCURVE",
"61 -262 CURVE SMOOTH",
"61 -254 OFFCURVE",
"64 -239 OFFCURVE",
"64 -230 CURVE SMOOTH",
"64 -203 OFFCURVE",
"39 -186 OFFCURVE",
"13 -186 CURVE SMOOTH",
"-18 -186 OFFCURVE",
"-42 -209 OFFCURVE",
"-42 -244 CURVE SMOOTH",
"-42 -283 OFFCURVE",
"-11 -314 OFFCURVE",
"47 -314 CURVE SMOOTH",
"146 -314 OFFCURVE",
"224 -224 OFFCURVE",
"224 -35 CURVE SMOOTH",
"224 441 LINE",
"15 441 LINE"
);
}
);
};
layerId = UUID0;
paths = (
{
closed = 1;
nodes = (
"146 -326 OFFCURVE",
"224 -236 OFFCURVE",
"224 -47 CURVE SMOOTH",
"224 450 LINE",
"25 450 LINE",
"25 425 LINE",
"114 425 LINE",
"114 -197 LINE SMOOTH",
"114 -273 OFFCURVE",
"95 -293 OFFCURVE",
"79 -293 CURVE SMOOTH",
"71 -293 OFFCURVE",
"61 -288 OFFCURVE",
"61 -274 CURVE SMOOTH",
"61 -266 OFFCURVE",
"64 -251 OFFCURVE",
"64 -242 CURVE SMOOTH",
"64 -215 OFFCURVE",
"39 -198 OFFCURVE",
"13 -198 CURVE SMOOTH",
"-18 -198 OFFCURVE",
"-42 -221 OFFCURVE",
"-42 -256 CURVE SMOOTH",
"-42 -295 OFFCURVE",
"-11 -326 OFFCURVE",
"47 -326 CURVE SMOOTH",
"47 -326 LINE SMOOTH"
);
}
);
width = 330;
},
{
anchors = (
{
name = bottom;
position = "{159, 0}";
},
{
name = top;
position = "{159, 450}";
}
);
background = {
paths = (
{
closed = 1;
nodes = (
"15 420 LINE",
"239 420 LINE",
"239 450 LINE",
"15 450 LINE"
);
},
{
closed = 1;
nodes = (
"101 450 LINE",
"101 -185 LINE SMOOTH",
"101 -264 OFFCURVE",
"81 -285 OFFCURVE",
"57 -285 CURVE SMOOTH",
"43 -285 OFFCURVE",
"36 -278 OFFCURVE",
"36 -266 CURVE SMOOTH",
"36 -250 OFFCURVE",
"50 -245 OFFCURVE",
"50 -217 CURVE SMOOTH",
"50 -176 OFFCURVE",
"21 -159 OFFCURVE",
"-11 -159 CURVE SMOOTH",
"-51 -159 OFFCURVE",
"-80 -186 OFFCURVE",
"-80 -225 CURVE SMOOTH",
"-80 -278 OFFCURVE",
"-26 -322 OFFCURVE",
"43 -322 CURVE SMOOTH",
"156 -322 OFFCURVE",
"239 -205 OFFCURVE",
"239 -35 CURVE SMOOTH",
"239 450 LINE"
);
}
);
};
layerId = "3AE1663F-34E8-4710-91A2-69F84C961E5F";
paths = (
{
closed = 1;
nodes = (
"156 -322 OFFCURVE",
"239 -205 OFFCURVE",
"239 -35 CURVE SMOOTH",
"239 450 LINE",
"15 450 LINE",
"15 420 LINE",
"101 420 LINE",
"101 -185 LINE SMOOTH",
"101 -264 OFFCURVE",
"81 -285 OFFCURVE",
"57 -285 CURVE SMOOTH",
"43 -285 OFFCURVE",
"36 -278 OFFCURVE",
"36 -266 CURVE SMOOTH",
"36 -250 OFFCURVE",
"50 -245 OFFCURVE",
"50 -217 CURVE SMOOTH",
"50 -176 OFFCURVE",
"21 -159 OFFCURVE",
"-11 -159 CURVE SMOOTH",
"-51 -159 OFFCURVE",
"-80 -186 OFFCURVE",
"-80 -225 CURVE SMOOTH",
"-80 -278 OFFCURVE",
"-26 -322 OFFCURVE",
"43 -322 CURVE SMOOTH",
"43 -322 LINE SMOOTH"
);
}
);
width = 318;
}
);
unicode = 0237;
},
{
glyphname = k;
lastChange = "2016-10-31 09:59:46 +0000";
layers = (
{
anchors = (
{
name = bottom;
position = "{261, 0}";
},
{
name = top;
position = "{261, 450}";
}
);
background = {
paths = (
{
closed = 1;
nodes = (
"12 729 LINE",
"201 729 LINE",
"201 754 LINE",
"12 754 LINE"
);
},
{
closed = 1;
nodes = (
"91 15 LINE",
"201 15 LINE",
"201 738 LINE",
"91 738 LINE"
);
},
{
closed = 1;
nodes = (
"12 0 LINE",
"256 0 LINE",
"256 25 LINE",
"12 25 LINE"
);
},
{
closed = 1;
nodes = (
"318 0 LINE",
"564 0 LINE",
"564 25 LINE",
"318 25 LINE"
);
},
{
closed = 1;
nodes = (
"386 15 LINE",
"529 15 LINE",
"300 306 LINE",
"208 249 LINE"
);
},
{
closed = 1;
nodes = (
"285 425 LINE",
"517 425 LINE",
"517 450 LINE",
"285 450 LINE"
);
},
{
closed = 1;
nodes = (
"208 249 LINE",
"251 249 LINE",
"434 433 LINE",
"391 433 LINE"
);
}
);
};
layerId = UUID0;
paths = (
{
closed = 1;
nodes = (
"529 15 LINE",
"300 306 LINE",
"208 249 LINE",
"386 15 LINE"
);
},
{
closed = 1;
nodes = (
"256 0 LINE",
"256 25 LINE",
"12 25 LINE",
"12 0 LINE"
);
},
{
closed = 1;
nodes = (
"564 0 LINE",
"564 25 LINE",
"318 25 LINE",
"318 0 LINE"
);
},
{
closed = 1;
nodes = (
"201 15 LINE",
"201 738 LINE",
"91 738 LINE",
"91 15 LINE"
);
},
{
closed = 1;
nodes = (
"434 433 LINE",
"391 433 LINE",
"208 249 LINE",
"251 249 LINE"
);
},
{
closed = 1;
nodes = (
"201 729 LINE",
"201 754 LINE",
"12 754 LINE",
"12 729 LINE"
);
},
{
closed = 1;
nodes = (
"517 425 LINE",
"517 450 LINE",
"285 450 LINE",
"285 425 LINE"
);
}
);
width = 522;
},
{
anchors = (
{
name = bottom;
position = "{309, 0}";
},
{
name = top;
position = "{309, 450}";
}
);
background = {
paths = (
{
closed = 1;
nodes = (
"20 724 LINE",
"239 724 LINE",
"239 754 LINE",
"20 754 LINE"
);
},
{
closed = 1;
nodes = (
"101 15 LINE",
"239 15 LINE",
"239 738 LINE",
"101 738 LINE"
);
},
{
closed = 1;
nodes = (
"20 0 LINE",
"304 0 LINE",
"304 30 LINE",
"20 30 LINE"
);
},
{
closed = 1;
nodes = (
"339 0 LINE",
"628 0 LINE",
"628 30 LINE",
"339 30 LINE"
);
},
{
closed = 1;
nodes = (
"413 15 LINE",
"581 15 LINE",
"352 321 LINE",
"235 249 LINE"
);
},
{
closed = 1;
nodes = (
"332 420 LINE",
"565 420 LINE",
"565 450 LINE",
"332 450 LINE"
);
},
{
closed = 1;
nodes = (
"235 254 LINE",
"235 249 LINE",
"286 249 LINE",
"492 432 LINE",
"441 432 LINE"
);
}
);
};
layerId = "3AE1663F-34E8-4710-91A2-69F84C961E5F";
paths = (
{
closed = 1;
nodes = (
"581 15 LINE",
"352 321 LINE",
"247 254 LINE",
"413 15 LINE"
);
},
{
closed = 1;
nodes = (
"304 0 LINE",
"304 30 LINE",
"20 30 LINE",
"20 0 LINE"
);
},
{
closed = 1;
nodes = (
"628 0 LINE",
"628 30 LINE",
"339 30 LINE",
"339 0 LINE"
);
},
{
closed = 1;
nodes = (
"239 15 LINE",
"239 738 LINE",
"101 738 LINE",
"101 15 LINE"
);
},
{
closed = 1;
nodes = (
"492 432 LINE",
"441 432 LINE",
"247 254 LINE",
"286 249 LINE"
);
},
{
closed = 1;
nodes = (
"239 724 LINE",
"239 754 LINE",
"20 754 LINE",
"20 724 LINE"
);
},
{
closed = 1;
nodes = (
"565 420 LINE",
"565 450 LINE",
"332 450 LINE",
"332 420 LINE"
);
}
);
width = 618;
}
);
leftKerningGroup = k;
rightKerningGroup = k;
unicode = 006B;
},
